<svg xmlns="http://www.w3.org/2000/svg" xmlns:xlink="http://www.w3.org/1999/xlink" id="Layer_1" x="0" y="0" version="1.1" viewBox="0 0 487.776 487.776" xml:space="preserve" style="enable-background:new 0 0 487.776 487.776"><path style="fill:#3ea2c4" d="M243.896,0C140.064,0,55.888,85.288,55.888,190.48c0,141.648,150.352,297.296,188.008,297.296	S431.888,332.128,431.888,190.48C431.888,85.288,347.72,0,243.896,0z M243.896,306.696c-63,0-114.064-51.744-114.064-115.568	c0-25.304,8.032-48.704,21.656-67.728c1.464,24.448,21.432,43.832,45.928,43.832c25.44,0,46.056-20.888,46.056-46.688	c0-18.416-10.536-34.296-25.832-41.888c8.432-2.008,17.216-3.12,26.256-3.12c62.992,0,114.064,51.768,114.064,115.592	S306.888,306.696,243.896,306.696z"/><path style="fill:#1d87a8" d="M256.296,0.456c2.848,23.008,4.728,48.768,5.968,76.712c54.24,8.936,95.696,56.472,95.696,113.952 c0,56.776-40.448,103.896-93.712,113.632c-1.688,66.936-9.336,129.248-21.504,182.88c0.376,0.032,0.8,0.144,1.152,0.144 c37.656,0,187.992-155.648,187.992-297.296C431.888,89.504,354.352,6.936,256.296,0.456z"/><circle style="fill:#1d87a8" cx="198.424" cy="120.448" r="27.472"/><circle style="fill:#c5f3ff" cx="182.224" cy="114.416" r="18.568"/><circle style="fill:#c5f3ff" cx="215.728" cy="143.8" r="5.712"/><circle style="fill:#c5f3ff" cx="221.728" cy="125.704" r="4.128"/><path style="fill:#1d87a8" d="M353.928,221.192c-13.08,49.224-57.328,85.504-110.032,85.504c-50.552,0-93.368-33.36-108.32-79.504	c5.008,68.952,51.888,123.008,109.048,123.008C303.424,350.192,351.264,292.96,353.928,221.192z"/><path style="fill:#4fcced" d="M243.896,16.512c100.752,0,182.952,80.296,187.76,181.152c0.08-2.4,0.232-4.792,0.232-7.176	C431.888,85.296,347.72,0,243.896,0S55.888,85.288,55.888,190.48c0,2.392,0.16,4.784,0.232,7.176	C60.928,96.808,143.16,16.512,243.896,16.512z"/></svg>