<?xml version="1.0" encoding="iso-8859-1"?>
<!-- Generator: Adobe Illustrator 19.0.0, SVG Export Plug-In . SVG Version: 6.00 Build 0)  -->
<svg version="1.1" id="Layer_1" xmlns="http://www.w3.org/2000/svg" xmlns:xlink="http://www.w3.org/1999/xlink" x="0px" y="0px"
	 viewBox="0 0 290.626 290.626" style="enable-background:new 0 0 290.626 290.626;" xml:space="preserve">
<g>
	<g>
		<circle style="fill:#F9BA48;" cx="145.314" cy="42.188" r="42.188"/>
		<path style="fill:#333333;" d="M77.382,108.975l-4.327-8.311c-3.005,1.561-5.892,3.413-8.587,5.494l5.742,7.416
			C72.461,111.825,74.875,110.283,77.382,108.975z"/>
		<path style="fill:#333333;" d="M93.667,103.805l-1.369-9.277c-3.384,0.497-6.694,1.261-9.844,2.245l2.822,8.944
			C87.953,104.873,90.775,104.227,93.667,103.805z"/>
		<path style="fill:#333333;" d="M63.925,119.381l-6.924-6.328c-2.236,2.447-4.322,5.138-6.202,7.983l7.823,5.166
			C60.24,123.759,62.021,121.463,63.925,119.381z"/>
		<path style="fill:#333333;" d="M152.635,206.302l-0.127,9.375c67.889,0.919,117.333,14.677,126.989,28.073h-26.372v9.375h26.236
			c-9.708,12.717-57.056,27.473-129.361,28.092V262.5h-9.375v18.717c-72.305-0.619-119.653-15.375-129.361-28.092h26.237v-9.375
			H11.129c9.656-13.397,59.1-27.155,126.989-28.073l-0.127-9.375C69.418,207.23,0.001,222,0.001,248.438
			c0,27.403,74.869,42.188,145.312,42.188s145.312-14.784,145.312-42.188C290.626,222,221.209,207.23,152.635,206.302z"/>
		<path style="fill:#333333;" d="M239.823,121.036c-1.88-2.845-3.966-5.536-6.202-7.983l-6.923,6.328
			c1.903,2.081,3.689,4.383,5.297,6.82L239.823,121.036z"/>
		<path style="fill:#333333;" d="M236.232,133.786c0.553,1.186,1.012,2.283,1.397,3.262c-7.327,2.555-12.628,9.455-12.628,17.639
			c0,10.341,8.409,18.75,18.75,18.75s18.75-8.409,18.75-18.75c0-9.113-6.539-16.711-15.169-18.389
			c-0.572-1.683-1.406-3.9-2.606-6.469L236.232,133.786z M253.126,154.688c0,5.17-4.205,9.375-9.375,9.375s-9.375-4.205-9.375-9.375
			s4.205-9.375,9.375-9.375S253.126,149.517,253.126,154.688z"/>
		<path style="fill:#333333;" d="M208.173,96.778c-3.15-0.989-6.459-1.748-9.844-2.245l-1.369,9.277
			c2.892,0.427,5.719,1.073,8.395,1.917L208.173,96.778z"/>
		<path style="fill:#333333;" d="M226.154,106.153c-2.691-2.081-5.578-3.933-8.587-5.494l-4.327,8.311
			c2.508,1.308,4.922,2.85,7.172,4.594L226.154,106.153z"/>
		<polygon style="fill:#F9BA48;" points="145.314,243.75 98.439,93.75 192.188,93.75 		"/>
		<path style="fill:#333333;" d="M46.876,173.438c10.341,0,18.75-8.409,18.75-18.75c0-8.184-5.302-15.084-12.628-17.639
			c0.384-0.98,0.844-2.077,1.397-3.262l-8.498-3.956c-1.2,2.569-2.034,4.786-2.606,6.469c-8.625,1.678-15.164,9.277-15.164,18.389
			C28.126,165.028,36.536,173.438,46.876,173.438z M46.876,145.313c5.17,0,9.375,4.205,9.375,9.375s-4.205,9.375-9.375,9.375
			s-9.375-4.205-9.375-9.375S41.706,145.313,46.876,145.313z"/>
	</g>
</g>
<g>
</g>
<g>
</g>
<g>
</g>
<g>
</g>
<g>
</g>
<g>
</g>
<g>
</g>
<g>
</g>
<g>
</g>
<g>
</g>
<g>
</g>
<g>
</g>
<g>
</g>
<g>
</g>
<g>
</g>
</svg>
