<svg id="Layer_1" data-name="Layer 1" xmlns="http://www.w3.org/2000/svg" viewBox="0 0 524.39 96.41"><defs><style>.cls-1,.cls-4,.cls-8{fill:none;}.cls-1{stroke:#4e4e4e;}.cls-1,.cls-8{stroke-width:2px;}.cls-2{fill:#f3f3f3;}.cls-3{fill:#e6e6e5;}.cls-5{fill:#fff;}.cls-6{fill:#ccc;}.cls-7{fill:#5aa044;}.cls-7,.cls-9{opacity:0.3;}.cls-13,.cls-7,.cls-9{isolation:isolate;}.cls-8{stroke:#f57e2e;}.cls-10{fill:#010101;}.cls-11{fill:#f26722;}.cls-12{fill:#fab280;}.cls-13{fill:#fedd57;opacity:0.5;}.cls-14{fill:#7f1416;}.cls-15{font-size:52.52px;fill:#8dc63f;font-family:FingerPaint-Regular, Finger Paint;letter-spacing:-0.02em;}.cls-16{letter-spacing:0em;}.cls-17{letter-spacing:-0.04em;}.cls-18{letter-spacing:0em;}</style></defs><title>roadtrip</title><path id="path3634" class="cls-1" d="M13.61,4.5V69L41.26,96.66,68.91,69,87.34,87.44H124.2V22.93H87.34L68.91,4.5,41.26,32.15Z" transform="translate(-12.61 -2.09)"/><path id="path3610" class="cls-2" d="M13.61,69V4.5L41.26,32.15V96.66Z" transform="translate(-12.61 -2.09)"/><path id="path3612" class="cls-3" d="M68.91,69V4.5L41.26,32.15V96.66Z" transform="translate(-12.61 -2.09)"/><path id="path3614" class="cls-4" d="M68,70.62,86.43,88.38V23.84L68.68,5.41,68,70.62Z" transform="translate(-12.61 -2.09)"/><path id="path3616" class="cls-4" d="M86.41,88.37,123.28,88V23.85H86.6l-.19,64.52Z" transform="translate(-12.61 -2.09)"/><path id="path3640" class="cls-5" d="M68.91,69,87.34,87.44V22.93L68.91,4.5Z" transform="translate(-12.61 -2.09)"/><path id="path3642" class="cls-6" d="M87.34,22.93H124.2V87.44H87.52Z" transform="translate(-12.61 -2.09)"/><path id="path3709" class="cls-7" d="M13.61,69,41.26,96.66c.69-3.8,4.52-5.29,5.21-9.08.54-3-2.06-8.24-1.52-11.2,5.49-1,5.48-4.19,5.52-7.37a15.89,15.89,0,0,1-1.06-11c.36-2.47.71-5,1.06-7.42,4.76,10.36,18.6,35.07,14.75-.19.07-4.32-1.13-12,5.12-12.23C73.88,37.93,81,42.79,81.78,37c-1.56-5.62,4.51-6.66,7.43-10,1.21-2.24-5.28-7.54-8.61-10.81C76.53,12,73.2,8.49,68.91,4.5,59.48,14.15,51.1,22.12,41.47,32c-3.84,7.5-11.94-8.55-16-3.94-.67-10.41-6.3-5.94-7-4.73C17,26,33.54,44.2,32,46.89c-3.07,0-7.91-2-9.21,0S19.52,56.17,27.34,59c.71,5.22-5.85,1.83-6.42,6C20.31,72.13,16,67.6,13.61,69Z" transform="translate(-12.61 -2.09)"/><path id="path3725" class="cls-8" d="M13.54,27.55c7-2.23,19,38.42,28.52,31,2.25-3.45,4.81-6.45,10.91-4.4,0,0,8.06,1.4,12.37-1,4-2.25,5.24-8,5.24-8,3-7.36,11.29.17,14.89,8.39,1.3,4.74-7.3,5.47-3.77,12C85.55,74,93.21,74.27,101.62,76c11.32,2.33,12.24,7.63,12.17,11.54" transform="translate(-12.61 -2.09)"/><g id="path3644" class="cls-9"><polygon class="cls-10" points="28.65 96.41 74.72 87.2 74.72 52.18 56.29 2.41 28.65 28.22 28.65 96.41"/></g><path id="path3729" class="cls-11" d="M87.36,69.6l-.1,4.72c4.19,1.9,17.53,3.84,22.33,6.92a8,8,0,0,1,2.21,6.4l4.09-.1c-.73-3.66-1-6.88-5.25-10.07-6.93-5.18-17-2.63-23.28-7.87Z" transform="translate(-12.61 -2.09)"/><path id="path3731" class="cls-12" d="M13.43,25.35l.11,3.78c5.26,2.51,16.92,28.81,22.23,30.93,1.85,1.13,3.7,1.86,5.56,1l-.11-4.4c-.5,1.15-3.43,2.62-9.65-7.13L26,40c-5-8.75-7.57-14-12.59-14.68Z" transform="translate(-12.61 -2.09)"/><path id="path3744" class="cls-13" d="M92,23.87c-.77,5.48-2.77,7.12-2.74,9.22-1.86,4.64-3.9,17.5,4,13.48-.82,7,5.17-1.88,6.25,2.29C84.17,69.78,96.17,67.54,101,68c28.37,25,13.81-2.09,21.38-26,2-3.49,1.71-6.89,1.47-11a60.55,60.55,0,0,0,.44-8c-3.88.15-19.12.45-25.33.78,4.89,6.16-3,13.07-4.43,1.35L92,23.87Z" transform="translate(-12.61 -2.09)"/><g id="g3740"><path id="path3736" class="cls-14" d="M109.45,72.7c-5.32-7.38-10.64-9.22-8.86-18.44,0,0,1.77-7.37,8.86-7.37s8.87,7.37,8.87,7.37C120.1,63.48,114.77,65.32,109.45,72.7Z" transform="translate(-12.61 -2.09)"/><path id="path3738" class="cls-3" d="M113.89,57a4.44,4.44,0,1,1-4.44-4.61A4.53,4.53,0,0,1,113.89,57Z" transform="translate(-12.61 -2.09)"/></g><text class="cls-15" transform="translate(117.89 70.01)">R<tspan class="cls-16" x="40.23" y="0">oad </tspan><tspan class="cls-17" x="162.55" y="0">T</tspan><tspan class="cls-18" x="195.53" y="0">rip Map</tspan></text></svg>