<svg xmlns="http://www.w3.org/2000/svg" xmlns:xlink="http://www.w3.org/1999/xlink" id="Layer_1" x="0" y="0" version="1.1" viewBox="0 0 194.576 194.576" xml:space="preserve" style="enable-background:new 0 0 194.576 194.576"><g><g><g><path d="M145.922,48.644H48.654C21.825,48.644,0,70.465,0,97.288c0,26.823,21.825,48.644,48.654,48.644h97.268 c26.83,0,48.654-21.821,48.654-48.644S172.752,48.644,145.922,48.644z M145.922,138.983H48.654 c-22.995,0-41.705-18.703-41.705-41.695c0-22.992,18.71-41.695,41.705-41.695h97.268c22.995,0,41.705,18.703,41.705,41.695 C187.627,120.28,168.917,138.983,145.922,138.983z"/><path d="M53.856,69.492c-12.453,0-22.585,10.122-22.585,22.561v10.471c0,12.439,10.132,22.561,22.585,22.561 s22.585-10.122,22.585-22.561V92.052C76.441,79.613,66.309,69.492,53.856,69.492z M69.492,102.524 c0,8.609-7.014,15.612-15.636,15.612s-15.636-7.003-15.636-15.612V92.052c0-8.608,7.014-15.612,15.636-15.612 s15.636,7.003,15.636,15.612V102.524z"/><path d="M114.661,76.441c1.92,0,3.475-1.554,3.475-3.475c0-1.92-1.554-3.475-3.475-3.475H86.864c-1.92,0-3.475,1.554-3.475,3.475 v48.644c0,1.92,1.554,3.475,3.475,3.475c1.92,0,3.475-1.554,3.475-3.475V93.814h24.322c1.92,0,3.475-1.554,3.475-3.475 c0-1.92-1.554-3.475-3.475-3.475H90.339V76.441H114.661z"/><path d="M156.356,86.864h-24.322V76.441h24.322c1.92,0,3.475-1.554,3.475-3.475c0-1.92-1.554-3.475-3.475-3.475h-27.797 c-1.92,0-3.475,1.554-3.475,3.475v48.644c0,1.92,1.554,3.475,3.475,3.475c1.92,0,3.475-1.554,3.475-3.475V93.814h24.322 c1.92,0,3.475-1.554,3.475-3.475C159.831,88.419,158.277,86.864,156.356,86.864z"/></g></g></g></svg>