<?xml version="1.0" encoding="iso-8859-1"?>
<!-- Generator: Adobe Illustrator 19.1.0, SVG Export Plug-In . SVG Version: 6.00 Build 0)  -->
<svg version="1.1" id="Capa_1" xmlns="http://www.w3.org/2000/svg" xmlns:xlink="http://www.w3.org/1999/xlink" x="0px" y="0px"
	 viewBox="0 0 411 411" style="enable-background:new 0 0 411 411;" xml:space="preserve">
<g>
	<path d="M411,100.59V310.4c0,21.28-17.32,38.6-38.6,38.6H38.59C17.31,349,0,331.68,0,310.4V100.59C0,79.31,17.31,62,38.59,62H372.4
		C393.68,62,411,79.31,411,100.59z M396,310.4V100.59C396,87.58,385.41,77,372.4,77H341v54.68c0,1.99-0.79,3.9-2.2,5.3l-12.24,12.23
		c1.05,2.49,1.58,5.15,1.58,7.82c0,5.11-1.95,10.23-5.84,14.12c-3.78,3.78-8.8,5.86-14.14,5.86s-10.37-2.08-14.14-5.86
		c-3.78-3.77-5.86-8.8-5.86-14.14c0-5.34,2.08-10.36,5.86-14.14c3.77-3.78,8.8-5.86,14.14-5.86c2.73,0,5.37,0.55,7.81,1.58
		L326,128.57V77H38.59C25.58,77,15,87.58,15,100.59V310.4c0,13.01,10.58,23.6,23.59,23.6H326v-77.3l-10.03-10.03
		c-2.44,1.03-5.08,1.58-7.81,1.58c-5.34,0-10.37-2.08-14.14-5.86c-3.78-3.77-5.86-8.8-5.86-14.14s2.08-10.36,5.86-14.14
		c3.77-3.78,8.8-5.86,14.14-5.86s10.36,2.08,14.14,5.86c5.92,5.92,7.34,14.66,4.26,21.94l12.24,12.24c1.41,1.4,2.2,3.31,2.2,5.3V334
		h15V198.53c-7.32-2.98-12.51-10.16-12.51-18.53c0-11.03,8.97-20,20-20s20,8.97,20,20c0,8.37-5.17,15.55-12.49,18.52V334h1.4
		C385.41,334,396,323.41,396,310.4z M368.49,180c0-2.76-2.24-5-5-5c-2.75,0-5,2.24-5,5c0,2.75,2.25,5,5,5
		C366.25,185,368.49,182.75,368.49,180z M311.7,160.55c1.94-1.95,1.94-5.12-0.01-7.07c-0.94-0.95-2.2-1.47-3.53-1.47
		c-1.34,0-2.59,0.52-3.54,1.47c-0.94,0.94-1.46,2.2-1.46,3.53c0,1.34,0.52,2.59,1.46,3.54c0.95,0.94,2.2,1.46,3.54,1.46
		C309.49,162.01,310.75,161.49,311.7,160.55z M311.7,231.79c1.94-1.95,1.94-5.13-0.01-7.07c-0.94-0.95-2.2-1.47-3.53-1.47
		c-1.34,0-2.59,0.52-3.54,1.46c-0.94,0.95-1.46,2.21-1.46,3.54c0,1.34,0.52,2.59,1.46,3.54c0.95,0.94,2.2,1.46,3.54,1.46
		C309.49,233.25,310.75,232.73,311.7,231.79z"/>
	<path style="fill:#3DD0F2;" d="M396,100.59V310.4c0,13.01-10.59,23.6-23.6,23.6H371V198.52c7.32-2.97,12.49-10.15,12.49-18.52
		c0-11.03-8.97-20-20-20s-20,8.97-20,20c0,8.37,5.19,15.55,12.51,18.53V334h-15v-80.41c0-1.99-0.79-3.9-2.2-5.3l-12.24-12.24
		c3.08-7.28,1.66-16.02-4.26-21.94c-3.78-3.78-8.8-5.86-14.14-5.86s-10.37,2.08-14.14,5.86c-3.78,3.78-5.86,8.8-5.86,14.14
		s2.08,10.37,5.86,14.14c3.77,3.78,8.8,5.86,14.14,5.86c2.73,0,5.37-0.55,7.81-1.58L326,256.7V334H38.59
		C25.58,334,15,323.41,15,310.4V100.59C15,87.58,25.58,77,38.59,77H326v51.57l-10.03,10.02c-2.44-1.03-5.08-1.58-7.81-1.58
		c-5.34,0-10.37,2.08-14.14,5.86c-3.78,3.78-5.86,8.8-5.86,14.14c0,5.34,2.08,10.37,5.86,14.14c3.77,3.78,8.8,5.86,14.14,5.86
		s10.36-2.08,14.14-5.86c3.89-3.89,5.84-9.01,5.84-14.12c0-2.67-0.53-5.33-1.58-7.82l12.24-12.23c1.41-1.4,2.2-3.31,2.2-5.3V77h31.4
		C385.41,77,396,87.58,396,100.59z M264.71,190.26c0-4.14-3.36-7.5-7.5-7.5H35.29c-4.15,0-7.5,3.36-7.5,7.5s3.35,7.5,7.5,7.5h221.92
		C261.35,197.76,264.71,194.4,264.71,190.26z M264.71,220.74c0-4.14-3.36-7.5-7.5-7.5H35.29c-4.15,0-7.5,3.36-7.5,7.5
		s3.35,7.5,7.5,7.5h221.92C261.35,228.24,264.71,224.88,264.71,220.74z M256.02,159.79c0-4.14-3.36-7.5-7.5-7.5H43.97
		c-4.15,0-7.5,3.36-7.5,7.5s3.35,7.5,7.5,7.5h204.55C252.66,167.29,256.02,163.93,256.02,159.79z M256.02,251.21
		c0-4.14-3.36-7.5-7.5-7.5H43.97c-4.15,0-7.5,3.36-7.5,7.5s3.35,7.5,7.5,7.5h204.55C252.66,258.71,256.02,255.35,256.02,251.21z
		 M235.83,129.31c0-4.14-3.36-7.5-7.5-7.5H64.16c-4.15,0-7.5,3.36-7.5,7.5s3.35,7.5,7.5,7.5h164.17
		C232.47,136.81,235.83,133.45,235.83,129.31z M235.83,281.69c0-4.14-3.36-7.5-7.5-7.5H64.16c-4.15,0-7.5,3.36-7.5,7.5
		c0,4.14,3.35,7.5,7.5,7.5h164.17C232.47,289.19,235.83,285.83,235.83,281.69z M187.95,98.83c0-4.14-3.36-7.5-7.5-7.5h-68.4
		c-4.15,0-7.5,3.36-7.5,7.5s3.35,7.5,7.5,7.5h68.4C184.59,106.33,187.95,102.97,187.95,98.83z M187.95,312.17
		c0-4.14-3.36-7.5-7.5-7.5h-68.4c-4.15,0-7.5,3.36-7.5,7.5c0,4.14,3.35,7.5,7.5,7.5h68.4C184.59,319.67,187.95,316.31,187.95,312.17
		z"/>
	<path d="M257.21,182.76c4.14,0,7.5,3.36,7.5,7.5s-3.36,7.5-7.5,7.5H35.29c-4.15,0-7.5-3.36-7.5-7.5s3.35-7.5,7.5-7.5H257.21z"/>
	<path d="M257.21,213.24c4.14,0,7.5,3.36,7.5,7.5s-3.36,7.5-7.5,7.5H35.29c-4.15,0-7.5-3.36-7.5-7.5s3.35-7.5,7.5-7.5H257.21z"/>
	<path d="M248.52,152.29c4.14,0,7.5,3.36,7.5,7.5s-3.36,7.5-7.5,7.5H43.97c-4.15,0-7.5-3.36-7.5-7.5s3.35-7.5,7.5-7.5H248.52z"/>
	<path d="M248.52,243.71c4.14,0,7.5,3.36,7.5,7.5s-3.36,7.5-7.5,7.5H43.97c-4.15,0-7.5-3.36-7.5-7.5s3.35-7.5,7.5-7.5H248.52z"/>
	<path d="M228.33,121.81c4.14,0,7.5,3.36,7.5,7.5s-3.36,7.5-7.5,7.5H64.16c-4.15,0-7.5-3.36-7.5-7.5s3.35-7.5,7.5-7.5H228.33z"/>
	<path d="M228.33,274.19c4.14,0,7.5,3.36,7.5,7.5c0,4.14-3.36,7.5-7.5,7.5H64.16c-4.15,0-7.5-3.36-7.5-7.5c0-4.14,3.35-7.5,7.5-7.5
		H228.33z"/>
	<path d="M180.45,91.33c4.14,0,7.5,3.36,7.5,7.5s-3.36,7.5-7.5,7.5h-68.4c-4.15,0-7.5-3.36-7.5-7.5s3.35-7.5,7.5-7.5H180.45z"/>
	<path d="M180.45,304.67c4.14,0,7.5,3.36,7.5,7.5c0,4.14-3.36,7.5-7.5,7.5h-68.4c-4.15,0-7.5-3.36-7.5-7.5c0-4.14,3.35-7.5,7.5-7.5
		H180.45z"/>
</g>
<g>
</g>
<g>
</g>
<g>
</g>
<g>
</g>
<g>
</g>
<g>
</g>
<g>
</g>
<g>
</g>
<g>
</g>
<g>
</g>
<g>
</g>
<g>
</g>
<g>
</g>
<g>
</g>
<g>
</g>
</svg>
