<?xml version="1.0" encoding="iso-8859-1"?>
<!-- Generator: Adobe Illustrator 19.0.0, SVG Export Plug-In . SVG Version: 6.00 Build 0)  -->
<svg version="1.1" id="Layer_1" xmlns="http://www.w3.org/2000/svg" xmlns:xlink="http://www.w3.org/1999/xlink" x="0px" y="0px"
	 viewBox="0 0 512 512" style="enable-background:new 0 0 512 512;" xml:space="preserve">
<circle style="fill:#FF5050;" cx="256" cy="256" r="241.371"/>
<path d="M256,512C114.842,512,0,397.158,0,256S114.842,0,256,0s256,114.842,256,256S397.158,512,256,512z M256,29.257
	C130.974,29.257,29.257,130.974,29.257,256S130.974,482.743,256,482.743S482.743,381.026,482.743,256S381.026,29.257,256,29.257z"/>
<path d="M245.757,95.498c-8.079,0-14.629-6.545-14.629-14.623v-0.012c0-8.078,6.549-14.629,14.629-14.629
	c8.079,0,14.629,6.551,14.629,14.629S253.836,95.498,245.757,95.498z"/>
<path d="M79.401,263.883c-8.079,0-14.629-6.551-14.629-14.629c0-39.784,12.548-77.616,36.289-109.409
	c22.943-30.723,55.637-53.914,92.058-65.3c7.711-2.409,15.917,1.886,18.327,9.596c2.411,7.711-1.886,15.917-9.598,18.327
	C137.359,122.631,94.03,181.62,94.03,249.255C94.03,257.333,87.48,263.883,79.401,263.883z"/>
<path style="fill:#7BFFCD;" d="M318.531,232.028c1.51,2.573,2.88,5.265,4.089,8.074c15.813,36.734-1.207,79.486-37.941,95.299
	c-36.734,15.813-79.486-1.207-95.299-37.941c-9.356-21.735-7.213-45.574,3.701-64.696l-24.177-56.161
	c-37.585,35.52-50.991,92.047-29.355,142.307c27.686,64.313,102.267,94.006,166.58,66.32c64.313-27.686,94.006-102.267,66.32-166.58
	c-7.404-17.199-18.164-31.918-31.182-43.731L318.531,232.028z"/>
<path d="M256.196,410.188c-54.809,0-107.071-32.042-130.082-85.494c-23.387-54.328-10.228-118.113,32.743-158.723
	c3.473-3.283,8.328-4.662,13.005-3.695c4.678,0.965,8.591,4.156,10.48,8.543l24.177,56.161c1.817,4.219,1.546,9.048-0.731,13.036
	c-9.133,16.001-10.215,34.831-2.97,51.661c6.103,14.177,17.389,25.141,31.779,30.869c14.389,5.727,30.12,5.522,44.3-0.579
	c14.178-6.105,25.141-17.39,30.869-31.779c5.73-14.39,5.522-30.123-0.579-44.3c-0.946-2.199-2.047-4.37-3.27-6.453
	c-2.285-3.893-2.645-8.622-0.974-12.816l22.736-57.108c1.773-4.456,5.619-7.759,10.291-8.84c4.674-1.08,9.579,0.197,13.131,3.417
	c15.015,13.624,26.721,30.035,34.788,48.78c14.936,34.695,15.467,73.128,1.495,108.221s-40.773,62.644-75.466,77.58
	C293.748,406.487,274.824,410.188,256.196,410.188z M164.643,203.7c-22.336,31.476-27.288,73.115-11.658,109.426
	c24.452,56.801,90.554,83.12,147.359,58.666c27.516-11.845,48.772-33.695,59.853-61.529c11.081-27.831,10.66-58.314-1.186-85.83
	c-3.449-8.014-7.733-15.486-12.81-22.363l-11.581,29.089c0.5,1.046,0.979,2.099,1.434,3.155c9.194,21.358,9.51,45.041,0.889,66.692
	c-8.621,21.65-25.128,38.637-46.482,47.83c-21.356,9.193-45.04,9.51-66.689,0.889c-21.65-8.621-38.637-25.128-47.83-46.482
	c-9.914-23.03-9.485-48.527,0.973-71.036L164.643,203.7z"/>
<rect x="233.384" y="144.823" style="fill:#7BFFCD;" width="45.227" height="100.937"/>
<path d="M278.613,260.389h-45.227c-8.079,0-14.629-6.551-14.629-14.629V144.823c0-8.078,6.549-14.629,14.629-14.629h45.227
	c8.079,0,14.629,6.551,14.629,14.629V245.76C293.241,253.838,286.692,260.389,278.613,260.389z M248.016,231.131h15.97v-71.68
	h-15.97L248.016,231.131L248.016,231.131z"/>
<g>
</g>
<g>
</g>
<g>
</g>
<g>
</g>
<g>
</g>
<g>
</g>
<g>
</g>
<g>
</g>
<g>
</g>
<g>
</g>
<g>
</g>
<g>
</g>
<g>
</g>
<g>
</g>
<g>
</g>
</svg>
