<svg xmlns="http://www.w3.org/2000/svg" xmlns:xlink="http://www.w3.org/1999/xlink" id="Layer_1" x="0" y="0" version="1.1" viewBox="0 0 512 512" xml:space="preserve" style="enable-background:new 0 0 512 512"><path style="fill:#a8f7ff" d="M306.637,314.563c0-101.483,0-238.159,0-255.486C306.637,31.11,283.966,8.44,256,8.44	s-50.637,22.671-50.637,50.637c0,17.327,0,154.003,0,255.486c-30.27,17.512-50.637,50.238-50.637,87.723	c0,55.933,45.342,101.275,101.275,101.275s101.275-45.342,101.275-101.275C357.275,364.801,336.907,332.074,306.637,314.563z"/><path style="fill:#fc3737" d="M256,475.429c-40.331,0-73.143-32.812-73.143-73.143c0-31.887,20.609-59.904,50.637-69.603V87.209	h45.011v245.474c30.028,9.699,50.637,37.717,50.637,69.603C329.143,442.617,296.331,475.429,256,475.429z"/><path style="fill:#db1616" d="M256,450.11c-26.371,0-47.824-21.453-47.824-47.824c0-4.662,3.778-8.44,8.44-8.44	c4.662,0,8.44,3.778,8.44,8.44c0,17.063,13.883,30.945,30.945,30.945c17.063,0,30.945-13.883,30.945-30.945	c0-13.477-8.604-25.312-21.409-29.448c-4.435-1.432-6.87-6.189-5.436-10.625c1.432-4.435,6.194-6.871,10.625-5.436	c19.798,6.394,33.1,24.684,33.1,45.509C303.824,428.657,282.371,450.11,256,450.11z"/><path d="M256,512c-60.497,0-109.714-49.217-109.714-109.714c0-37.395,19.28-72.378,50.637-92.462V59.077	C196.923,26.502,223.426,0,256,0s59.077,26.502,59.077,59.077v250.747c31.357,20.084,50.637,55.066,50.637,92.462	C365.714,462.783,316.497,512,256,512z M256,16.879c-23.268,0-42.198,18.929-42.198,42.198v255.486c0,3.012-1.606,5.796-4.213,7.305	c-28.635,16.566-46.424,47.381-46.424,80.418c0,51.189,41.646,92.835,92.835,92.835s92.835-41.646,92.835-92.835	c0-33.037-17.789-63.851-46.424-80.418c-2.607-1.509-4.213-4.293-4.213-7.305V59.077C298.198,35.808,279.268,16.879,256,16.879z"/><path d="M256,478.242c-41.883,0-75.956-34.073-75.956-75.956c0-32.419,20.514-60.988,50.637-71.62V92.835	c0-4.662,3.778-8.44,8.44-8.44h33.758c4.662,0,8.44,3.778,8.44,8.44v237.83c30.124,10.633,50.637,39.201,50.637,71.62	C331.956,444.168,297.883,478.242,256,478.242z M247.56,101.275v235.63c0,3.848-2.604,7.209-6.329,8.172	c-26.088,6.739-44.309,30.265-44.309,57.209c0,32.574,26.502,59.077,59.077,59.077s59.077-26.502,59.077-59.077	c0-26.944-18.22-50.47-44.309-57.209c-3.725-0.962-6.329-4.323-6.329-8.172v-235.63H247.56z"/></svg>