<?xml version="1.0" encoding="utf-8"?>
<!-- Generator: Adobe Illustrator 16.0.0, SVG Export Plug-In . SVG Version: 6.00 Build 0)  -->
<!DOCTYPE svg PUBLIC "-//W3C//DTD SVG 1.1//EN" "http://www.w3.org/Graphics/SVG/1.1/DTD/svg11.dtd">
<svg version="1.1" id="Layer_1" xmlns="http://www.w3.org/2000/svg" xmlns:xlink="http://www.w3.org/1999/xlink" x="0px" y="0px"
	 width="1400px" height="980px" viewBox="0 0 1400 980" enable-background="new 0 0 1400 980" xml:space="preserve">
<g>
</g>
<g>
	
		<radialGradient id="SVGID_1_" cx="427.0137" cy="149.7178" r="979.9547" gradientTransform="matrix(0.9886 -0.1503 0.0984 0.6476 -9.8892 116.9245)" gradientUnits="userSpaceOnUse">
		<stop  offset="0.3462" style="stop-color:#26184D"/>
		<stop  offset="0.6454" style="stop-color:#26174D"/>
		<stop  offset="0.7692" style="stop-color:#24154A"/>
		<stop  offset="0.8606" style="stop-color:#201045"/>
		<stop  offset="0.9355" style="stop-color:#1A083D"/>
		<stop  offset="1" style="stop-color:#120033"/>
	</radialGradient>
	<rect x="0" fill="url(#SVGID_1_)" width="1400" height="980"/>
	<path fill="#070028" d="M1400,0h-312.717c-53.146,58.853-107.895,145.876-55.635,245.228
		c66.711,126.827,84.711,198.827,2.195,378.746C994.496,709.768,1232.592,907.328,1400,868.055V0z"/>
	<radialGradient id="SVGID_2_" cx="642.7983" cy="124.1641" r="775.1335" gradientUnits="userSpaceOnUse">
		<stop  offset="0.3462" style="stop-color:#26184D"/>
		<stop  offset="0.6454" style="stop-color:#26174D"/>
		<stop  offset="0.7692" style="stop-color:#24154A"/>
		<stop  offset="0.8606" style="stop-color:#201045"/>
		<stop  offset="0.9355" style="stop-color:#1A083D"/>
		<stop  offset="1" style="stop-color:#120033"/>
	</radialGradient>
	<path fill="url(#SVGID_2_)" d="M847.443,659.637C566.957,742.713,452.962,832.128,371.966,980H1400V0h-107.592
		C1287.426,269.909,1115.676,580.189,847.443,659.637z"/>
	
		<radialGradient id="SVGID_3_" cx="467.1162" cy="577.8887" r="705.7614" gradientTransform="matrix(0.9886 -0.1503 0.0984 0.6476 -51.5826 273.8249)" gradientUnits="userSpaceOnUse">
		<stop  offset="0.4279" style="stop-color:#FFFCDD"/>
		<stop  offset="0.481" style="stop-color:#FFF2D1"/>
		<stop  offset="0.5701" style="stop-color:#FFDDB6"/>
		<stop  offset="0.6844" style="stop-color:#FBBB8E"/>
		<stop  offset="0.8194" style="stop-color:#F68F5F"/>
		<stop  offset="0.9702" style="stop-color:#F0542A"/>
		<stop  offset="1" style="stop-color:#EF4423"/>
	</radialGradient>
	<path opacity="0.1" fill="url(#SVGID_3_)" d="M571.125,576.914c-48.75,105.848-170.002,47.787-237.986,91.297
		C172.849,770.797,117.731,923.314,103.381,980h1192.537c-33.684-79.477-133.821-274.05-328.831-382.569
		C814.226,512.366,628.938,451.393,571.125,576.914z"/>
	<path fill="#070028" d="M1400,267.947c-57.326,19.629-108.004,63.785-131.252,149.146
		C1207.5,641.976,1015.145,716.458,941.982,725.71c-73.16,9.252-98.867,82.575-106.973,122.842
		c-11.982,59.52-15.197,101.931-14.725,131.448H1400V267.947z"/>
	<path fill="#19053B" d="M0,558.76c73.987-81.036,235.4-201.975,529.458-220.106C811.176,321.281,894.717,150.113,881.186,0H0
		V558.76z"/>
	<radialGradient id="SVGID_4_" cx="722.9492" cy="703.1348" r="836.3142" gradientUnits="userSpaceOnUse">
		<stop  offset="0" style="stop-color:#FFFCDD"/>
		<stop  offset="0.1671" style="stop-color:#CDC6BE"/>
		<stop  offset="0.5396" style="stop-color:#766B84"/>
		<stop  offset="1" style="stop-color:#26184D"/>
	</radialGradient>
	<path opacity="0.4" fill="url(#SVGID_4_)" d="M0,471.689v-5.001c35.907-48.879,73.806-88.445,113.189-118.072
		c74.888-56.335,153.158-74.641,232.639-54.408c176.09,44.225,285.501,9.948,344.319-107.869
		c5.42-10.855,10.931-22.203,16.766-34.218C729.123,106.388,754.881,53.355,789.264,0h3.752
		c-35.137,54.047-61.16,107.627-83.404,153.432c-5.838,12.022-11.352,23.377-16.778,34.247
		c-42.965,86.06-112.461,128.132-214.555,128.137c-39.421,0.002-83.687-6.268-133.185-18.699C198.11,259.7,81.139,359.728,0,471.689
		z M350.413,333.577c95.567,20.939,171.236,22.988,231.33,6.262c65.887-18.338,116.295-59.649,154.105-126.292
		c5.123-9.028,10.205-18.104,15.588-27.714C784.754,126.338,821.297,61.095,870.959,0h-3.494
		c-49.646,61.182-85.875,125.85-118.646,184.367c-5.381,9.605-10.461,18.678-15.58,27.699
		C661.675,338.202,547.377,373.663,351.06,330.647c-44.234-9.859-87.462-10.055-128.485-0.58
		c-36.586,8.449-72.445,24.839-106.579,48.713C76.327,406.525,38.058,444.88,0,495.145v4.712
		C75.671,398.247,187.599,297.29,350.413,333.577z M353.071,351.808c100.882,20.619,177.022,22.35,239.618,5.449
		c69.441-18.751,123.305-61.53,164.668-130.783c4.068-6.81,8.162-13.707,12.299-20.675C808.98,139.555,852.549,66.17,913.873,0
		h-4.279c-60.262,65.724-103.65,138.792-142.518,204.267c-4.135,6.966-8.229,13.861-12.295,20.669
		c-77.852,130.344-194.063,166.25-401.104,123.933c-45.384-9.45-89.193-9.78-130.208-0.98
		c-36.71,7.876-72.396,23.343-106.066,45.973C70.164,425.609,30.813,468.918,0,508.974v4.951
		C78.347,410.978,187.755,317.384,353.071,351.808z M355.727,370.036c104.985,19.994,183.757,21.465,247.896,4.629
		c73.022-19.168,130.347-63.414,175.246-135.266l6.697-10.729C833.637,151.636,884.814,69.626,958.48,0h-4.186
		c-72.91,69.484-122.891,149.547-171.273,227.083l-6.697,10.727c-83.005,132.835-204.7,170.291-420.03,129.281
		c-89.188-17.324-166.87-3.635-237.485,41.852C71.364,439.504,31.994,481.854,0,522.752v4.89
		C82.833,420.545,186.914,337.245,355.727,370.036z M358.384,388.265c54.403,9.641,105.328,15.69,152.77,15.689
		c118.502-0.004,215.163-37.766,289.227-151.633C856.537,165.983,916.725,73.457,1007.668,0h-5.307
		c-4.451,3.657-8.881,7.373-13.27,11.192C907.43,82.237,849.221,171.729,797.865,250.685
		C695.049,408.756,548.027,418.824,358.913,385.312c-91.427-16.54-169.505-3.879-238.696,38.712
		C72.525,453.38,33.234,494.673,0,536.379v4.754C77.336,442.89,179.236,355.854,358.384,388.265z M342.432,278.886
		c84.41,22.673,151.917,25.5,206.382,8.642c27.342-8.464,51.474-22.194,71.725-40.811c20.314-18.675,37.401-42.892,50.788-71.979
		c4.911-10.67,9.964-22.015,15.313-34.026C705.439,98.505,727.123,49.832,755.84,0h-3.346
		c-28.49,49.464-49.908,97.538-68.594,139.491c-5.346,12.002-10.396,23.339-15.299,33.993
		C616.26,287.213,509.824,320.744,343.214,275.989c-77.424-21.034-155.29-1.675-231.426,57.545
		C67.414,368.049,29.892,411.203,0,452.368v5.297C70.321,359.97,192.008,238.017,342.432,278.886z M0,398.991
		c32.622-47.113,70.237-90.354,108.167-123.533c55.061-48.165,138.549-99.32,223.608-69.507
		c40.072,14.046,76.771,21.379,109.079,21.797c30.668,0.389,57.466-5.419,79.646-17.286c32.107-17.178,54.52-47.46,64.811-87.573
		l1.852-7.236C594.845,85.584,605.116,45.385,620.953,0h-3.109c-15.775,45.195-25.968,85.085-33.587,114.91l-1.851,7.233
		c-10.221,39.838-31.525,68.663-63.32,85.673c-44.778,23.957-109.205,22.333-186.317-4.696
		c-36.428-12.77-75.603-12.027-116.439,2.208c-35.902,12.514-72.958,35.35-110.137,67.873C69.037,305.702,32.19,347.812,0,393.756
		V398.991z M1400,181.809c-14.443,2.614-28.523,5.828-42.311,9.646c-53.926,14.935-104.125,39.241-153.467,74.308
		c-49.088,34.885-97.473,80.532-147.924,139.55c-193.82,226.735-403.896,214.251-647.144,199.793
		c-6.232-0.37-12.49-0.742-18.774-1.111c-121.018-7.12-198.44-10.604-253.102,1.006C85.78,615.938,51.281,640.183,0,686.565v4.053
		c51.987-47.2,86.405-71.746,137.902-82.684c54.293-11.53,131.538-8.05,252.302-0.946c6.283,0.37,12.541,0.742,18.772,1.112
		c122.058,7.253,237.347,14.105,344.449-9.441c118.914-26.145,215.879-86.963,305.154-191.397
		C1168.385,278.81,1271.615,207.803,1400,184.838V181.809z M110.901,305.679c77.748-64.321,153.851-85.606,226.206-63.259
		c150.785,46.281,251.486,13.92,291.212-93.586c3.03-8.201,6.209-17.067,9.575-26.454C650.255,87.898,665.433,45.572,686.345,0
		h-3.394c-20.374,44.672-35.338,86.379-47.882,121.366c-3.363,9.38-6.54,18.24-9.565,26.427
		c-19.134,51.781-52.685,86.089-99.72,101.969c-48.827,16.487-112.011,13.05-187.795-10.21
		c-38.625-11.93-78.958-11.454-119.876,1.414c-36.07,11.343-72.785,32.338-109.125,62.402C71.19,334.639,33.534,376.321,0,423.359
		v5.173C33.988,380.301,72.377,337.551,110.901,305.679z M109.535,290.569c77.812-66.241,155.584-89.195,224.908-66.383
		c83.147,27.272,150.19,28.345,199.261,3.186c34.979-17.933,59.577-48.72,73.112-91.505c1.839-5.814,3.766-12.025,5.803-18.596
		C622.503,85.407,635.107,44.782,653.203,0h-3.299c-17.754,44.187-30.225,84.387-40.15,116.382
		c-2.035,6.564-3.961,12.771-5.799,18.58c-13.283,41.993-37.38,72.186-71.619,89.74c-48.333,24.781-114.599,23.648-196.957-3.366
		c-37.524-12.349-77.278-11.739-118.157,1.811c-35.984,11.927-72.87,33.842-109.631,65.137
		c-32.07,27.301-63.346,61.049-92.958,100.307C9.667,395.172,4.786,401.872,0,408.657v5.297
		C33.372,366.21,71.578,322.881,109.535,290.569z M112.266,320.79c76.558-61.462,153.101-81.693,227.504-60.137
		c79.77,22.909,146.395,26.077,198.024,9.417c51.26-16.541,88.952-52.972,112.027-108.281c4.082-9.786,8.332-20.324,12.831-31.482
		C677.941,92.395,696.109,47.342,720.521,0h-3.385c-24.097,46.932-42.096,91.562-57.266,129.186
		c-4.496,11.149-8.742,21.68-12.817,31.449c-45.771,109.708-148.876,142.388-306.452,97.136
		c-39.734-11.513-80.644-11.17-121.597,1.016c-36.162,10.761-72.706,30.834-108.617,59.665C65.735,354.3,28.532,398.228,0,437.953
		v5.158C28.707,402.687,66.574,357.473,112.266,320.79z M347.753,315.347c91.745,21.531,164.699,23.842,223.031,7.066
		c62.357-17.934,109.315-57.774,143.555-121.798c5.533-10.346,11.086-20.947,16.967-32.17C758.557,116.43,789.447,57.469,831.141,0
		h-3.729c-41.129,57.045-71.732,115.455-98.764,167.053c-5.877,11.217-11.428,21.812-16.955,32.147
		c-65.22,121.956-177.25,156.877-363.25,113.228c-81.551-19.435-160.231-2.186-233.851,51.271
		C75.358,392.188,36.977,431.523,0,481.062v5.04C105.787,342.933,222.546,285.507,347.753,315.347z M374.305,497.631
		c124.25,13.684,218.724,18.235,305.677-1.322c99.948-22.481,179.223-75.388,249.487-166.498
		C1056.885,164.59,1181.355,60.158,1400,40.375v-3.115c-86.334,7.676-160.117,28.709-226.574,64.106
		c-45.096,24.02-87.473,54.982-129.547,94.658c-37.572,35.429-74.682,77.358-116.785,131.954
		C777.279,522.24,596.023,519.03,374.636,494.649c-109.413-12.299-185.26-6.174-245.93,19.856
		C77.245,536.585,38.671,572.472,0,614.538v4.418C86.597,524.046,156.896,473.197,374.305,497.631z M379.607,534.084
		c118.591,10.859,224.686,18.124,322.159-3.069c107.463-23.368,193.492-79.098,270.738-175.385
		C1105.244,190.17,1229.516,109.843,1400,91.766v-2.803c-60.912,6.425-115.232,20.479-165.148,42.438
		c-92.24,40.576-173.873,109.152-264.688,222.352c-160.898,200.56-338.183,200.432-590.281,177.344
		c-117.359-10.934-191.625-6.872-248.33,13.57C78.924,563.64,41.002,597.128,0,639.205v4.329
		C95.543,545.493,156.592,513.311,379.607,534.084z M376.956,515.856c110.078,11.081,216.916,19.249,313.918-2.192
		c103.702-22.924,186.352-77.242,260.112-170.942C1073.678,186.858,1194.381,86.986,1400,66.812v-3.214
		c-73.434,7.07-137.545,24.491-195.861,52.787c-88.18,42.787-166.982,112.02-255.51,224.481
		C793.23,538.278,613.789,536.682,377.26,512.872c-112.473-11.534-188.691-6.381-247.131,16.714
		C78.271,550.081,39.362,585.399,0,626.963v4.354C86.921,538.881,152.676,492.853,376.956,515.856z M384.907,570.537
		c119.801,8.929,232.961,17.363,338.501-4.942c114.916-24.287,207.742-82.801,292.135-184.148
		c120.189-145.29,235.021-221.014,384.457-241.351v-3.455c-36.672,4.875-71.023,13.04-103.859,24.679
		c-51.076,18.105-98.674,44.627-145.51,81.083c-45.27,35.235-90.213,80.092-137.396,137.129
		C829.123,600.636,623.37,585.301,385.131,567.545c-130.312-9.815-198.262-7.841-250.72,7.286
		C84.314,589.278,49.844,615.256,0,663.216v4.167C99.298,571.502,148.063,552.691,384.907,570.537z M387.556,588.763l6.882,0.458
		c121.844,8.115,236.932,15.781,342.866-6.854c117.41-25.086,212.658-84.827,299.756-188.013
		C1153.004,256.551,1261.238,183.293,1400,162.146v-2.73c-25.4,3.933-49.645,9.589-73.084,16.971
		c-52.508,16.535-101.406,41.949-149.488,77.695c-47.193,35.084-93.857,80.336-142.662,138.34
		C845.813,616.277,646.71,603.014,394.638,586.228l-6.882-0.459c-120.512-8.064-196.352-9.794-251.912,4.146
		C85.101,602.646,50.592,627.774,0,674.97v4.099C99.525,585.723,137.593,572.034,387.556,588.763z M363.693,424.722
		c121.254,18.512,202.804,19.146,272.685,2.115c41.422-10.094,77.803-26.395,111.221-49.833
		c35.488-24.892,66.826-57.224,95.807-98.847c78-112.031,157.057-212.744,277.617-278.157h-6.717
		c-22.014,12.218-43.186,25.917-63.758,41.268c-88.092,65.735-151.85,152.223-209.605,235.175
		C726.139,441.334,579.186,454.587,364.151,421.757c-50.868-7.939-95.716-8.783-137.111-2.579
		c-37.83,5.668-71.849,17.119-104.001,35.007C76.521,480.063,38.619,516.761,0,563.179v4.633
		C81.962,468.274,174.382,395.178,363.693,424.722z M366.348,442.948c88.879,12.559,191.761,22.528,280.937,1.266
		c43.155-10.29,81.151-26.963,116.155-50.971c37.381-25.639,70.576-59.059,101.48-102.171C953.082,168.09,1042.799,59.32,1192.889,0
		h-7.75c-36.758,15.103-71.053,33.692-103.867,56.298c-84.838,58.443-148.82,135.423-218.789,233.026
		C742.334,456.928,589.74,471.481,366.772,439.979c-99.871-14.423-176.87-5.118-242.319,29.286
		C74.326,495.613,34.994,534.99,0,576.201v4.71C83.065,482.684,171.849,414.854,366.348,442.948z M361.039,406.493
		c115.104,18.95,196.655,19.863,264.428,2.96c39.694-9.9,74.461-25.829,106.286-48.696c33.602-24.145,63.088-55.389,90.141-95.517
		C893.258,159.382,962.441,66.636,1059.854,0h-4.912c-11.928,8.231-23.623,16.96-35.119,26.232
		C938.016,92.211,878.34,176.144,819.404,263.563C710.586,424.976,563.53,436.79,361.531,403.534
		c-93.72-15.766-172.192-4.129-239.905,35.569C73.654,467.229,34.558,507.338,0,549.842v4.764
		C78.692,457.048,177.394,375.604,361.039,406.493z M371.653,479.403c116.363,13.969,211.474,19.238,297.433-0.455
		c46.63-10.682,87.851-28.1,126.021-53.248c41.178-27.131,78.09-62.719,112.844-108.801
		C1040.09,141.699,1168.145,32.505,1400,12.974V9.929c-36.168,3.021-70.145,8.232-102.484,15.73
		c-56.553,13.112-107.191,32.963-154.807,60.688c-80.771,47.031-151.697,115.441-237.152,228.746
		C761.16,506.546,585.996,502.112,372.015,476.425C165.448,451.095,86.508,505.451,0,601.979v4.504
		C86.764,509.127,164.767,454.034,371.653,479.403z M369,461.177c96.964,12.646,199.111,21.448,289.188,0.406
		c44.89-10.485,84.5-27.53,121.087-52.108c39.277-26.384,74.33-60.89,107.16-105.487C985.598,169.282,1093.563,45.447,1296.9,0
		h-15.166c-5.848,1.427-11.658,2.905-17.4,4.479c-55.627,15.242-105.459,37.107-152.342,66.846
		c-95.639,60.662-166.088,146.817-227.973,230.884c-138.578,188.25-315.055,182.021-514.627,155.994
		c-102.431-13.654-179.812-5.347-243.525,26.143C75.244,509.364,36.397,547.318,0,589.149v4.616
		C86.039,494.437,168.061,434.392,369,461.177z M991.697,366.642c-178.313,218.39-377.989,201.84-609.19,182.679
		c-122.691-10.313-194.985-7.293-249.526,10.429C83.792,575.731,48.154,603.593,0,651.318v4.198
		c92.499-92.521,144.04-123.231,382.257-103.206c127.419,10.562,232.654,16.975,330.397-3.948
		c111.234-23.812,200.641-80.951,281.367-179.822C1120.6,213.512,1240.287,135.475,1400,116.34v-3.104
		c-48.379,5.677-92.613,16.597-134.436,33.18C1169.377,184.556,1084.912,252.477,991.697,366.642z"/>
	<path fill="#EF4358" d="M378.323,690.618C186.25,623.351,81.359,642.055,0,724.055V980h1400V664.137
		C1121.93,929.828,754.199,822.256,378.323,690.618z"/>
	<path fill="#070028" d="M0,0v357.851c38.838-57.367,136.577-177.468,269.449-209.424C363.932,125.703,429.359,83.055,471.359,0H0z"
		/>
	
		<radialGradient id="SVGID_5_" cx="953.9385" cy="315.0493" r="597.3931" gradientTransform="matrix(1 0 0 0.6258 0 117.8765)" gradientUnits="userSpaceOnUse">
		<stop  offset="0" style="stop-color:#FFFCDD"/>
		<stop  offset="0.0598" style="stop-color:#CDC6BE"/>
		<stop  offset="0.1523" style="stop-color:#9A909D"/>
		<stop  offset="0.25" style="stop-color:#756983"/>
		<stop  offset="0.3512" style="stop-color:#5A4F70"/>
		<stop  offset="0.4567" style="stop-color:#463B62"/>
		<stop  offset="0.568" style="stop-color:#382B59"/>
		<stop  offset="0.6877" style="stop-color:#2E2152"/>
		<stop  offset="0.8218" style="stop-color:#281A4E"/>
		<stop  offset="1" style="stop-color:#26184D"/>
	</radialGradient>
	<path opacity="0.4" fill="url(#SVGID_5_)" d="M907.902,189.995c157.029,4.665,302.457,82.06,326.457,194.06
		c13.568,63.313,76.5,72.5,165.641,60.219V0H689.713C727.248,113.025,781.678,186.245,907.902,189.995z"/>
	<path opacity="0.4" fill="#FFFCDD" d="M679.359,774.555C354.847,445.573,113.34,496.789,0,535.048V978.5h1033.843
		C971.359,869.555,813.512,910.555,679.359,774.555z"/>
	<path opacity="0.4" fill="#FFFCDD" d="M269.13,780.197C149.368,729.529,78.191,724.584,0,800.589V978.5h515.197
		C496.216,927.572,413.724,841.372,269.13,780.197z"/>
	<path opacity="0.2" fill="#FFFCDD" d="M993.43,852.18c-30.664,14.25-60.402,33.33-88.387,56.712
		c-34.701,28.991-58.127,57.564-68.4,71.108h3.773c10.811-14.043,33.559-41.255,66.623-68.867
		c43.633-36.44,114.656-81.025,205.209-86.487c43.236-2.607,83.998-9.809,121.158-21.403
		c35.908-11.205,69.605-26.875,100.158-46.575c23.756-15.318,45.838-33.063,66.436-53.431v-4.491
		c-75.197,75.368-170.311,115.813-287.932,122.906C1071.699,824.086,1031.783,834.357,993.43,852.18z M1102.305,812.53
		c-39.357,2.886-78.576,13.871-116.564,32.651c-30.367,15.013-60.02,35.012-88.135,59.441
		c-35.904,31.198-60.178,61.845-70.176,75.377h3.738c10.627-14.188,34.219-43.418,68.471-73.169
		c43.846-38.084,114.635-84.839,202.885-91.309c120.955-8.866,220.568-57.693,297.477-145.525v-4.603
		C1323.291,754.264,1223.598,803.64,1102.305,812.53z M1001.121,859.178c-30.961,13.486-60.785,31.648-88.641,53.981
		C879.002,940,856.396,966.557,845.895,980h3.816c10.953-13.803,32.881-39.046,64.727-64.564
		c43.424-34.798,114.68-77.214,207.537-81.666c86.857-4.164,159.17-23.554,221.074-59.276c20.012-11.55,38.949-24.86,56.951-40.041
		v-4.34c-73.697,62.719-164.426,95.207-278.17,100.661C1080.451,832.758,1039.838,842.314,1001.121,859.178z M1024.195,880.178
		c-31.852,11.193-61.926,26.597-89.393,45.782c-29.689,20.739-49.916,41.524-60.805,54.04h3.984
		c11.098-12.501,30.561-32.037,58.539-51.58c42.813-29.906,114.805-65.855,214.635-67.282
		c88.139-1.259,160.191-12.107,220.277-33.166c10.041-3.52,19.533-7.24,28.566-11.117v-3.481
		c-58.488,25.333-134.213,43.127-248.887,44.765C1106.701,858.772,1064,866.188,1024.195,880.178z M1008.813,866.177
		c-31.258,12.723-61.166,29.965-88.893,51.25c-32.234,24.745-54.045,49.339-64.725,62.573h3.865
		c11.053-13.466,32.178-36.787,62.775-60.262c43.215-33.156,114.705-73.401,209.865-76.846
		c87.555-3.168,159.785-19.711,220.82-50.573c16.543-8.365,32.297-17.779,47.479-28.406v-3.438
		c-60.104,42.396-143.082,74.885-268.408,79.42C1089.201,841.429,1047.893,850.271,1008.813,866.177z M1016.502,873.177
		c-31.553,11.958-61.545,28.281-89.141,48.517c-30.975,22.712-51.996,45.384-62.803,58.307h3.92
		c11.088-13.019,31.367-34.41,60.656-55.887c43.021-31.546,114.773-69.662,212.293-72.098
		c88.039-2.199,160.184-15.895,220.557-41.869c13.568-5.838,26.215-12.177,38.016-18.821v-3.382
		c-62.801,35.808-141.912,58.157-258.646,61.072C1097.951,850.101,1055.945,858.229,1016.502,873.177z M1092.541,803.41
		c-38.346,3.336-76.867,15.036-114.49,34.775c-30.07,15.775-59.637,36.692-87.881,62.17c-37.135,33.497-62.268,66.27-71.91,79.645
		h3.707c10.381-14.212,34.822-45.503,70.271-77.471c44.057-39.728,114.613-88.653,200.563-96.131
		c82.982-7.219,157.6-35.944,221.773-85.378c31.236-24.063,59.766-52.858,85.426-86.143v-4.794
		C1321.848,733.224,1217.346,792.553,1092.541,803.41z M1082.775,794.29c-37.334,3.787-75.154,16.202-112.414,36.899
		c-29.77,16.538-59.252,38.372-87.625,64.896c-38.379,35.878-64.406,70.851-73.617,83.914h3.678
		c10.074-14.113,35.395-47.522,72.043-81.772c44.266-41.371,114.592-92.468,198.238-100.953
		c82.002-8.318,156.689-39.97,221.992-94.075c35.299-29.248,67.018-64.387,94.93-105.096v-5.269
		C1320.527,710.923,1210.967,781.286,1082.775,794.29z M1043.701,757.813c-33.277,5.594-68.299,20.868-104.09,45.397
		c-28.576,19.586-57.713,45.087-86.602,75.796c-44.07,46.848-74.217,91.824-80.215,100.994h3.592
		c7.912-11.95,37.084-54.586,78.807-98.938c45.125-47.967,114.543-107.773,189.006-120.29
		c75.785-12.739,154.912-58.494,222.807-128.835c52.26-54.144,97.289-121.951,132.994-199.662v-6.823
		C1303.434,640.693,1153.594,739.341,1043.701,757.813z M1255.277,612.09c-68.539,74.187-147.15,122.701-221.348,136.605
		c-32.262,6.047-66.58,22.035-102.004,47.521c-28.277,20.347-57.328,46.764-86.346,78.519
		c-46.078,50.425-77.555,98.63-81.82,105.265h3.576c6.98-10.71,37.297-56.013,80.492-103.277
		c45.328-49.597,114.504-111.557,186.654-125.078c74.828-14.023,154.023-62.861,223-137.52
		c57.012-61.709,105.357-139.206,142.518-227.79v-7.862C1362.621,469.525,1313.486,549.087,1255.277,612.09z M1053.473,766.932
		c-34.293,5.142-70.016,19.701-106.174,43.272c-28.875,18.824-58.1,43.409-86.859,73.072
		c-42.451,43.786-71.447,85.985-78.594,96.724h3.611c8.648-12.846,36.803-53.041,77.178-94.677
		c44.902-46.305,114.537-103.918,191.283-115.425c77.869-11.676,154.846-53.223,222.609-120.148
		c47.678-47.091,89.41-105.886,123.473-173.413v-6.176C1305.119,662.746,1164.527,750.28,1053.473,766.932z M1063.24,776.05
		c-35.307,4.69-71.729,18.535-108.256,41.148c-29.174,18.063-58.482,41.731-87.113,70.349
		c-41.004,40.984-68.951,80.638-76.955,92.453h3.629c9.227-13.457,36.391-51.303,75.49-90.376
		c44.691-44.659,114.555-100.1,193.6-110.6c78.865-10.477,155.773-49.019,222.41-111.461
		c34.695-32.511,66.354-71.269,94.096-115.197c6.859-10.864,13.479-22.064,19.859-33.561v-6.22
		C1318.453,662.233,1197.908,758.161,1063.24,776.05z M1073.01,785.169c-36.32,4.239-73.443,17.369-110.336,39.024
		c-29.473,17.301-58.869,40.053-87.371,67.624c-39.664,38.368-66.625,75.627-75.297,88.183h3.652
		c9.695-13.871,35.92-49.46,73.779-86.074c44.479-43.015,114.574-96.283,195.92-105.776
		c79.857-9.319,156.693-44.855,222.201-102.769c33.643-29.741,64.455-65.406,91.582-106.005c4.383-6.56,8.662-13.271,12.859-20.098
		v-5.613C1319.383,687.288,1204.482,769.828,1073.01,785.169z"/>
	<path fill="#EF4358" d="M794.07,0c-5.211,99.055,89.424,134.752,149.789,118.055c70.498-19.5,137.08-44.493,218.764-13.523
		c89.736,34.023,182.152-14.79,202.391-104.532H794.07z"/>
	<radialGradient id="SVGID_6_" cx="346.3545" cy="304.1553" r="464.5073" gradientUnits="userSpaceOnUse">
		<stop  offset="0" style="stop-color:#FFFCDD"/>
		<stop  offset="0.0598" style="stop-color:#CDC6BE"/>
		<stop  offset="0.1523" style="stop-color:#9A909D"/>
		<stop  offset="0.25" style="stop-color:#756983"/>
		<stop  offset="0.3512" style="stop-color:#5A4F70"/>
		<stop  offset="0.4567" style="stop-color:#463B62"/>
		<stop  offset="0.568" style="stop-color:#382B59"/>
		<stop  offset="0.6877" style="stop-color:#2E2152"/>
		<stop  offset="0.8218" style="stop-color:#281A4E"/>
		<stop  offset="1" style="stop-color:#26184D"/>
	</radialGradient>
	<path opacity="0.4" fill="url(#SVGID_6_)" d="M0,0v455.214c98.785-61.699,232.694-150.35,266.971-274.438
		C289.625,98.771,296.359,34.055,371.966,0H0z"/>
	<path fill="#EF4358" d="M0,0v279.38c83.692-49.659,51.692-155.801,174.383-183.321C235.75,82.294,267.195,39.475,279.446,0H0z"/>
	<path opacity="0.4" fill="#FFFCDD" d="M1227.359,182.387c47.484,35.097,123.334,54,172.641,27.192V0h-257.938
		C1141.215,61.075,1155.604,129.35,1227.359,182.387z"/>
</g>
</svg>
