<?xml version="1.0" encoding="utf-8"?>
<!-- Generator: Adobe Illustrator 22.1.0, SVG Export Plug-In . SVG Version: 6.00 Build 0)  -->
<svg version="1.1" id="Layer_1" xmlns="http://www.w3.org/2000/svg" xmlns:xlink="http://www.w3.org/1999/xlink" x="0px" y="0px"
	 viewBox="0 0 473.7 473.7" style="enable-background:new 0 0 473.7 473.7;" xml:space="preserve">
<style type="text/css">
	.st0{fill:#1FA85B;}
	.st1{fill:#FFFFFF;}
</style>
<circle class="st0" cx="236.8" cy="236.8" r="236.8"/>
<path class="st1" d="M139.3,196.3c27.8,22.5,55.6,45,83.5,67.5c0,16,0,32,0,47.9c-9.4,0-18.9,0-28.3,0c-5.1,0-9.1,6-6.1,10.6
	c14.2,21.9,28.4,43.8,42.6,65.7c0.1,0.2,0.3,0.4,0.4,0.6c0,0,0,0,0,0.1c0,0,0,0,0,0c0.2,0.2,0.3,0.4,0.5,0.6
	c1.5,1.9,3.6,2.7,5.6,2.5c2,0,4-0.7,5.5-2.6c0.1-0.1,0.2-0.3,0.3-0.4c0.1-0.1,0.1-0.2,0.2-0.2c0.1-0.1,0.2-0.3,0.3-0.4
	c0-0.1,0.1-0.1,0.1-0.2c14.2-22,28.4-43.9,42.7-65.9c2.9-4.5-0.9-10.5-6-10.5c-9.9,0-19.8,0-29.7,0c0-16,0-32,0-48.1
	c27.8-22.5,55.6-45,83.4-67.5c11.4-9.2,9.5-19.6,9.4-33.4c-0.1-18.3-0.2-36.7-0.2-55c-0.1-18.1-28.1-18.3-28.1-0.2
	c0.1,22.6,0.2,45.2,0.3,67.8c-26.3,21.3-52.6,42.6-78.9,63.8c-26.3-21.3-52.6-42.6-79-63.8c0.1-22.5,0.2-45,0.3-67.5
	c0.1-18.1-28-18.3-28.1-0.2c-0.1,18.3-0.2,36.7-0.2,55C129.7,176.5,127.8,187,139.3,196.3z"/>
</svg>
