<?xml version="1.0" encoding="iso-8859-1"?>
<!-- Generator: Adobe Illustrator 19.0.0, SVG Export Plug-In . SVG Version: 6.00 Build 0)  -->
<svg version="1.1" id="Layer_1" xmlns="http://www.w3.org/2000/svg" xmlns:xlink="http://www.w3.org/1999/xlink" x="0px" y="0px"
	 viewBox="0 0 473.654 473.654" style="enable-background:new 0 0 473.654 473.654;" xml:space="preserve">
<circle style="fill:#1FA85B;" cx="236.827" cy="236.827" r="236.827"/>
<path style="fill:#FFFFFF;" d="M334.37,277.327c-27.822-22.497-55.649-44.987-83.471-67.484c0-15.975,0-31.958,0-47.934
	c9.439,0,18.881,0,28.32,0c5.149,0,9.061-5.991,6.099-10.561c-14.192-21.903-28.383-43.805-42.575-65.704
	c-0.12-0.224-0.266-0.43-0.411-0.639c-0.011-0.019-0.022-0.037-0.037-0.056c-0.011-0.015-0.022-0.026-0.034-0.045
	c-0.157-0.217-0.314-0.423-0.497-0.621c-1.537-1.9-3.586-2.655-5.609-2.55c-1.978-0.049-3.968,0.748-5.464,2.61
	c-0.116,0.127-0.217,0.266-0.322,0.404c-0.064,0.086-0.135,0.15-0.194,0.239c-0.082,0.131-0.168,0.258-0.251,0.389
	c-0.034,0.056-0.075,0.101-0.105,0.157c-14.218,21.951-28.436,43.899-42.657,65.85c-2.894,4.473,0.939,10.519,6.021,10.519
	c9.887,0,19.775,0,29.662,0c0,16.024,0,32.048,0,48.072c-27.811,22.486-55.619,44.965-83.43,67.451
	c-11.391,9.207-9.487,19.637-9.427,33.413c0.079,18.324,0.157,36.652,0.236,54.972c0.079,18.107,28.129,18.275,28.054,0.206
	c-0.097-22.583-0.194-45.17-0.292-67.754c26.315-21.274,52.631-42.553,78.942-63.823c26.327,21.282,52.649,42.564,78.972,63.842
	c-0.093,22.512-0.191,45.021-0.288,67.533c-0.079,18.118,27.976,18.268,28.054,0.206c0.079-18.324,0.157-36.652,0.236-54.975
	C343.962,297.173,345.851,286.605,334.37,277.327z"/>
<g>
</g>
<g>
</g>
<g>
</g>
<g>
</g>
<g>
</g>
<g>
</g>
<g>
</g>
<g>
</g>
<g>
</g>
<g>
</g>
<g>
</g>
<g>
</g>
<g>
</g>
<g>
</g>
<g>
</g>
</svg>
