<svg xmlns="http://www.w3.org/2000/svg" xmlns:xlink="http://www.w3.org/1999/xlink" viewBox="0 0 2185.38 1440"><defs><style>.cls-1{fill:url(#linear-gradient)}.cls-2{fill:#bdd0fb}.cls-3{fill:#dce5fe}.cls-4{fill:#91b3fa}.cls-5{fill:url(#linear-gradient-2)}.cls-6{fill:url(#linear-gradient-3)}.cls-7{fill:url(#linear-gradient-4)}.cls-8{fill:url(#linear-gradient-5)}.cls-9{fill:url(#linear-gradient-6)}.cls-10{fill:url(#linear-gradient-7)}.cls-11{fill:#fff}.cls-12{fill:url(#linear-gradient-8)}.cls-13{fill:url(#linear-gradient-9)}.cls-14{fill:url(#linear-gradient-10)}.cls-15{fill:url(#linear-gradient-11)}.cls-16{fill:#7d97f4}.cls-17{fill:url(#linear-gradient-12)}.cls-18{fill:url(#linear-gradient-13)}.cls-19{fill:url(#linear-gradient-14)}.cls-20{fill:url(#linear-gradient-15)}.cls-21{fill:url(#linear-gradient-16)}.cls-22{fill:url(#linear-gradient-17)}.cls-23{fill:url(#linear-gradient-18)}.cls-24{fill:url(#linear-gradient-19)}.cls-25{fill:url(#linear-gradient-20)}.cls-26{fill:url(#linear-gradient-21)}.cls-27{fill:url(#linear-gradient-22)}.cls-28{fill:url(#linear-gradient-23)}.cls-29{fill:url(#linear-gradient-24)}.cls-30{fill:url(#linear-gradient-25)}.cls-31{fill:url(#linear-gradient-26)}.cls-32{fill:url(#linear-gradient-27)}.cls-33{fill:url(#linear-gradient-28)}.cls-34{fill:url(#linear-gradient-29)}.cls-35{fill:url(#linear-gradient-30)}.cls-36{fill:url(#linear-gradient-31)}.cls-37{fill:url(#linear-gradient-32)}.cls-38{fill:url(#linear-gradient-33)}.cls-39{fill:url(#linear-gradient-34)}.cls-40{fill:url(#linear-gradient-35)}.cls-41{fill:url(#linear-gradient-36)}.cls-42{fill:url(#linear-gradient-37)}.cls-43{fill:url(#linear-gradient-38)}.cls-44{fill:url(#linear-gradient-39)}.cls-45{fill:url(#linear-gradient-40)}.cls-46{fill:url(#linear-gradient-41)}.cls-47{fill:url(#linear-gradient-42)}.cls-48{fill:url(#linear-gradient-43)}.cls-49{fill:url(#linear-gradient-44)}.cls-50{fill:url(#linear-gradient-45)}.cls-51{fill:url(#linear-gradient-46)}.cls-52{fill:url(#linear-gradient-47)}.cls-53{fill:url(#linear-gradient-48)}.cls-54{fill:url(#linear-gradient-49)}.cls-55{fill:url(#linear-gradient-50)}.cls-56{fill:url(#linear-gradient-51)}.cls-57{fill:url(#linear-gradient-52)}.cls-58{fill:url(#linear-gradient-53)}.cls-59{fill:url(#linear-gradient-54)}.cls-60{fill:url(#linear-gradient-55)}.cls-61{fill:url(#linear-gradient-56)}.cls-62{fill:url(#linear-gradient-57)}.cls-63{fill:url(#linear-gradient-58)}.cls-64{fill:url(#linear-gradient-59)}.cls-65{fill:url(#linear-gradient-60)}.cls-66{fill:url(#linear-gradient-61)}.cls-67{fill:url(#linear-gradient-62)}.cls-68{fill:url(#linear-gradient-63)}.cls-69{fill:url(#linear-gradient-64)}.cls-70{fill:url(#linear-gradient-65)}.cls-71{fill:url(#linear-gradient-66)}.cls-72{fill:url(#linear-gradient-67)}.cls-73{fill:url(#linear-gradient-68)}.cls-74{fill:url(#linear-gradient-69)}.cls-75{fill:url(#linear-gradient-70)}.cls-76{fill:url(#linear-gradient-71)}.cls-77{fill:url(#linear-gradient-72)}.cls-78{fill:url(#linear-gradient-73)}.cls-79{fill:url(#linear-gradient-74)}.cls-80{fill:url(#linear-gradient-75)}.cls-81{fill:url(#linear-gradient-76)}.cls-82{fill:url(#linear-gradient-77)}.cls-83{fill:url(#linear-gradient-78)}.cls-84{fill:url(#linear-gradient-79)}.cls-85{fill:url(#linear-gradient-80)}.cls-86{fill:url(#linear-gradient-81)}.cls-87{fill:url(#linear-gradient-82)}.cls-88{fill:url(#linear-gradient-83)}.cls-89{fill:url(#linear-gradient-84)}.cls-90{fill:url(#linear-gradient-85)}.cls-91{fill:url(#linear-gradient-86)}.cls-92{fill:url(#linear-gradient-87)}.cls-93{fill:url(#linear-gradient-88)}.cls-94{fill:url(#linear-gradient-89)}.cls-95{fill:url(#linear-gradient-90)}.cls-96{fill:url(#linear-gradient-91)}.cls-97{fill:url(#linear-gradient-92)}.cls-98{fill:url(#linear-gradient-93)}.cls-99{fill:url(#linear-gradient-94)}.cls-100{fill:url(#linear-gradient-95)}.cls-101{fill:url(#linear-gradient-96)}.cls-102{fill:url(#linear-gradient-97)}.cls-103{fill:url(#linear-gradient-98)}.cls-104{fill:url(#linear-gradient-99)}.cls-105{fill:url(#linear-gradient-100)}.cls-106{fill:url(#linear-gradient-101)}.cls-107{fill:url(#linear-gradient-102)}.cls-108{fill:url(#linear-gradient-103)}.cls-109{fill:url(#linear-gradient-104)}.cls-110{fill:url(#linear-gradient-105)}.cls-111{fill:url(#linear-gradient-106)}.cls-112{fill:url(#linear-gradient-107)}.cls-113{fill:url(#linear-gradient-108)}.cls-114{fill:url(#linear-gradient-109)}.cls-115{fill:url(#linear-gradient-110)}.cls-116{fill:url(#linear-gradient-111)}.cls-117{fill:url(#linear-gradient-112)}.cls-118{fill:url(#linear-gradient-113)}.cls-119{fill:url(#linear-gradient-114)}.cls-120{fill:url(#linear-gradient-115)}.cls-121{fill:url(#linear-gradient-116)}.cls-122{fill:url(#linear-gradient-117)}.cls-123{fill:url(#linear-gradient-118)}.cls-124{fill:url(#linear-gradient-119)}.cls-125{fill:url(#linear-gradient-120)}.cls-126{fill:url(#linear-gradient-121)}.cls-127{fill:url(#linear-gradient-122)}.cls-128{fill:url(#linear-gradient-123)}.cls-129{fill:url(#linear-gradient-124)}.cls-130{fill:url(#linear-gradient-125)}.cls-131{fill:url(#linear-gradient-126)}.cls-132{fill:url(#linear-gradient-127)}.cls-133{fill:url(#linear-gradient-128)}.cls-134{fill:url(#linear-gradient-129)}.cls-135{fill:url(#linear-gradient-130)}.cls-136{fill:url(#linear-gradient-131)}.cls-137{fill:url(#linear-gradient-132)}.cls-138{fill:url(#linear-gradient-133)}.cls-139{fill:url(#linear-gradient-134)}.cls-140{fill:url(#linear-gradient-135)}.cls-141{fill:url(#linear-gradient-136)}.cls-142{fill:url(#linear-gradient-137)}.cls-143{fill:url(#linear-gradient-138)}.cls-144{fill:url(#linear-gradient-139)}.cls-145{fill:url(#linear-gradient-140)}.cls-146{fill:url(#linear-gradient-141)}.cls-147{fill:url(#linear-gradient-142)}.cls-148{fill:url(#linear-gradient-143)}.cls-149{fill:url(#linear-gradient-144)}.cls-150{fill:url(#linear-gradient-145)}.cls-151{fill:url(#linear-gradient-146)}.cls-152{fill:url(#linear-gradient-147)}.cls-153{fill:url(#linear-gradient-148)}.cls-154{fill:url(#linear-gradient-149)}.cls-155{fill:url(#linear-gradient-150)}.cls-156{fill:url(#linear-gradient-151)}.cls-157{fill:url(#linear-gradient-152)}.cls-158{fill:url(#linear-gradient-153)}.cls-159{fill:url(#linear-gradient-154)}.cls-160{fill:url(#linear-gradient-155)}.cls-161{fill:url(#linear-gradient-156)}.cls-162{fill:url(#linear-gradient-157)}.cls-163{fill:url(#linear-gradient-158)}.cls-164{fill:url(#linear-gradient-159)}.cls-165{fill:url(#linear-gradient-160)}.cls-166{fill:url(#linear-gradient-161)}.cls-167{fill:url(#linear-gradient-162)}.cls-168{fill:url(#linear-gradient-163)}.cls-169{fill:url(#linear-gradient-164)}.cls-170{fill:url(#linear-gradient-165)}.cls-171{fill:url(#linear-gradient-166)}.cls-172{fill:url(#linear-gradient-167)}.cls-173{fill:url(#linear-gradient-168)}.cls-174{fill:url(#linear-gradient-169)}.cls-175{fill:url(#linear-gradient-170)}.cls-176{fill:url(#linear-gradient-171)}.cls-177{fill:url(#linear-gradient-172)}.cls-178{fill:url(#linear-gradient-173)}.cls-179{fill:url(#linear-gradient-174)}.cls-180{fill:url(#linear-gradient-175)}.cls-181{fill:url(#linear-gradient-176)}.cls-182{fill:url(#linear-gradient-177)}.cls-183{fill:url(#linear-gradient-178)}.cls-184{fill:url(#linear-gradient-179)}.cls-185{fill:url(#linear-gradient-180)}</style><linearGradient id="linear-gradient" x1="144.81" x2="2275.15" y1="791.72" y2="791.72" gradientUnits="userSpaceOnUse"><stop offset="0" stop-color="#dae3fe"/><stop offset="1" stop-color="#e9effd"/></linearGradient><linearGradient id="linear-gradient-2" x1="1243.4" x2="1255.79" y1="-478.36" y2="614.8" gradientTransform="translate(1044.63 -610.83) rotate(45)" gradientUnits="userSpaceOnUse"><stop offset="0" stop-color="#fe7062"/><stop offset="1" stop-color="#ff928e"/></linearGradient><linearGradient id="linear-gradient-3" x1="1253.47" x2="1265.86" y1="410.12" y2="1503.28" xlink:href="#linear-gradient-2"/><linearGradient id="linear-gradient-4" x1="745.77" x2="1773.52" y1="955.57" y2="955.57" xlink:href="#linear-gradient"/><linearGradient id="linear-gradient-5" x1="1250.28" x2="1262.66" y1="128.46" y2="1221.62" xlink:href="#linear-gradient-2"/><linearGradient id="linear-gradient-6" x1="942.17" x2="1577.13" y1="955.57" y2="955.57" xlink:href="#linear-gradient"/><linearGradient id="linear-gradient-7" x1="1054.99" x2="1392" y1="1197.6" y2="799.04" gradientTransform="translate(1044.63 -610.83) rotate(45)" gradientUnits="userSpaceOnUse"><stop offset="0" stop-color="#e1473d"/><stop offset="1" stop-color="#e9605a"/></linearGradient><linearGradient id="linear-gradient-8" x1="2049.65" x2="1397.09" y1="431.66" y2="912.3" gradientTransform="translate(3253.33 -481.64) rotate(122.78)" gradientUnits="userSpaceOnUse"><stop offset="0" stop-color="#09005d"/><stop offset="1" stop-color="#1a0f91"/></linearGradient><linearGradient id="linear-gradient-9" x1="2035.15" x2="1382.58" y1="411.97" y2="892.6" gradientTransform="matrix(1, 0, 0, 1, 0, 0)" xlink:href="#linear-gradient-8"/><linearGradient id="linear-gradient-10" x1="-556.68" x2="-631.54" y1="3581.46" y2="4384.5" gradientTransform="translate(-1290.18 1989.4) rotate(-122.78)" xlink:href="#linear-gradient-2"/><linearGradient id="linear-gradient-11" x1="-58.2" x2="-133.06" y1="3581.54" y2="4384.58" gradientTransform="matrix(0.54, 0.84, 0.84, -0.54, -995.86, 2446.64)" xlink:href="#linear-gradient-2"/><linearGradient id="linear-gradient-12" x1="679.77" x2="674.32" y1="1289.28" y2="1329.46" gradientUnits="userSpaceOnUse"><stop offset="0" stop-color="#020039"/><stop offset="1" stop-color="#090056"/></linearGradient><linearGradient id="linear-gradient-13" x1="677.54" x2="677.54" y1="1161.01" y2="1239.04" gradientTransform="matrix(1, 0, 0, 1, 0, 0)" xlink:href="#linear-gradient-8"/><linearGradient id="linear-gradient-14" x1="655.8" x2="671.98" y1="1296.84" y2="1296.84" gradientUnits="userSpaceOnUse"><stop offset="0" stop-color="#ff928e"/><stop offset="1" stop-color="#feb3b1"/></linearGradient><linearGradient id="linear-gradient-15" x1="728.43" x2="728.43" y1="1161.02" y2="1239.04" gradientTransform="matrix(1, 0, 0, 1, 0, 0)" xlink:href="#linear-gradient-8"/><linearGradient id="linear-gradient-16" x1="712.65" x2="754.79" y1="1232.08" y2="1232.08" xlink:href="#linear-gradient-12"/><linearGradient id="linear-gradient-17" x1="723.41" x2="746.13" y1="1206.83" y2="1206.83" xlink:href="#linear-gradient-14"/><linearGradient id="linear-gradient-18" x1="772.42" x2="606.6" y1="1103.42" y2="1250.52" gradientTransform="matrix(1, 0, 0, 1, 0, 0)" xlink:href="#linear-gradient-8"/><linearGradient id="linear-gradient-19" x1="674.26" x2="704.67" y1="1182.42" y2="1117.5" gradientUnits="userSpaceOnUse"><stop offset="0" stop-color="#4042e2"/><stop offset="1" stop-color="#4f52ff"/></linearGradient><linearGradient id="linear-gradient-20" x1="806.82" x2="840.01" y1="1084.24" y2="1084.24" xlink:href="#linear-gradient-14"/><linearGradient id="linear-gradient-21" x1="880" x2="727.45" y1="1160.47" y2="942.55" gradientTransform="matrix(1, 0, 0, 1, 0, 0)" xlink:href="#linear-gradient-8"/><linearGradient id="linear-gradient-22" x1="776.31" x2="746.56" y1="907.92" y2="955.71" xlink:href="#linear-gradient-14"/><linearGradient id="linear-gradient-23" x1="799.64" x2="765.99" y1="865.46" y2="911.79" xlink:href="#linear-gradient-14"/><linearGradient id="linear-gradient-24" x1="751.86" x2="796.55" y1="862.7" y2="920.24" gradientTransform="matrix(1, 0, 0, 1, 0, 0)" xlink:href="#linear-gradient-8"/><linearGradient id="linear-gradient-25" x1="788.99" x2="755.34" y1="857.72" y2="904.05" xlink:href="#linear-gradient-14"/><linearGradient id="linear-gradient-26" x1="494.38" x2="693.36" y1="1133.02" y2="1042.31" gradientTransform="matrix(1, 0, 0, 1, 0, 0)" xlink:href="#linear-gradient-8"/><linearGradient id="linear-gradient-27" x1="868.18" x2="914.65" y1="1027.55" y2="1104.13" xlink:href="#linear-gradient-14"/><linearGradient id="linear-gradient-28" x1="-2116.83" x2="-2082.53" y1="972.33" y2="1058.36" gradientTransform="translate(3904.52)" xlink:href="#linear-gradient-8"/><linearGradient id="linear-gradient-29" x1="-1061.97" x2="-968.99" y1="2746.9" y2="2901.66" gradientTransform="translate(4015.75 306.54) rotate(-2.09)" xlink:href="#linear-gradient-14"/><linearGradient id="linear-gradient-30" x1="-1991.46" x2="-1962.38" y1="1523.09" y2="1523.09" gradientTransform="translate(3904.52)" xlink:href="#linear-gradient-19"/><linearGradient id="linear-gradient-31" x1="-2114.34" x2="-2072.49" y1="1637.77" y2="1148.65" gradientTransform="translate(3904.52)" xlink:href="#linear-gradient-14"/><linearGradient id="linear-gradient-32" x1="-2126.57" x2="-2079.51" y1="1517.78" y2="1517.78" gradientTransform="translate(3904.52)" xlink:href="#linear-gradient-19"/><linearGradient id="linear-gradient-33" x1="-2030.16" x2="-1988.3" y1="1645.05" y2="1155.8" gradientTransform="translate(3904.52)" xlink:href="#linear-gradient-14"/><linearGradient id="linear-gradient-34" x1="-2113.31" x2="-2092.38" y1="1144.53" y2="1338.67" gradientTransform="translate(3904.52)" xlink:href="#linear-gradient-19"/><linearGradient id="linear-gradient-35" x1="-1998.04" x2="-2102.67" y1="1154.06" y2="1321.46" gradientTransform="translate(3904.52)" xlink:href="#linear-gradient-8"/><linearGradient id="linear-gradient-36" x1="1792.32" x2="1811.83" y1="1074.3" y2="1177.04" xlink:href="#linear-gradient-14"/><linearGradient id="linear-gradient-37" x1="-2086.53" x2="-2034.31" y1="1183.67" y2="1183.67" gradientTransform="translate(3904.52)" xlink:href="#linear-gradient-14"/><linearGradient id="linear-gradient-38" x1="1755.95" x2="1795.62" y1="1044.52" y2="1038.67" xlink:href="#linear-gradient-14"/><linearGradient id="linear-gradient-39" x1="-2295.17" x2="-2260.87" y1="787.33" y2="873.36" gradientTransform="translate(3863.75 -238.99) rotate(-11.2)" xlink:href="#linear-gradient-8"/><linearGradient id="linear-gradient-40" x1="1756.8" x2="1796.46" y1="1050.27" y2="1044.42" xlink:href="#linear-gradient-14"/><linearGradient id="linear-gradient-41" x1="-1060.58" x2="-967.59" y1="2746.07" y2="2900.83" gradientTransform="translate(4015.75 306.54) rotate(-2.09)" xlink:href="#linear-gradient-14"/><linearGradient id="linear-gradient-42" x1="1302.48" x2="1261.05" y1="-505.67" y2="-420.3" gradientTransform="translate(-46.67 443.23) rotate(9.25)" gradientUnits="userSpaceOnUse"><stop offset="0" stop-color="#2b3582"/><stop offset="1" stop-color="#150e42"/></linearGradient><linearGradient id="linear-gradient-43" x1="1260.86" x2="1260.86" y1="298.16" y2="482.08" gradientTransform="matrix(1, 0, 0, 1, 0, 0)" xlink:href="#linear-gradient-8"/><linearGradient id="linear-gradient-44" x1="1254.56" x2="1216.03" y1="304.3" y2="371.6" xlink:href="#linear-gradient-14"/><linearGradient id="linear-gradient-45" x1="1352.96" x2="1293.95" y1="342.99" y2="397.61" xlink:href="#linear-gradient-14"/><linearGradient id="linear-gradient-46" x1="1115.57" x2="1111.05" y1="243.9" y2="427.11" xlink:href="#linear-gradient-19"/><linearGradient id="linear-gradient-47" x1="1314.51" x2="1362.25" y1="427.68" y2="427.68" gradientTransform="translate(1.59 21.57) rotate(0.44)" xlink:href="#linear-gradient-42"/><linearGradient id="linear-gradient-48" x1="1368.11" x2="1326.2" y1="428.27" y2="427.77" gradientTransform="translate(1.59 21.57) rotate(0.44)" xlink:href="#linear-gradient-19"/><linearGradient id="linear-gradient-49" x1="1344.32" x2="1293.93" y1="373.31" y2="509.79" xlink:href="#linear-gradient-14"/><linearGradient id="linear-gradient-50" x1="-7276.43" x2="-7228.68" y1="377.09" y2="377.09" gradientTransform="matrix(-1, -0.02, -0.02, 1, -6070.47, -63.41)" xlink:href="#linear-gradient-42"/><linearGradient id="linear-gradient-51" x1="-7222.83" x2="-7264.61" y1="377.65" y2="377.15" gradientTransform="matrix(-1, -0.02, -0.02, 1, -6070.47, -63.41)" xlink:href="#linear-gradient-19"/><linearGradient id="linear-gradient-52" x1="1243.37" x2="1192.95" y1="332.18" y2="468.73" xlink:href="#linear-gradient-14"/><linearGradient id="linear-gradient-53" x1="1018.81" x2="1203.16" y1="635.31" y2="493.89" gradientTransform="matrix(1, 0, 0, 1, 0, 0)" xlink:href="#linear-gradient-42"/><linearGradient id="linear-gradient-54" x1="1314.51" x2="1474.47" y1="469.87" y2="538.15" gradientTransform="matrix(1, 0, 0, 1, 0, 0)" xlink:href="#linear-gradient-42"/><linearGradient id="linear-gradient-55" x1="1258.76" x2="1256.32" y1="293.35" y2="363.09" xlink:href="#linear-gradient-14"/><linearGradient id="linear-gradient-56" x1="1250.51" x2="1268.06" y1="200" y2="277.05" xlink:href="#linear-gradient-14"/><linearGradient id="linear-gradient-57" x1="1302.78" x2="1256.17" y1="-517.69" y2="-421.62" xlink:href="#linear-gradient-42"/><linearGradient id="linear-gradient-58" x1="1229.93" x2="1247.49" y1="204.68" y2="281.74" xlink:href="#linear-gradient-14"/><linearGradient id="linear-gradient-59" x1="1222.7" x2="1232.58" y1="981.18" y2="981.18" xlink:href="#linear-gradient"/><linearGradient id="linear-gradient-60" x1="1209.27" x2="1219.29" y1="995.45" y2="995.45" xlink:href="#linear-gradient"/><linearGradient id="linear-gradient-61" x1="1195.82" x2="1205.99" y1="1009.69" y2="1009.69" xlink:href="#linear-gradient"/><linearGradient id="linear-gradient-62" x1="1182.32" x2="1192.64" y1="1023.9" y2="1023.9" xlink:href="#linear-gradient"/><linearGradient id="linear-gradient-63" x1="1168.76" x2="1179.22" y1="1038.05" y2="1038.05" xlink:href="#linear-gradient"/><linearGradient id="linear-gradient-64" x1="1155.1" x2="1165.73" y1="1052.11" y2="1052.11" xlink:href="#linear-gradient"/><linearGradient id="linear-gradient-65" x1="1141.35" x2="1152.14" y1="1066.08" y2="1066.08" xlink:href="#linear-gradient"/><linearGradient id="linear-gradient-66" x1="1127.47" x2="1138.43" y1="1079.92" y2="1079.92" xlink:href="#linear-gradient"/><linearGradient id="linear-gradient-67" x1="1113.44" x2="1124.59" y1="1093.63" y2="1093.63" xlink:href="#linear-gradient"/><linearGradient id="linear-gradient-68" x1="1099.26" x2="1110.58" y1="1107.17" y2="1107.17" xlink:href="#linear-gradient"/><linearGradient id="linear-gradient-69" x1="1084.89" x2="1096.41" y1="1120.52" y2="1120.52" xlink:href="#linear-gradient"/><linearGradient id="linear-gradient-70" x1="1070.34" x2="1082.04" y1="1133.66" y2="1133.66" xlink:href="#linear-gradient"/><linearGradient id="linear-gradient-71" x1="1055.58" x2="1067.48" y1="1146.57" y2="1146.57" xlink:href="#linear-gradient"/><linearGradient id="linear-gradient-72" x1="1040.6" x2="1052.7" y1="1159.22" y2="1159.22" xlink:href="#linear-gradient"/><linearGradient id="linear-gradient-73" x1="1025.38" x2="1037.68" y1="1171.59" y2="1171.59" xlink:href="#linear-gradient"/><linearGradient id="linear-gradient-74" x1="1009.89" x2="1022.42" y1="1183.65" y2="1183.65" xlink:href="#linear-gradient"/><linearGradient id="linear-gradient-75" x1="994.15" x2="1006.89" y1="1195.37" y2="1195.37" xlink:href="#linear-gradient"/><linearGradient id="linear-gradient-76" x1="978.14" x2="991.09" y1="1206.72" y2="1206.72" xlink:href="#linear-gradient"/><linearGradient id="linear-gradient-77" x1="961.85" x2="975.02" y1="1217.67" y2="1217.67" xlink:href="#linear-gradient"/><linearGradient id="linear-gradient-78" x1="945.29" x2="958.67" y1="1228.2" y2="1228.2" xlink:href="#linear-gradient"/><linearGradient id="linear-gradient-79" x1="928.47" x2="942.05" y1="1238.28" y2="1238.28" xlink:href="#linear-gradient"/><linearGradient id="linear-gradient-80" x1="911.37" x2="925.11" y1="1247.88" y2="1247.88" xlink:href="#linear-gradient"/><linearGradient id="linear-gradient-81" x1="894" x2="907.9" y1="1256.97" y2="1256.97" xlink:href="#linear-gradient"/><linearGradient id="linear-gradient-82" x1="876.34" x2="890.41" y1="1265.52" y2="1265.52" xlink:href="#linear-gradient"/><linearGradient id="linear-gradient-83" x1="858.42" x2="872.64" y1="1273.48" y2="1273.48" xlink:href="#linear-gradient"/><linearGradient id="linear-gradient-84" x1="840.24" x2="854.6" y1="1280.83" y2="1280.83" xlink:href="#linear-gradient"/><linearGradient id="linear-gradient-85" x1="821.82" x2="836.33" y1="1287.52" y2="1287.52" xlink:href="#linear-gradient"/><linearGradient id="linear-gradient-86" x1="803.16" x2="817.82" y1="1293.51" y2="1293.51" xlink:href="#linear-gradient"/><linearGradient id="linear-gradient-87" x1="784.28" x2="799.08" y1="1298.78" y2="1298.78" xlink:href="#linear-gradient"/><linearGradient id="linear-gradient-88" x1="765.21" x2="780.14" y1="1303.28" y2="1303.28" xlink:href="#linear-gradient"/><linearGradient id="linear-gradient-89" x1="745.96" x2="761.02" y1="1306.97" y2="1306.97" xlink:href="#linear-gradient"/><linearGradient id="linear-gradient-90" x1="726.57" x2="741.75" y1="1309.79" y2="1309.79" xlink:href="#linear-gradient"/><linearGradient id="linear-gradient-91" x1="707.08" x2="722.36" y1="1311.72" y2="1311.72" xlink:href="#linear-gradient"/><linearGradient id="linear-gradient-92" x1="687.53" x2="702.89" y1="1312.75" y2="1312.75" xlink:href="#linear-gradient"/><linearGradient id="linear-gradient-93" x1="667.95" x2="683.4" y1="1312.86" y2="1312.86" xlink:href="#linear-gradient"/><linearGradient id="linear-gradient-94" x1="648.4" x2="663.91" y1="1312.05" y2="1312.05" xlink:href="#linear-gradient"/><linearGradient id="linear-gradient-95" x1="628.92" x2="644.48" y1="1310.29" y2="1310.29" xlink:href="#linear-gradient"/><linearGradient id="linear-gradient-96" x1="609.56" x2="625.15" y1="1307.55" y2="1307.55" xlink:href="#linear-gradient"/><linearGradient id="linear-gradient-97" x1="590.38" x2="605.98" y1="1303.81" y2="1303.81" xlink:href="#linear-gradient"/><linearGradient id="linear-gradient-98" x1="571.43" x2="587.04" y1="1299.06" y2="1299.06" xlink:href="#linear-gradient"/><linearGradient id="linear-gradient-99" x1="552.79" x2="568.37" y1="1293.26" y2="1293.26" xlink:href="#linear-gradient"/><linearGradient id="linear-gradient-100" x1="534.52" x2="550.06" y1="1286.41" y2="1286.41" xlink:href="#linear-gradient"/><linearGradient id="linear-gradient-101" x1="516.69" x2="532.17" y1="1278.48" y2="1278.48" xlink:href="#linear-gradient"/><linearGradient id="linear-gradient-102" x1="499.41" x2="514.78" y1="1269.48" y2="1269.48" xlink:href="#linear-gradient"/><linearGradient id="linear-gradient-103" x1="482.76" x2="498" y1="1259.41" y2="1259.41" xlink:href="#linear-gradient"/><linearGradient id="linear-gradient-104" x1="466.81" x2="481.85" y1="1248.27" y2="1248.27" xlink:href="#linear-gradient"/><linearGradient id="linear-gradient-105" x1="451.63" x2="466.45" y1="1236.12" y2="1236.12" xlink:href="#linear-gradient"/><linearGradient id="linear-gradient-106" x1="437.25" x2="451.85" y1="1223.02" y2="1223.02" xlink:href="#linear-gradient"/><linearGradient id="linear-gradient-107" x1="423.71" x2="438.08" y1="1209.05" y2="1209.05" xlink:href="#linear-gradient"/><linearGradient id="linear-gradient-108" x1="411.05" x2="425.17" y1="1194.29" y2="1194.29" xlink:href="#linear-gradient"/><linearGradient id="linear-gradient-109" x1="399.27" x2="413.14" y1="1178.8" y2="1178.8" xlink:href="#linear-gradient"/><linearGradient id="linear-gradient-110" x1="388.38" x2="402" y1="1162.67" y2="1162.67" xlink:href="#linear-gradient"/><linearGradient id="linear-gradient-111" x1="378.4" x2="391.77" y1="1145.95" y2="1145.95" xlink:href="#linear-gradient"/><linearGradient id="linear-gradient-112" x1="369.32" x2="382.43" y1="1128.72" y2="1128.72" xlink:href="#linear-gradient"/><linearGradient id="linear-gradient-113" x1="361.14" x2="374.01" y1="1111.04" y2="1111.04" xlink:href="#linear-gradient"/><linearGradient id="linear-gradient-114" x1="353.87" x2="366.48" y1="1092.96" y2="1092.96" xlink:href="#linear-gradient"/><linearGradient id="linear-gradient-115" x1="347.5" x2="359.86" y1="1074.53" y2="1074.53" xlink:href="#linear-gradient"/><linearGradient id="linear-gradient-116" x1="342.03" x2="354.15" y1="1055.81" y2="1055.81" xlink:href="#linear-gradient"/><linearGradient id="linear-gradient-117" x1="337.46" x2="349.33" y1="1036.84" y2="1036.84" xlink:href="#linear-gradient"/><linearGradient id="linear-gradient-118" x1="333.81" x2="345.42" y1="1017.68" y2="1017.68" xlink:href="#linear-gradient"/><linearGradient id="linear-gradient-119" x1="331.06" x2="342.42" y1="998.35" y2="998.35" xlink:href="#linear-gradient"/><linearGradient id="linear-gradient-120" x1="329.23" x2="340.33" y1="978.91" y2="978.91" xlink:href="#linear-gradient"/><linearGradient id="linear-gradient-121" x1="328.32" x2="339.17" y1="959.4" y2="959.4" xlink:href="#linear-gradient"/><linearGradient id="linear-gradient-122" x1="328.25" x2="339.06" y1="939.85" y2="939.85" xlink:href="#linear-gradient"/><linearGradient id="linear-gradient-123" x1="328.93" x2="340.03" y1="920.34" y2="920.34" xlink:href="#linear-gradient"/><linearGradient id="linear-gradient-124" x1="330.46" x2="341.85" y1="900.87" y2="900.87" xlink:href="#linear-gradient"/><linearGradient id="linear-gradient-125" x1="332.82" x2="344.47" y1="881.5" y2="881.5" xlink:href="#linear-gradient"/><linearGradient id="linear-gradient-126" x1="335.97" x2="347.89" y1="862.24" y2="862.24" xlink:href="#linear-gradient"/><linearGradient id="linear-gradient-127" x1="339.9" x2="352.06" y1="843.13" y2="843.13" xlink:href="#linear-gradient"/><linearGradient id="linear-gradient-128" x1="344.56" x2="356.96" y1="824.19" y2="824.19" xlink:href="#linear-gradient"/><linearGradient id="linear-gradient-129" x1="349.93" x2="362.57" y1="805.44" y2="805.44" xlink:href="#linear-gradient"/><linearGradient id="linear-gradient-130" x1="355.98" x2="368.84" y1="786.9" y2="786.9" xlink:href="#linear-gradient"/><linearGradient id="linear-gradient-131" x1="362.67" x2="375.75" y1="768.58" y2="768.58" xlink:href="#linear-gradient"/><linearGradient id="linear-gradient-132" x1="369.99" x2="383.27" y1="750.51" y2="750.51" xlink:href="#linear-gradient"/><linearGradient id="linear-gradient-133" x1="377.9" x2="391.38" y1="732.69" y2="732.69" xlink:href="#linear-gradient"/><linearGradient id="linear-gradient-134" x1="386.36" x2="400.03" y1="715.13" y2="715.13" xlink:href="#linear-gradient"/><linearGradient id="linear-gradient-135" x1="395.36" x2="409.21" y1="697.84" y2="697.84" xlink:href="#linear-gradient"/><linearGradient id="linear-gradient-136" x1="404.88" x2="418.89" y1="680.83" y2="680.83" xlink:href="#linear-gradient"/><linearGradient id="linear-gradient-137" x1="414.91" x2="429.02" y1="664.08" y2="664.08" xlink:href="#linear-gradient"/><linearGradient id="linear-gradient-138" x1="425.41" x2="439.61" y1="647.63" y2="647.63" xlink:href="#linear-gradient"/><linearGradient id="linear-gradient-139" x1="436.35" x2="450.64" y1="631.47" y2="631.47" xlink:href="#linear-gradient"/><linearGradient id="linear-gradient-140" x1="447.72" x2="462.09" y1="615.61" y2="615.61" xlink:href="#linear-gradient"/><linearGradient id="linear-gradient-141" x1="459.49" x2="473.94" y1="600.04" y2="600.04" xlink:href="#linear-gradient"/><linearGradient id="linear-gradient-142" x1="471.66" x2="486.18" y1="584.77" y2="584.77" xlink:href="#linear-gradient"/><linearGradient id="linear-gradient-143" x1="484.2" x2="498.79" y1="569.81" y2="569.81" xlink:href="#linear-gradient"/><linearGradient id="linear-gradient-144" x1="497.1" x2="511.76" y1="555.16" y2="555.16" xlink:href="#linear-gradient"/><linearGradient id="linear-gradient-145" x1="510.36" x2="525.08" y1="540.84" y2="540.84" xlink:href="#linear-gradient"/><linearGradient id="linear-gradient-146" x1="523.97" x2="538.76" y1="526.86" y2="526.86" xlink:href="#linear-gradient"/><linearGradient id="linear-gradient-147" x1="537.94" x2="552.79" y1="513.23" y2="513.23" xlink:href="#linear-gradient"/><linearGradient id="linear-gradient-148" x1="552.26" x2="567.17" y1="499.97" y2="499.97" xlink:href="#linear-gradient"/><linearGradient id="linear-gradient-149" x1="566.92" x2="581.89" y1="487.09" y2="487.09" xlink:href="#linear-gradient"/><linearGradient id="linear-gradient-150" x1="581.92" x2="596.95" y1="474.61" y2="474.61" xlink:href="#linear-gradient"/><linearGradient id="linear-gradient-151" x1="597.25" x2="612.35" y1="462.54" y2="462.54" xlink:href="#linear-gradient"/><linearGradient id="linear-gradient-152" x1="612.92" x2="628.08" y1="450.9" y2="450.9" xlink:href="#linear-gradient"/><linearGradient id="linear-gradient-153" x1="628.91" x2="644.13" y1="439.71" y2="439.71" xlink:href="#linear-gradient"/><linearGradient id="linear-gradient-154" x1="645.23" x2="660.5" y1="428.98" y2="428.98" xlink:href="#linear-gradient"/><linearGradient id="linear-gradient-155" x1="661.85" x2="677.17" y1="418.74" y2="418.74" xlink:href="#linear-gradient"/><linearGradient id="linear-gradient-156" x1="678.79" x2="694.08" y1="409.03" y2="409.03" xlink:href="#linear-gradient"/><linearGradient id="linear-gradient-157" x1="696.03" x2="711.28" y1="399.83" y2="399.83" xlink:href="#linear-gradient"/><linearGradient id="linear-gradient-158" x1="713.56" x2="728.77" y1="391.17" y2="391.17" xlink:href="#linear-gradient"/><linearGradient id="linear-gradient-159" x1="731.36" x2="746.52" y1="383.08" y2="383.08" xlink:href="#linear-gradient"/><linearGradient id="linear-gradient-160" x1="749.41" x2="764.52" y1="375.57" y2="375.57" xlink:href="#linear-gradient"/><linearGradient id="linear-gradient-161" x1="767.71" x2="782.76" y1="368.66" y2="368.66" xlink:href="#linear-gradient"/><linearGradient id="linear-gradient-162" x1="786.23" x2="801.24" y1="362.37" y2="362.37" xlink:href="#linear-gradient"/><linearGradient id="linear-gradient-163" x1="804.98" x2="819.92" y1="356.74" y2="356.74" xlink:href="#linear-gradient"/><linearGradient id="linear-gradient-164" x1="823.92" x2="838.78" y1="351.78" y2="351.78" xlink:href="#linear-gradient"/><linearGradient id="linear-gradient-165" x1="843.02" x2="857.8" y1="347.49" y2="347.49" xlink:href="#linear-gradient"/><linearGradient id="linear-gradient-166" x1="862.26" x2="876.95" y1="343.87" y2="343.87" xlink:href="#linear-gradient"/><linearGradient id="linear-gradient-167" x1="881.63" x2="896.22" y1="340.94" y2="340.94" xlink:href="#linear-gradient"/><linearGradient id="linear-gradient-168" x1="901.09" x2="915.58" y1="338.7" y2="338.7" xlink:href="#linear-gradient"/><linearGradient id="linear-gradient-169" x1="920.62" x2="935" y1="337.16" y2="337.16" xlink:href="#linear-gradient"/><linearGradient id="linear-gradient-170" x1="940.21" x2="954.42" y1="336.34" y2="336.34" xlink:href="#linear-gradient"/><linearGradient id="linear-gradient-171" x1="959.85" x2="973.85" y1="336.2" y2="336.2" xlink:href="#linear-gradient"/><linearGradient id="linear-gradient-172" x1="979.48" x2="993.27" y1="336.83" y2="336.83" xlink:href="#linear-gradient"/><linearGradient id="linear-gradient-173" x1="999.09" x2="1012.66" y1="338.2" y2="338.2" xlink:href="#linear-gradient"/><linearGradient id="linear-gradient-174" x1="1018.63" x2="1031.96" y1="340.33" y2="340.33" xlink:href="#linear-gradient"/><linearGradient id="linear-gradient-175" x1="1038.08" x2="1051.17" y1="343.21" y2="343.21" xlink:href="#linear-gradient"/><linearGradient id="linear-gradient-176" x1="1057.39" x2="1070.22" y1="346.87" y2="346.87" xlink:href="#linear-gradient"/><linearGradient id="linear-gradient-177" x1="1076.54" x2="1089.11" y1="351.32" y2="351.32" xlink:href="#linear-gradient"/><linearGradient id="linear-gradient-178" x1="1095.49" x2="1107.77" y1="356.55" y2="356.55" xlink:href="#linear-gradient"/><linearGradient id="linear-gradient-179" x1="1114.24" x2="1126.17" y1="362.57" y2="362.57" xlink:href="#linear-gradient"/><linearGradient id="linear-gradient-180" x1="1132.72" x2="1144.29" y1="369.4" y2="369.4" xlink:href="#linear-gradient"/></defs><title>backgoal</title><g id="Illustration"><path d="M523.63,189.84C358.39,326.4,579.28,501.7,464.84,578.23S-123.53,804,353.74,1100.1s490.39,492.28,831.1,304.8,316.24-221.17,596.63-94.43S2354.9,1240,2255.26,1006,2092.19,774.9,2206,625.44s-64.15-563-455.8-243.41-636.79,81-679.79-38.53S784.78-26,523.63,189.84Z" class="cls-1" transform="translate(-144.81 -105)"/><path d="M1162.33,1355.27s-244-739.27-650-1119c-27.3-25.53-72-10.92-78.74,25.83C388.62,507.9,325.37,1247.15,1162.33,1355.27Z" class="cls-2" transform="translate(-144.81 -105)"/><path d="M1082.94,1313.1a2.06,2.06,0,0,1-2.39,3.34C999.43,1266.33,680.69,1013.25,524,467.57a1.44,1.44,0,0,1,2.71-.95C574.78,592.09,767,1053.47,1082.94,1313.1Z" class="cls-3" transform="translate(-144.81 -105)"/><path d="M1160.73,1403.33a6.81,6.81,0,0,0-5.63-10.55c-60.2.55-312.4-10.32-312.38-231,0-250.62,15.3-322.62-105.8-402.75-110.26-73-203.62-58.3-275.06-19.16-5,2.73-2.83,10.49,2.84,10.2,48.84-2.53,161.15.7,206,77.91,58.13,100,64.81,354.9,179.58,469.81,113.39,113.53,205.64,105.84,304.78,108.54a6.52,6.52,0,0,0,5.64-3Z" class="cls-4" transform="translate(-144.81 -105)"/><path d="M265.86,1276c-6.21,4.47-14.5-1.61-12.26-9,12.81-42.46,46.8-123.22,123-139.67,104.45-22.54,192.3,6,332.81,150.07,136.57,140,371.5,142.92,431.61,129.82a5.91,5.91,0,0,1,6.72,3.59h0a6,6,0,0,1-4.28,8.17c-42.48,8.16-266.31,48.41-392,16.52C619.42,1402,385.76,1189.73,265.86,1276Z" class="cls-2" transform="translate(-144.81 -105)"/><path d="M314.13,1210.05c14.85-11.61,31.73-19.93,49.35-26.14,4.38-1.63,8.89-2.88,13.37-4.22,4.53-1.13,9-2.38,13.65-3.22a204.69,204.69,0,0,1,27.82-3.68c37.46-2.25,75.16,5.58,109.45,20.39s65.55,36.09,94.06,60c7,6.11,14,12.35,20.82,18.55s13.45,12.57,20.43,18.57l10.36,9.12,10.56,8.88c7,6,14.28,11.58,21.45,17.34,14.6,11.16,29.45,22,44.91,31.9a496.39,496.39,0,0,0,47.82,27.14,382.45,382.45,0,0,0,104.14,34.06,451.68,451.68,0,0,0,54.74,5.93c18.37.91,36.79.9,55.22.43,36.87-1,73.7-4.17,110.55-6.86a.88.88,0,0,1,.15,1.76c-18.38,1.88-36.76,3.76-55.18,5.36s-36.87,3-55.37,3.88c-37,1.76-74.28,1-111-4.89a377.5,377.5,0,0,1-106.19-33.53,502.8,502.8,0,0,1-48.66-27.29c-15.72-10-30.79-20.84-45.6-32-7.26-5.77-14.67-11.38-21.73-17.39l-10.7-8.9L658,1296c-7.06-6-13.78-12.4-20.67-18.61s-13.61-12.32-20.51-18.38c-28-23.63-58.44-44.58-92-59.19a270.63,270.63,0,0,0-51.94-16.76,208.92,208.92,0,0,0-81.45-1.42c-4.51.7-8.94,1.81-13.4,2.8-4.39,1.2-8.83,2.3-13.15,3.78a189.15,189.15,0,0,0-25.43,10.18A151.14,151.14,0,0,0,316,1212.33l-.08.06a1.47,1.47,0,0,1-1.79-2.34Z" class="cls-3" transform="translate(-144.81 -105)"/><path d="M2110.71,321.26c-12.54-34-30-65.83-48.8-96.92-5.77-9.56-20.28-6.77-22.19,4.23-8,46.05-38.74,88.44-74.33,120.49-45.32,40.82-99.65,71-143,113.91-89.27,88.26-121.47,219.3-130.24,344.53s1.85,252-19.45,375.77c-10.15,59-28.16,118-63.84,166-35,47.18-89.29,82.63-147.91,84.73a2.79,2.79,0,0,0-2.67,3.25h0a2.83,2.83,0,0,0,1.81,2.16c69.42,25,149.77-15.64,190.78-77.16,41.32-62,50.8-139.59,52.54-214.06s-3-150,14.4-222.48a375.17,375.17,0,0,1,112-189.13c50.16-45.48,111.56-76.34,167.18-115S2105,532.74,2122.46,467.34C2135.29,419.39,2127.88,367.83,2110.71,321.26Z" class="cls-4" transform="translate(-144.81 -105)"/><path d="M2295.21,536.35c-44.69,47.07-108.73,76.83-171.08,99.22-81.55,29.27-168.57,52.58-233.73,109.69-68.06,59.65-103,148.77-122.35,237.18s-25.61,179.5-48.87,267c-22.13,83.18-62.6,165.66-131.36,216.62,58.51-6.25,107.77-53.81,133-107.92,26.87-57.71,32.45-122.6,41.68-185.59s23.74-128.15,64.27-177.25c79.51-96.33,227.58-98.29,329.21-170.91,52.58-37.57,90.45-92.85,116.8-151.86,18-40.2,31-82.32,42.36-124.91C2318.26,535.78,2303.62,527.49,2295.21,536.35Z" class="cls-2" transform="translate(-144.81 -105)"/><path d="M2046,326.88c-.79,3.39-1.73,6.63-2.76,9.88l-1.6,4.85-1.79,4.77q-3.6,9.53-8,18.75c-1.38,3.1-2.92,6.12-4.49,9.14s-3.07,6.07-4.82,9l-5.1,8.82c-1.75,2.91-3.63,5.74-5.44,8.62-3.54,5.81-7.61,11.25-11.48,16.84-1.9,2.83-4.07,5.44-6.13,8.14l-6.26,8.05c-4.36,5.21-8.88,10.29-13.31,15.45l-14.09,14.74c-4.88,4.72-9.9,9.31-14.84,14-2.43,2.38-5.11,4.48-7.69,6.69l-7.78,6.57c-5.16,4.47-10.49,8.54-15.75,12.75l-15.78,12.59c-20.94,16.86-41.53,34.09-60.43,53a382.23,382.23,0,0,0-50.45,62c-7.25,11.2-13.89,22.8-20,34.68s-11.46,24.17-16.43,36.6a629.42,629.42,0,0,0-24.14,76.69c-6.53,26.06-11.54,52.5-15.87,79.06a1.48,1.48,0,0,1-2.93-.43c3.55-26.75,8.13-53.39,14.16-79.74a584.69,584.69,0,0,1,23.2-77.75q7.32-19,16.22-37.33a407.45,407.45,0,0,1,19.93-35.55,383.06,383.06,0,0,1,51.1-63.4c19.13-19.3,39.86-36.8,60.82-53.8l15.76-12.69c5.24-4.22,10.59-8.38,15.65-12.7l7.68-6.42c2.54-2.17,5.19-4.22,7.58-6.55,4.88-4.56,9.83-9,14.65-13.66l14-14.3c4.41-5,8.91-9.94,13.27-15l6.32-7.76c2.09-2.6,4.29-5.12,6.22-7.84,3.94-5.39,8.09-10.64,11.7-16.26A338.77,338.77,0,0,0,2027.52,363q4.67-8.87,8.61-18.09l1.95-4.62,1.81-4.67c1.19-3.1,2.3-6.28,3.22-9.41l0-.07a1.48,1.48,0,0,1,2.86.76Z" class="cls-3" transform="translate(-144.81 -105)"/><path d="M230.17,1029.79a9.43,9.43,0,0,1-4.51-15.11c12.05-14.13,32.09-42.95,44-88.91S318.3,777.06,445.83,770.11s220.41,197.8,296.62,403.11,333.32,223.68,333.32,223.68l70,9.16s-236.13,18.62-361.65-118.41-172.72-385-310.92-346.9C340.56,977.28,341.86,1061.85,230.17,1029.79Z" class="cls-4" transform="translate(-144.81 -105)"/><path d="M236.48,1015.22a80.51,80.51,0,0,0,17.37-7,101.45,101.45,0,0,0,15.67-10.32A107.32,107.32,0,0,0,294,969.8a129.79,129.79,0,0,0,8.46-16.62,149,149,0,0,0,6-17.69c.78-3,1.54-6,2.18-9.1l1.81-9.35a137.38,137.38,0,0,1,5.32-18.87A195.06,195.06,0,0,1,358.14,832a146.08,146.08,0,0,1,30.41-24.84,121.81,121.81,0,0,1,17.74-8.86,105.78,105.78,0,0,1,19.15-5.47c3.27-.66,6.58-1,9.89-1.38,3.32-.2,6.64-.43,10-.34a104.14,104.14,0,0,1,19.78,2.06A132.59,132.59,0,0,1,502,806.65c23,12.5,42.77,29.77,60.25,48.61A382.25,382.25,0,0,1,587,884.82c7.8,10.17,15.12,20.69,22.14,31.4a762.52,762.52,0,0,1,38.33,66.33,1.19,1.19,0,0,1-2.09,1.14c-12.85-22-26.18-43.64-40.81-64.38-7.33-10.35-14.78-20.61-22.77-30.43s-16.14-19.48-24.92-28.52C539.36,842.3,520,825.78,498,814.18a143.76,143.76,0,0,0-16.94-7.46,108.81,108.81,0,0,0-17.7-5,95.18,95.18,0,0,0-18.18-1.84c-3-.08-6.08.15-9.11.33-3,.36-6.05.68-9,1.3a103.76,103.76,0,0,0-17.54,5,112.54,112.54,0,0,0-16.44,8.12,137.2,137.2,0,0,0-28.71,23.23,190.51,190.51,0,0,0-39.62,62.84,129.84,129.84,0,0,0-5.46,17.76l-2,9.37c-.74,3.16-1.59,6.3-2.49,9.42A157,157,0,0,1,308,955.59a136.11,136.11,0,0,1-9.4,17.12,111.25,111.25,0,0,1-26.71,28.19c-10.49,7.63-22.24,13.55-35,16.22a1,1,0,0,1-.44-1.88Z" class="cls-3" transform="translate(-144.81 -105)"/><path d="M1390.16,1436.68s302.21-387.79,624.39-527.32c21.65-9.38,45.14,8.81,41.33,32.1C2030.4,1097.21,1910.88,1550.29,1390.16,1436.68Z" class="cls-4" transform="translate(-144.81 -105)"/><path d="M1446.33,1428.48a1.3,1.3,0,0,0,.72,2.49c58.89-12.55,302.24-95.31,511.43-386.51a.91.91,0,0,0-1.41-1.14C1901.79,1107.71,1689.4,1341.23,1446.33,1428.48Z" class="cls-3" transform="translate(-144.81 -105)"/><path d="M2327.24,1200.23a3.12,3.12,0,0,0,1-6c-49.53-19.85-235.15-81.58-446.54,7.63-193.41,81.63-315.74,170.58-359.91,205.51a14.56,14.56,0,0,0,3.49,24.89c61,25.08,235.67,86.34,355.66,23.71C2024.31,1381.11,2168,1210.48,2327.24,1200.23Z" class="cls-2" transform="translate(-144.81 -105)"/><path d="M2146.41,1208.39s-183.1-23.59-613.2,206.88C1533.21,1415.27,1977.72,1206.55,2146.41,1208.39Z" class="cls-3" transform="translate(-144.81 -105)"/><circle cx="1259.65" cy="955.57" r="589.31" class="cls-5" transform="translate(-451.56 1065.59) rotate(-45)"/><circle cx="1259.65" cy="955.57" r="502.95" class="cls-6" transform="translate(-451.56 1065.59) rotate(-45)"/><path d="M1260.67,1469.44a518.23,518.23,0,0,1-109.77-11.82c-134.1-29-248.87-108.58-323.15-223.94s-99.21-252.76-70.16-386.86S866.17,598,981.54,523.66s252.76-99.19,386.86-70.15,248.87,108.58,323.15,224,99.2,252.75,70.16,386.85L1751.2,1062l10.51,2.27c-29,134.11-108.58,248.87-224,323.16C1453.81,1441.53,1358.19,1469.44,1260.67,1469.44Zm-2-1006.25c-93.45,0-185.05,26.74-265.5,78.54C882.63,612.91,806.43,722.88,778.6,851.37s-4,260.13,67.22,370.67,181.14,186.75,309.63,214.58,260.14,4,370.68-67.22,186.74-181.14,214.57-309.63h0c27.83-128.5,4-260.14-67.22-370.68s-181.14-186.74-309.63-214.58A497.23,497.23,0,0,0,1258.67,463.19Z" class="cls-7" transform="translate(-144.81 -105)"/><circle cx="1259.65" cy="955.57" r="306.62" class="cls-8" transform="translate(-451.56 1065.59) rotate(-45)"/><path d="M1260.28,1273a320,320,0,0,1-67.82-7.3,315.75,315.75,0,1,1,67.82,7.3Zm-1.22-613.45a296.73,296.73,0,1,0,63.23,6.8A298.9,298.9,0,0,0,1259.06,659.59Z" class="cls-9" transform="translate(-144.81 -105)"/><circle cx="1259.65" cy="955.57" r="118.8" class="cls-10" transform="translate(-451.56 1065.59) rotate(-45)"/><path d="M1259.67,1085.12a129.56,129.56,0,0,1-126.63-157c15.13-69.81,84.23-114.3,154-99.18a129.55,129.55,0,0,1,99.19,154C1373.13,1043.6,1319.31,1085.12,1259.67,1085.12Zm0-237.61a108.15,108.15,0,1,0,22.89,2.46A108.23,108.23,0,0,0,1259.63,847.51Z" class="cls-11" transform="translate(-144.81 -105)"/><rect width="22.46" height="850.56" x="1746.79" y="221.18" class="cls-12" transform="translate(2021.49 2369.53) rotate(-122.78)"/><path d="M1413.49,832.18c10.83-7,43.72,44.1,32.89,51.08l-182.23,88.68c-6.73,3.28-12.57-5.79-6.8-10.56Z" class="cls-13" transform="translate(-144.81 -105)"/><path d="M2121.26,425.92l77.37,25-132.07,85a171.69,171.69,0,0,1-145.74,19h0Z" class="cls-14" transform="translate(-144.81 -105)"/><path d="M2109.1,407l9.27-80.78L1986.29,411.3a171.73,171.73,0,0,0-77.63,124.8h0Z" class="cls-15" transform="translate(-144.81 -105)"/><path d="M542.38,1531.69a5.44,5.44,0,0,1-4.84-8l246.27-475a5.45,5.45,0,1,1,9.67,5l-246.26,475A5.43,5.43,0,0,1,542.38,1531.69Z" class="cls-16" transform="translate(-144.81 -105)"/><path d="M659.21,1535.65a5.45,5.45,0,0,1-5-7.62l210.5-483.64a5.45,5.45,0,1,1,10,4.35L664.21,1532.38A5.45,5.45,0,0,1,659.21,1535.65Z" class="cls-16" transform="translate(-144.81 -105)"/><path d="M829.93,1140.8H744.55a3.41,3.41,0,1,1,0-6.81h85.38a3.41,3.41,0,0,1,0,6.81Z" class="cls-16" transform="translate(-144.81 -105)"/><path d="M807.11,1193.7H721.73a3.41,3.41,0,0,1,0-6.81h85.38a3.41,3.41,0,1,1,0,6.81Z" class="cls-16" transform="translate(-144.81 -105)"/><path d="M777,1257H686.21a3.41,3.41,0,1,1,0-6.81H777a3.41,3.41,0,1,1,0,6.81Z" class="cls-16" transform="translate(-144.81 -105)"/><path d="M852.62,1089.5H771.16a3.41,3.41,0,1,1,0-6.81h81.46a3.41,3.41,0,0,1,0,6.81Z" class="cls-16" transform="translate(-144.81 -105)"/><path d="M747.06,1329.9H648.38a3.41,3.41,0,0,1,0-6.81h98.68a3.41,3.41,0,0,1,0,6.81Z" class="cls-16" transform="translate(-144.81 -105)"/><path d="M723.88,1386.42H618a3.41,3.41,0,1,1,0-6.81H723.88a3.41,3.41,0,0,1,0,6.81Z" class="cls-16" transform="translate(-144.81 -105)"/><path d="M703.06,1317.7c-10.9-9.49-34.32-17.09-34.32-17.09l-14.09.31c-3.57,4-5.19,11.82-5.88,16.71,2.65,1.59,7.63,3,16.74,3.41A136.91,136.91,0,0,0,703.06,1317.7Z" class="cls-17" transform="translate(-144.81 -105)"/><path d="M703.06,1317.7a136.91,136.91,0,0,1-37.55,3.34c-9.11-.43-14.09-1.82-16.74-3.41,0,.39-.11.77-.15,1.12a4.15,4.15,0,0,0,2.92,4.48c12.87,4,41.18,2.68,52.22,2a2.9,2.9,0,0,0,2.08-4.73A26.09,26.09,0,0,0,703.06,1317.7Z" class="cls-18" transform="translate(-144.81 -105)"/><path d="M655.8,1288.76V1300a4.57,4.57,0,0,0,3.62,4.47,17.66,17.66,0,0,0,7.89.08,4.39,4.39,0,0,0,3.26-3.75l1.41-12Z" class="cls-19" transform="translate(-144.81 -105)"/><path d="M727.05,1231.35c-4.37-9.73-3.12-14.11-11.77-13.14a11.72,11.72,0,0,0-2.63.58,7.73,7.73,0,0,0,0,5.07,96.4,96.4,0,0,0,15.15,27.64,9.53,9.53,0,0,0,7.3,3.56l9.54.16C735.59,1248,730.68,1239.42,727.05,1231.35Z" class="cls-20" transform="translate(-144.81 -105)"/><path d="M745.24,1240.79c-7.32-5.15-10-26.21-10-26.21l-11.29-5.75-8.51,6.17a7.86,7.86,0,0,0-2.74,3.79,11.72,11.72,0,0,1,2.63-.58c8.65-1,7.4,3.41,11.77,13.14,3.63,8.07,8.54,16.64,17.59,23.87l6.56.11a3.53,3.53,0,0,0,2.86-5.66A42.56,42.56,0,0,0,745.24,1240.79Z" class="cls-21" transform="translate(-144.81 -105)"/><path d="M730.72,1198.24l-6.82,10.59a3.09,3.09,0,0,0,.68,4.1,10.13,10.13,0,0,0,10.61,1.65l10.94-7.5Z" class="cls-22" transform="translate(-144.81 -105)"/><path d="M679.57,1086.36s-3.58,10.1-8.78,45.59-8.62,61.29-11.46,75.37c-2.59,12.86-6.68,59.21-6.44,79.48a4.87,4.87,0,0,0,5,4.81l13.41-.42a4.33,4.33,0,0,0,4.15-3.61c3.55-20.87,28.08-128.55,42.87-159.53,0,0,39.35,11.12,49.16,15.6,0,0-12.68,5.08-38.68,53.81,0,0,11.23,8.92,19.18,10.77,0,0,56.88-47.17,62.89-52.11s11.48-13.44-3.85-28.94-62.4-39.93-62.4-39.93Z" class="cls-23" transform="translate(-144.81 -105)"/><path d="M716.15,1129.15a.79.79,0,0,1-.29-.06l-14-5.41a17.65,17.65,0,0,1-10-15.74.69.69,0,0,1,.68-.68.65.65,0,0,1,.69.68,16.24,16.24,0,0,0,9.21,14.51l14,5.41a.68.68,0,0,1-.3,1.29Z" class="cls-24" transform="translate(-144.81 -105)"/><path d="M806.82,1083.37s14.78-11.19,21.5-9.08,11.69,8.4,11.69,8.4H825.15s-3.55,6.81,0,6.81h5.25S816.52,1104,806.82,1083.37Z" class="cls-25" transform="translate(-144.81 -105)"/><path d="M781.79,977.87s17.35,68.58,40.84,96.15c0,0-6.36,7.26-15.81,9.35,0,0-36.07-31.61-47.05-53.57S781.79,977.87,781.79,977.87Z" class="cls-26" transform="translate(-144.81 -105)"/><path d="M758.61,912.59l-17.23,31.52h27.19s2.19-14.41,9.34-23.09Z" class="cls-27" transform="translate(-144.81 -105)"/><path d="M784.72,875.06s8.64,19.83,9.22,30.23,2.82,17.17-9.22,19.26-22.17-3.9-27.66-14.26c0,0-8.61-16-6.68-22.52S784.72,875.06,784.72,875.06Z" class="cls-28" transform="translate(-144.81 -105)"/><path d="M761.17,902.83h1.52s-6.27-12.86-.76-15.12,27.33-6.7,32-14.45c4.54-7.46.5-17.1-5.56-19.8a.81.81,0,0,0-1,.38l-.5.95a.82.82,0,0,1-1.51-.15h0a.82.82,0,0,0-1.47-.23c-1.44,2.32-5.34,6.08-15.8,8-14.85,2.74-24.67,8.75-24.91,19a.82.82,0,0,1-1.27.67c-1.09-.67-2.85-1-5.19,1-4.08,3.42-2.41,12.32,6.53,19.63a.81.81,0,0,1,0,1.31c-1.62,1.06-4,3.57,2.22,6.92s10.19,3,11.62,2.68a.81.81,0,0,0,.62-.85l-.56-9.09a.82.82,0,0,1,.82-.87Z" class="cls-29" transform="translate(-144.81 -105)"/><path d="M761.54,904.73s-3.29-12.66-9-9.11,2.95,14.19,7.51,14.67Z" class="cls-30" transform="translate(-144.81 -105)"/><path d="M737.56,941.64s-8.18-1.08,42.07,2c26.12,1.61,76.79,97.42,89.87,86,0,0-2.71,2.68,5.15,10.91,0,0-48.13,16.44-93.07-48,0,0-37.29,78.69-37,94.75,0,0-28.5,19.12-67.16,5.44,0,0-1.18-27.51,13.9-65.5A426.82,426.82,0,0,1,737.56,941.64Z" class="cls-31" transform="translate(-144.81 -105)"/><path d="M869.5,1031.58s7.82-7.82,15.63,0-13,26.7-13,26.7l-.23-16.71S863.64,1039.39,869.5,1031.58Z" class="cls-32" transform="translate(-144.81 -105)"/><path d="M1808,1018.61s11.57,5.62,13.69,12.08c1.71,5.18,14.49,5.85,15.75,16a11.72,11.72,0,0,0,9.79,10.28c13.06,2,33.18,8.78,36.4,31.45,2.46,17.3-6.36,23.86-15.62,26.13a13.11,13.11,0,0,0-9.94,15.15c1.32,6.59-.65,14.2-12.06,20.22-25.56,13.48-51.08-32-51.08-32l-5.24-79.34Z" class="cls-33" transform="translate(-144.81 -105)"/><path d="M1689.75,984.32s36.13,88.4,93.16,114.36c0,0-17.53,31.1-27.19,33.3,0,0-62.62-74.4-71-136.91Z" class="cls-34" transform="translate(-144.81 -105)"/><path d="M1913.09,1516.12l1.66,13.59a5.62,5.62,0,0,0,4.92,4.92,86.44,86.44,0,0,0,18.2.28,4.8,4.8,0,0,0,4-6.24c-1.67-5.25-4.72-13.13-9.12-17.76H1917.7A4.65,4.65,0,0,0,1913.09,1516.12Z" class="cls-35" transform="translate(-144.81 -105)"/><path d="M1795,1356.82l-2.55,15s8.53,86.36,10,120.91a27.05,27.05,0,0,1-4,15.38l-14.83,24.08,37.68-22.24.75-4.59-6.17-8.48,8.08-96.75a29.64,29.64,0,0,0-3.38-16.42l-7.79-14.64Z" class="cls-36" transform="translate(-144.81 -105)"/><path d="M1781.13,1535.65h12a7.25,7.25,0,0,0,5.75-2.81c3.75-4.87,11.51-14.38,15.23-14.62,5-.34,4.36,17.43,4.36,17.43h2.8l3.55-22.08a13.07,13.07,0,0,0-6.86-13.66h0s-1.14,8.45-7.34,12.19-25.21,17.12-25.21,17.12a17.29,17.29,0,0,0-4.89.13A3.18,3.18,0,0,0,1781.13,1535.65Z" class="cls-37" transform="translate(-144.81 -105)"/><path d="M1846.55,1363.94s50,94.74,57.89,116.38,10.72,39.68,10.83,41.38c.17,2.67,3.49,5.24,12.64,5.24,4.73,0,7-1.9,8.17-3.73a5.34,5.34,0,0,0,.21-5.17c-2.89-5.85-12.06-24.53-15.46-33-4-10.12-12.77-56-17.56-71.92s-10.19-33.24-31-49.17C1872.25,1363.94,1858,1349.93,1846.55,1363.94Z" class="cls-38" transform="translate(-144.81 -105)"/><path d="M1815,1208.69c-12.88-54.6,19.76-85.48,19.76-85.48-20.6-19.76-58.12-28.76-58.12-28.76s-35.81,26.18-31.56,46.67c2.49,12,25.17,71.93,25.17,71.93S1791.22,1223,1815,1208.69Z" class="cls-39" transform="translate(-144.81 -105)"/><path d="M1843.57,1235.72c-5.25-15.8-28.57-27-28.57-27-23.78,14.28-44.75,4.36-44.75,4.36s-4.71,18-1.46,34.68,23.61,124.07,23.61,124.07c32.09,6.5,81.44-6.54,81.44-6.54C1853.4,1329,1848.81,1251.52,1843.57,1235.72Z" class="cls-40" transform="translate(-144.81 -105)"/><path d="M1800,1058.37l10.48,47.05c1,4.15-2.78,3.47-7,2.68-6.86-1.29-15.7-4-18.66-9.3a5,5,0,0,1-.53-1.77l-4.51-32.63a5.88,5.88,0,0,1,3.44-6.16l8.68-3.85A5.86,5.86,0,0,1,1800,1058.37Z" class="cls-41" transform="translate(-144.81 -105)"/><path d="M1834.76,1123.21s73.11,52.31,9.35,107.28a16.55,16.55,0,0,1-7.22,4.18c-2.41.72-9.56,6.12-13.18,8.94a2.48,2.48,0,0,1-3.63-.65h0a3.41,3.41,0,0,1-.19-3.25l9-19.14a7,7,0,0,1,9.07-.39h0a3.44,3.44,0,0,0,5.22-1.19c4.93-10,14.24-39.56-23.85-72.92a4.12,4.12,0,0,1-.92-5C1821.14,1135.91,1827.26,1125.7,1834.76,1123.21Z" class="cls-42" transform="translate(-144.81 -105)"/><path d="M1780,1015.48s-11.15,7.55-15.94,26.77,3,26.12,11,25.7,19.56-2.89,29.59-16.68S1794.59,1006.25,1780,1015.48Z" class="cls-43" transform="translate(-144.81 -105)"/><path d="M1794.49,1043.51s4.08-27.55-18.79-23.33l-4.62,4.81s-11.2-12.6,1.19-22.13,29.58-7.09,39.09,10.26,13,29.54,5,40.32-14,1.53-14,1.53,3.66-9.33.63-13.33-7,2.33-7,2.33Z" class="cls-44" transform="translate(-144.81 -105)"/><path d="M1797.61,1045.87s2-14.17,9.26-10.12-2.61,13.24-6.56,16.37Z" class="cls-45" transform="translate(-144.81 -105)"/><path d="M1687.19,1000.74c-.45,1.61,5.45,3.83,8.63-2.82,0-3.13,1.42-16.58-.54-19.06-10.44-13.2-30.34-29.49-30.34-29.49a4.6,4.6,0,0,0-.34,6.4l9.7,9.4c-1.82,3.61-4.1,6.68-5.06,11a13.07,13.07,0,0,0,1.66,9.6c1.75,2.9,4.13,6.66,6.35,9.6A13,13,0,0,0,1687.19,1000.74Z" class="cls-46" transform="translate(-144.81 -105)"/><path d="M1240.62,225.41c-.22.4-13.54,10.2-13.54,10.2s3,21.05,14.89,29.36c13.13,9.14,31.68-7.53,31.68-7.53s14.76,3.51,22.61-27.21c1.8-7-8.59-7.65-21.14-6.35C1258.94,225.55,1240.62,225.41,1240.62,225.41Z" class="cls-47" transform="translate(-144.81 -105)"/><path d="M1215.72,297.21a56.43,56.43,0,0,1,17.08-7.95c2.29-.62,14.68,3,22.34,2.8,10.51-.24,21.21-5,29.87-2.86s15.66,4.94,19.72,7.84c12.18,8.66,19.33,24.8,23.68,40.79a55.7,55.7,0,0,1-18.63,12.23l-1.91,77.74-46,23.52L1209.43,425l1.88-76s-16.66-7.76-17.88-10.58S1201,307.32,1215.72,297.21Z" class="cls-48" transform="translate(-144.81 -105)"/><path d="M1194.2,338.09s-22.33,61.9,28.59,87.34c10.57-1.4,6.5-19,6.5-19s-22.12-4.9-15.48-56.53C1207.7,344.91,1194.2,338.09,1194.2,338.09Z" class="cls-49" transform="translate(-144.81 -105)"/><path d="M1327.34,338.09s15.36,64.61-28.59,87.34c-10.57-1.4-6.5-19-6.5-19s17.83-8.78,15.47-56.53C1313.84,344.91,1327.34,338.09,1327.34,338.09Z" class="cls-50" transform="translate(-144.81 -105)"/><rect width="100.8" height="68.08" x="1064.01" y="256.7" class="cls-51" rx="8.33" ry="8.33"/><path d="M1353.84,450c-11.54-2.65-38.2-1.22-38.2-1.22l-1.08,2.93-1.8,14.6s25.39,4.58,37.91,4.57a12.13,12.13,0,0,0,3.51-.53c.38-.34.76-.7,1.11-1.08C1360.6,463.43,1359.07,454.91,1353.84,450Z" class="cls-52" transform="translate(-144.81 -105)"/><path d="M1355,450.25c-.36-.1-.74-.2-1.14-.29,5.23,5,6.76,13.47,1.45,19.27-.35.38-.73.74-1.11,1.08C1363.57,467.39,1364.68,453,1355,450.25Z" class="cls-53" transform="translate(-144.81 -105)"/><path d="M1308,447.91l4.52.2a8.67,8.67,0,0,1,6.34,3.28,10.7,10.7,0,0,1,2.33,7.31,8.45,8.45,0,0,1-2.45,5.57,6.8,6.8,0,0,1-5.28,2l-6.91-.49Z" class="cls-54" transform="translate(-144.81 -105)"/><path d="M1332.16,463.42a.69.69,0,0,1-.64-.54c-1.15-4.62-5.63-9.26-5.68-9.31a.79.79,0,0,1,0-1.05.62.62,0,0,1,.94,0c.2.2,4.81,5,6.06,10a.75.75,0,0,1-.46.91A.63.63,0,0,1,1332.16,463.42Z" class="cls-4" transform="translate(-144.81 -105)"/><path d="M1326.06,463a.63.63,0,0,1-.19,0,.75.75,0,0,1-.44-.93c1.51-5.37,7.19-9.66,7.44-9.84a.62.62,0,0,1,.92.2.79.79,0,0,1-.18,1s-5.54,4.18-6.91,9A.66.66,0,0,1,1326.06,463Z" class="cls-4" transform="translate(-144.81 -105)"/><path d="M1344.41,464.14a.69.69,0,0,1-.64-.58c-1-4.67-5.23-9.55-5.27-9.6a.8.8,0,0,1,0-1,.63.63,0,0,1,1,0c.18.21,4.58,5.23,5.61,10.31a.75.75,0,0,1-.5.89Z" class="cls-4" transform="translate(-144.81 -105)"/><path d="M1338.33,463.43a.57.57,0,0,1-.22,0,.76.76,0,0,1-.4-.95c1.75-5.28,7.62-9.26,7.87-9.43a.63.63,0,0,1,.91.25.8.8,0,0,1-.22,1c-.06,0-5.72,3.88-7.3,8.67A.67.67,0,0,1,1338.33,463.43Z" class="cls-4" transform="translate(-144.81 -105)"/><path d="M1156.17,448.56c11.6-2.3,38.21-.06,38.21-.06l1,3,1.43,14.65s-25.49,3.8-38,3.4a12,12,0,0,1-3.5-.63c-.37-.36-.74-.72-1.08-1.12C1149.08,461.81,1150.82,453.34,1156.17,448.56Z" class="cls-55" transform="translate(-144.81 -105)"/><path d="M1155,448.81c.36-.09.75-.18,1.15-.25-5.35,4.78-7.09,13.25-1.93,19.21.34.4.71.76,1.08,1.12C1146,465.68,1145.26,451.24,1155,448.81Z" class="cls-56" transform="translate(-144.81 -105)"/><path d="M1202.06,447.92l-4.52.05a8.66,8.66,0,0,0-6.42,3.08,10.7,10.7,0,0,0-2.51,7.25,8.43,8.43,0,0,0,2.31,5.64,6.84,6.84,0,0,0,5.23,2.17l6.91-.28Z" class="cls-57" transform="translate(-144.81 -105)"/><path d="M1177.5,462.68a.68.68,0,0,0,.65-.53c1.27-4.58,5.87-9.08,5.92-9.12a.82.82,0,0,0,.06-1,.63.63,0,0,0-1-.07c-.2.19-4.92,4.82-6.3,9.81a.75.75,0,0,0,.44.92Z" class="cls-4" transform="translate(-144.81 -105)"/><path d="M1183.61,462.49a.69.69,0,0,0,.2,0,.76.76,0,0,0,.46-.92c-1.38-5.41-7-9.88-7.19-10.06a.64.64,0,0,0-.94.17.79.79,0,0,0,.16,1c0,.05,5.43,4.36,6.68,9.27A.69.69,0,0,0,1183.61,462.49Z" class="cls-4" transform="translate(-144.81 -105)"/><path d="M1165.24,463a.69.69,0,0,0,.66-.56c1.07-4.64,5.46-9.39,5.5-9.43a.79.79,0,0,0,0-1,.62.62,0,0,0-1,0c-.19.2-4.71,5.08-5.87,10.13a.76.76,0,0,0,.49.91Z" class="cls-4" transform="translate(-144.81 -105)"/><path d="M1171.33,462.5a.62.62,0,0,0,.23,0,.76.76,0,0,0,.42-.94c-1.61-5.33-7.38-9.49-7.63-9.66a.63.63,0,0,0-.92.22.8.8,0,0,0,.2,1c.06,0,5.62,4.05,7.08,8.88A.68.68,0,0,0,1171.33,462.5Z" class="cls-4" transform="translate(-144.81 -105)"/><path d="M1357.07,404.2c-5.23-12-18-14-28.92-8.37-.19.25-69.16,35.6-130,51.09a65.91,65.91,0,0,1,2.83,17.36c0,1.3,0,2.59-.06,3.85,46.65-2.39,97.27-17.95,140.77-31.62C1355.19,432.16,1362.87,417.54,1357.07,404.2Z" class="cls-58" transform="translate(-144.81 -105)"/><path d="M1308.31,465.2a40.15,40.15,0,0,1,3.93-18.8c.08-.26.17-.52.26-.78-3.48-1.08-8-2.53-13.86-4.53-43.19-14.78-76.14-29.71-107.59-46.89-12.21-6.68-26.1-2.2-30,12.25-3.5,12.91,4.17,23.93,15.81,27.8,34.81,11.58,16.68,8.36,28.05,12,30.53,9.44,68.53,18,103.49,20.39C1308.36,466.17,1308.33,465.68,1308.31,465.2Z" class="cls-59" transform="translate(-144.81 -105)"/><path d="M1232.8,289.26s4.64,20.13,27.2,19.72c23-.42,25-19.78,25-19.78L1270,286l-1.25-16.72-22.58,1.67-.41,15.88Z" class="cls-60" transform="translate(-144.81 -105)"/><path d="M1249.35,221.9s-25.86,50.1,4.82,62.26c21.64,8.57,35.21-33.28,31.16-44.61C1279.08,222,1275,224.1,1275,224.1Z" class="cls-61" transform="translate(-144.81 -105)"/><path d="M1291.56,217.34c12.78,3.51,1.86,31.22-17.38,24.67s-26.8-6.46-29.8-1.18-3.64,24-10.14,14.77c-7.14-10.16-11.11-30.57-2.37-37.14,7.82-5.88,9.64-15,19-14.68,12.44.42,22.06-5.1,27.68-1.12C1285,207.23,1282.16,214.75,1291.56,217.34Z" class="cls-62" transform="translate(-144.81 -105)"/><path d="M1243.2,245.14s-5.52-5.93-6.4,1.22,2,16.37,5.27,11.32S1243.2,245.14,1243.2,245.14Z" class="cls-63" transform="translate(-144.81 -105)"/><path d="M1265.17,380.14c.54,3.61-1.4,6.89-5,7.42a6.61,6.61,0,0,1-7.51-5.57c-.53-3.61,1.12-7.2,4.73-7.73A7.11,7.11,0,0,1,1265.17,380.14Z" class="cls-4" transform="translate(-144.81 -105)"/><path d="M621.12,348.23a2,2,0,0,1-1.31-3.41c1.94-1.74,3.94-3.48,6-5.16a2,2,0,0,1,2.51,3c-2,1.65-3.94,3.36-5.85,5.07A1.91,1.91,0,0,1,621.12,348.23Z" class="cls-16" transform="translate(-144.81 -105)"/><path d="M993.43,515.93h0a2,2,0,0,1-1.94-2v-1.71c0-4.74-.16-9.54-.47-14.26a2,2,0,1,1,3.9-.25c.31,4.8.47,9.68.47,14.51V514A2,2,0,0,1,993.43,515.93Zm-3.7-42.09a2,2,0,0,1-1.92-1.6c-1-5.2-2.14-10.45-3.48-15.59a2,2,0,0,1,3.78-1c1.37,5.23,2.56,10.57,3.54,15.87a2,2,0,0,1-1.57,2.28Zm-11.59-40.63a2,2,0,0,1-1.83-1.24l-.44-1.14c-1.81-4.57-3.79-9.12-5.89-13.53a2,2,0,1,1,3.53-1.67c2.13,4.48,4.15,9.11,6,13.76l.46,1.16a2,2,0,0,1-1.12,2.53A1.93,1.93,0,0,1,978.14,433.21Zm-19-37.74a2,2,0,0,1-1.66-.92c-2.81-4.49-5.83-8.93-9-13.21a2,2,0,1,1,3.15-2.31c3.19,4.35,6.27,8.88,9.13,13.45a2,2,0,0,1-.61,2.69A2,2,0,0,1,959.17,395.47ZM933.43,362a2,2,0,0,1-1.43-.62c-3.62-3.87-7.43-7.67-11.32-11.27a2,2,0,0,1,2.66-2.87c4,3.67,7.83,7.53,11.52,11.47a2,2,0,0,1-.1,2.76A1.91,1.91,0,0,1,933.43,362ZM901.8,334a2,2,0,0,1-1.15-.37c-4.28-3.12-8.74-6.13-13.24-8.93a2,2,0,1,1,2.07-3.32c4.58,2.86,9.11,5.92,13.47,9.09a2,2,0,0,1,.43,2.73A1.93,1.93,0,0,1,901.8,334Zm-253.75-6.48a2,2,0,0,1-1.07-3.59c4.51-2.94,9.19-5.76,13.93-8.39A2,2,0,0,1,662.8,319c-4.65,2.58-9.25,5.35-13.68,8.24A1.91,1.91,0,0,1,648.05,327.53Zm217.41-15a1.9,1.9,0,0,1-.83-.19C859.84,310,854.9,307.91,850,306a2,2,0,0,1,1.4-3.65c5,1.95,10.07,4.11,14.95,6.41a2,2,0,0,1-.84,3.72Zm-180-4.59a2,2,0,0,1-.74-3.76l2.61-1.06c4.17-1.65,8.42-3.19,12.64-4.58a2,2,0,1,1,1.22,3.71c-4.14,1.37-8.32,2.88-12.42,4.51l-2.57,1A1.92,1.92,0,0,1,685.45,307.89Zm140.27-9.76a1.58,1.58,0,0,1-.48-.06c-5.14-1.32-10.39-2.47-15.61-3.42a2,2,0,1,1,.7-3.84c5.31,1,10.66,2.13,15.88,3.48a1.95,1.95,0,0,1-.49,3.84Zm-99.85-2.56a2,2,0,0,1-.39-3.87c5.29-1.08,10.68-2,16-2.67a2,2,0,0,1,.51,3.87c-5.26.68-10.56,1.57-15.76,2.63A2.58,2.58,0,0,1,725.87,295.57ZM784,291.52h-.13c-5.3-.33-10.65-.47-16-.41h0a2,2,0,0,1,0-3.91c5.4-.05,10.86.09,16.26.42a2,2,0,0,1-.12,3.91Z" class="cls-16" transform="translate(-144.81 -105)"/><path d="M990.55,549.9a1.62,1.62,0,0,1-.31,0,2,2,0,0,1-1.62-2.24c.42-2.54.79-5.12,1.11-7.67a2,2,0,0,1,2.19-1.69,2,2,0,0,1,1.69,2.18c-.33,2.6-.71,5.22-1.13,7.8A2,2,0,0,1,990.55,549.9Z" class="cls-16" transform="translate(-144.81 -105)"/><path d="M898.51,696.92a2,2,0,0,1-1.12-3.56c2.12-1.48,4.22-3,6.26-4.56a2,2,0,0,1,2.36,3.12c-2.08,1.57-4.22,3.13-6.38,4.64A1.94,1.94,0,0,1,898.51,696.92Z" class="cls-16" transform="translate(-144.81 -105)"/><path d="M782,737.15a2,2,0,0,1-.1-3.9c5.21-.28,10.48-.74,15.66-1.39a2,2,0,1,1,.48,3.88c-5.27.65-10.63,1.13-15.93,1.41ZM756.2,737h-.12c-5.29-.34-10.64-.87-15.92-1.59a2,2,0,0,1,.52-3.87c5.19.7,10.45,1.22,15.65,1.56a1.94,1.94,0,0,1,1.82,2.07A2,2,0,0,1,756.2,737Zm66.89-5.93a2,2,0,0,1-.46-3.85c5-1.24,10.14-2.68,15.12-4.28a2,2,0,0,1,1.2,3.72c-5.07,1.63-10.25,3.09-15.39,4.35A2,2,0,0,1,823.09,731.08Zm-108-.58a2.12,2.12,0,0,1-.49-.06c-5.14-1.31-10.3-2.83-15.34-4.51a2,2,0,0,1,1.23-3.71c5,1.65,10,3.14,15.08,4.44A1.94,1.94,0,0,1,717,729,2,2,0,0,1,715.14,730.5Zm147.25-13a1.93,1.93,0,0,1-1.78-1.14,2,2,0,0,1,1-2.59c4.76-2.15,9.5-4.5,14.09-7a2,2,0,0,1,1.85,3.44c-4.66,2.52-9.48,4.91-14.33,7.1A1.89,1.89,0,0,1,862.39,717.49Zm-186.4-1a2,2,0,0,1-.82-.18c-4.81-2.24-9.61-4.69-14.26-7.27a2,2,0,1,1,1.9-3.41c4.57,2.53,9.28,4.93,14,7.14a2,2,0,0,1-.83,3.72Zm-35.89-21a2,2,0,0,1-1.14-.37c-4.32-3.09-8.58-6.38-12.66-9.77a2,2,0,1,1,2.5-3c4,3.33,8.2,6.56,12.44,9.6a2,2,0,0,1-1.14,3.54Zm-31.37-27.25a1.93,1.93,0,0,1-1.41-.6c-3.68-3.85-7.25-7.88-10.62-12a2,2,0,1,1,3-2.49c3.31,4,6.82,8,10.43,11.75a1.95,1.95,0,0,1-1.41,3.3ZM583,635.66a2,2,0,0,1-1.65-.89c-2.87-4.45-5.63-9.06-8.2-13.73a2,2,0,0,1,3.43-1.89c2.52,4.59,5.23,9.13,8.06,13.5a1.95,1.95,0,0,1-1.64,3Zm-19.23-36.85a2,2,0,0,1-1.81-1.22c-.32-.77-.63-1.56-.94-2.34-1.65-4.16-3.2-8.42-4.59-12.66a2,2,0,1,1,3.71-1.23c1.37,4.17,2.89,8.36,4.51,12.45.31.77.61,1.54.93,2.3a2,2,0,0,1-1.07,2.55A1.92,1.92,0,0,1,563.76,598.81ZM551.62,559a2,2,0,0,1-1.91-1.56c-1.07-5.21-2-10.52-2.66-15.78a1.94,1.94,0,0,1,1.68-2.19,2,2,0,0,1,2.19,1.68c.68,5.17,1.57,10.38,2.62,15.5A2,2,0,0,1,552,559,2.71,2.71,0,0,1,551.62,559Zm-4.53-41.33a2,2,0,0,1-2-1.92c0-1.14,0-2.28,0-3.41,0-4.18.12-8.42.36-12.59a2,2,0,0,1,2.06-1.84,2,2,0,0,1,1.84,2.06c-.23,4.1-.35,8.26-.35,12.37,0,1.11,0,2.23,0,3.35a2,2,0,0,1-1.93,2Z" class="cls-16" transform="translate(-144.81 -105)"/><path d="M550.38,476.14a2,2,0,0,1-1.93-2.29c.45-2.57.95-5.17,1.49-7.73a2,2,0,1,1,3.82.8c-.53,2.52-1,5.08-1.46,7.61A2,2,0,0,1,550.38,476.14Z" class="cls-16" transform="translate(-144.81 -105)"/><path d="M608.27,456.27a2.67,2.67,0,0,0,.55,3.06l23.35,22.74A141.84,141.84,0,0,0,630,528l-25.38,20.42a2.66,2.66,0,0,0-.84,3L617,588.22a2.68,2.68,0,0,0,2.55,1.77l32.57-.44a142.27,142.27,0,0,0,31,34L679.59,656a2.68,2.68,0,0,0,1.52,2.71l35.37,16.65a2.67,2.67,0,0,0,3.06-.55l22.74-23.36a141.56,141.56,0,0,0,46,2.19L808.65,679a2.67,2.67,0,0,0,3,.84l36.79-13.24A2.68,2.68,0,0,0,850.2,664l-.44-32.57a142.08,142.08,0,0,0,34-31l32.4,3.51a2.68,2.68,0,0,0,2.71-1.52l16.65-35.38a2.65,2.65,0,0,0-.55-3.05l-23.35-22.74a141.84,141.84,0,0,0,2.18-46L939.2,475a2.67,2.67,0,0,0,.84-3L926.8,435.17a2.67,2.67,0,0,0-2.55-1.77l-32.57.44a142.08,142.08,0,0,0-31-34l3.51-32.4a2.68,2.68,0,0,0-1.52-2.72l-35.37-16.65a2.68,2.68,0,0,0-3.06.56L801.53,372a141.84,141.84,0,0,0-45.95-2.18L735.16,344.4a2.69,2.69,0,0,0-3-.85l-36.79,13.24a2.7,2.7,0,0,0-1.77,2.56l.44,32.57a142.08,142.08,0,0,0-34,31l-32.4-3.51a2.65,2.65,0,0,0-2.71,1.52Z" class="cls-4" transform="translate(-144.81 -105)"/><path d="M772,549.33a37.63,37.63,0,1,1,21-6.41A37.62,37.62,0,0,1,772,549.33Zm-.1-69.41a31.78,31.78,0,1,0,26.41,14A31.59,31.59,0,0,0,771.86,479.92Z" class="cls-2" transform="translate(-144.81 -105)"/><path d="M772.62,609.31a97.49,97.49,0,0,1-91.46-64.39c-.26-.71-.51-1.43-.75-2.15a98.9,98.9,0,0,1-4.17-18l5.81-.78a92.11,92.11,0,0,0,4.63,18.91h0A91.37,91.37,0,1,0,702,454.06l-4.54-3.71a97.23,97.23,0,1,1,75.2,159Z" class="cls-2" transform="translate(-144.81 -105)"/><path d="M939.76,656a2,2,0,0,1-1.31-3.41c2-1.77,4-3.48,6.14-5.09a2,2,0,1,1,2.37,3.11c-2,1.54-4,3.19-5.89,4.89A2,2,0,0,1,939.76,656Z" class="cls-2" transform="translate(-144.81 -105)"/><path d="M1102.47,712.22a2,2,0,0,1-1.92-1.62,97.14,97.14,0,0,0-3.77-14.57,2,2,0,1,1,3.69-1.27,100.18,100.18,0,0,1,3.92,15.16,2,2,0,0,1-1.58,2.27ZM1087.66,675a1.93,1.93,0,0,1-1.63-.88,96.56,96.56,0,0,0-9.24-11.87,2,2,0,1,1,2.88-2.63,100,100,0,0,1,9.62,12.35,2,2,0,0,1-.56,2.71A1.91,1.91,0,0,1,1087.66,675Zm-28.42-28.22a2,2,0,0,1-1.06-.31,97,97,0,0,0-13.21-7.2,2,2,0,1,1,1.59-3.57,101.53,101.53,0,0,1,13.75,7.49,2,2,0,0,1-1.07,3.59Zm-91.9-8.22a2,2,0,0,1-.76-3.76l2-.81a101.41,101.41,0,0,1,12.87-4.13,2,2,0,0,1,1,3.79,97,97,0,0,0-12.38,4c-.65.25-1.28.51-1.91.77A1.81,1.81,0,0,1,967.34,638.55Zm54.6-6.36-.33,0a96.58,96.58,0,0,0-15-1.36,2,2,0,0,1,0-3.91h0a100.73,100.73,0,0,1,15.59,1.41,2,2,0,0,1-.32,3.88Z" class="cls-2" transform="translate(-144.81 -105)"/><path d="M1102.69,745a1.73,1.73,0,0,1-.32,0,1.94,1.94,0,0,1-1.61-2.24c.41-2.51.72-5.07.92-7.6a2,2,0,0,1,2.11-1.79,2,2,0,0,1,1.79,2.11c-.22,2.63-.54,5.29-1,7.91A1.94,1.94,0,0,1,1102.69,745Z" class="cls-2" transform="translate(-144.81 -105)"/><path d="M1058.46,812.21a2,2,0,0,1-1-3.6c2.15-1.37,4.27-2.84,6.29-4.37a2,2,0,0,1,2.36,3.12c-2.11,1.59-4.31,3.12-6.55,4.54A1.92,1.92,0,0,1,1058.46,812.21Z" class="cls-2" transform="translate(-144.81 -105)"/><path d="M997.18,827.3H997a98.92,98.92,0,0,1-15.2-2.49,2,2,0,0,1,.93-3.79,97.46,97.46,0,0,0,14.6,2.39,2,2,0,0,1-.17,3.9Zm24.48-1a2,2,0,0,1-.32-3.88,95.9,95.9,0,0,0,14.36-3.55,2,2,0,0,1,1.23,3.71,101.37,101.37,0,0,1-15,3.7A1.77,1.77,0,0,1,1021.66,826.32Zm-62.27-10.17a1.86,1.86,0,0,1-.91-.23,99.77,99.77,0,0,1-13-8.23,2,2,0,1,1,2.33-3.13,96.61,96.61,0,0,0,12.51,7.91,2,2,0,0,1-.92,3.68Zm-30.4-25a1.94,1.94,0,0,1-1.52-.73,100.51,100.51,0,0,1-8.73-12.69,2,2,0,0,1,3.39-2,96.2,96.2,0,0,0,8.38,12.2,2,2,0,0,1-.3,2.74A1.89,1.89,0,0,1,929,791.11Zm-18.12-35A2,2,0,0,1,909,754.7a100,100,0,0,1-3.08-15.09,2,2,0,1,1,3.88-.48,96.35,96.35,0,0,0,3,14.5A2,2,0,0,1,911.4,756,2,2,0,0,1,910.87,756.12Z" class="cls-2" transform="translate(-144.81 -105)"/><path d="M907.91,716.74l-.25,0a2,2,0,0,1-1.69-2.19c.34-2.62.79-5.26,1.33-7.85a2,2,0,0,1,3.83.8c-.53,2.49-1,5-1.28,7.55A2,2,0,0,1,907.91,716.74Z" class="cls-2" transform="translate(-144.81 -105)"/><path d="M934.09,702.56a1.19,1.19,0,0,0,.25,1.35l10.3,10a62.69,62.69,0,0,0-1,20.26l-11.19,9a1.18,1.18,0,0,0-.37,1.32L938,760.75a1.18,1.18,0,0,0,1.12.78l14.37-.19a62.57,62.57,0,0,0,13.66,15l-1.55,14.29a1.18,1.18,0,0,0,.67,1.2l15.6,7.34a1.19,1.19,0,0,0,1.35-.24l10-10.3a62.77,62.77,0,0,0,20.27,1l9,11.19a1.17,1.17,0,0,0,1.32.37l16.23-5.83a1.19,1.19,0,0,0,.78-1.13l-.19-14.37a62.74,62.74,0,0,0,15-13.65l14.29,1.55a1.18,1.18,0,0,0,1.19-.68l7.35-15.6a1.18,1.18,0,0,0-.25-1.34l-10.3-10a62.75,62.75,0,0,0,1-20.27l11.19-9a1.19,1.19,0,0,0,.37-1.32l-5.84-16.22a1.16,1.16,0,0,0-1.12-.78l-14.37.19a62.2,62.2,0,0,0-13.66-15l1.55-14.29a1.16,1.16,0,0,0-.67-1.2l-15.6-7.34a1.18,1.18,0,0,0-1.35.24l-10,10.3a62.49,62.49,0,0,0-20.27-1l-9-11.2a1.19,1.19,0,0,0-1.32-.37l-16.23,5.84a1.18,1.18,0,0,0-.78,1.13l.19,14.36a62.78,62.78,0,0,0-15,13.66l-14.29-1.55a1.18,1.18,0,0,0-1.19.67Z" class="cls-4" transform="translate(-144.81 -105)"/><path d="M1006.29,745.24a18.24,18.24,0,1,1,10.16-3.11A18.23,18.23,0,0,1,1006.29,745.24Zm0-30.61a12.38,12.38,0,1,0,10.29,5.46A12.29,12.29,0,0,0,1006.24,714.63Z" class="cls-2" transform="translate(-144.81 -105)"/><path d="M1006.57,771.69a44.61,44.61,0,0,1-41.87-29.48c-.12-.33-.24-.67-.35-1h0a46.76,46.76,0,0,1-1.68-6.74v-.1l-.06-.36c0-.16-.05-.32-.07-.48s0-.33-.07-.5l5.81-.77a38.47,38.47,0,0,0,2,8h0a38.62,38.62,0,0,0,48.92,23.48l.56-.19a38.67,38.67,0,1,0-43-60.9l-4.54-3.71a44.51,44.51,0,1,1,34.43,72.78Z" class="cls-2" transform="translate(-144.81 -105)"/><path d="M1383.43,340.76a3,3,0,0,1-1.33-.32l-3.89-2a2.93,2.93,0,0,1,2.65-5.23l3.9,2a2.94,2.94,0,0,1-1.33,5.55Z" class="cls-11" transform="translate(-144.81 -105)"/><path d="M1231.8,981l-4,4.3a3,3,0,0,1-4.33-4l0,0,4-4.26a2.93,2.93,0,0,1,4.28,4Z" class="cls-64" transform="translate(-144.81 -105)"/><path d="M1218.49,995.34l-4,4.29a3,3,0,1,1-4.41-4.11h0l4-4.27a3,3,0,0,1,4.37,4.1Z" class="cls-65" transform="translate(-144.81 -105)"/><path d="M1205.16,1009.64l-4,4.29a3.08,3.08,0,0,1-4.5-4.21l0,0,4-4.26a3.06,3.06,0,0,1,4.46,4.2Z" class="cls-66" transform="translate(-144.81 -105)"/><path d="M1191.79,1023.9l-4,4.28a3.15,3.15,0,0,1-4.58-4.32l0,0,4-4.24a3.13,3.13,0,0,1,4.54,4.3Z" class="cls-67" transform="translate(-144.81 -105)"/><path d="M1178.35,1038.12l-4.06,4.25a3.21,3.21,0,0,1-4.65-4.43l0,0,4.07-4.22a3.2,3.2,0,0,1,4.62,4.42Z" class="cls-68" transform="translate(-144.81 -105)"/><path d="M1164.82,1052.26l-4.08,4.23a3.28,3.28,0,0,1-4.72-4.56l0,0,4.1-4.19a3.26,3.26,0,0,1,4.68,4.54Z" class="cls-69" transform="translate(-144.81 -105)"/><path d="M1151.19,1066.3l-4.11,4.2a3.34,3.34,0,0,1-4.78-4.68l0,0,4.14-4.16a3.32,3.32,0,0,1,4.73,4.66Z" class="cls-70" transform="translate(-144.81 -105)"/><path d="M1137.44,1080.24l-4.15,4.15a3.41,3.41,0,1,1-4.83-4.82h0l4.17-4.11h0a3.39,3.39,0,0,1,4.78,4.81Z" class="cls-71" transform="translate(-144.81 -105)"/><path d="M1123.55,1094l-4.2,4.11a3.48,3.48,0,1,1-4.86-5v0h0l4.21-4.07h0a3.46,3.46,0,0,1,4.82,5Z" class="cls-72" transform="translate(-144.81 -105)"/><path d="M1109.49,1107.68l-4.25,4.06a3.54,3.54,0,0,1-4.89-5.12l0,0h0l4.26-4h0a3.52,3.52,0,0,1,4.84,5.11Z" class="cls-73" transform="translate(-144.81 -105)"/><path d="M1095.26,1121.15l-4.31,4a3.61,3.61,0,0,1-4.9-5.29h0l4.31-3.95,0,0a3.59,3.59,0,0,1,4.86,5.28Z" class="cls-74" transform="translate(-144.81 -105)"/><path d="M1080.84,1134.41l-4.37,3.93a3.67,3.67,0,0,1-4.91-5.45v0h0L1076,1129l0,0a3.65,3.65,0,0,1,4.87,5.45Z" class="cls-75" transform="translate(-144.81 -105)"/><path d="M1066.21,1147.44l-4.44,3.86a3.74,3.74,0,1,1-4.91-5.63l0,0h0l4.43-3.81h0a3.72,3.72,0,0,1,4.87,5.62Z" class="cls-76" transform="translate(-144.81 -105)"/><path d="M1051.35,1160.22l-4.5,3.78a3.8,3.8,0,1,1-4.89-5.82v0h0l4.5-3.72v0a3.78,3.78,0,0,1,4.85,5.81Z" class="cls-77" transform="translate(-144.81 -105)"/><path d="M1036.25,1172.73l-4.58,3.7a3.87,3.87,0,1,1-4.86-6l0,0h0l4.57-3.64h0a3.85,3.85,0,0,1,4.81,6Z" class="cls-78" transform="translate(-144.81 -105)"/><path d="M1020.9,1184.94l-4.67,3.61a3.94,3.94,0,0,1-4.81-6.23l0,0h0l4.65-3.54,0,0a3.92,3.92,0,0,1,4.77,6.21Z" class="cls-79" transform="translate(-144.81 -105)"/><path d="M1005.27,1196.82l-4.74,3.5a4,4,0,1,1-4.75-6.44l0,0h0l4.72-3.43,0,0a4,4,0,0,1,4.7,6.42Z" class="cls-80" transform="translate(-144.81 -105)"/><path d="M989.36,1208.34l-4.82,3.38a4.07,4.07,0,0,1-4.67-6.66l0,0h0l4.8-3.32h0a4,4,0,0,1,4.62,6.64Z" class="cls-81" transform="translate(-144.81 -105)"/><path d="M973.18,1219.47l-4.91,3.25a4.13,4.13,0,1,1-4.57-6.88l0,0h0l4.88-3.19,0,0a4.11,4.11,0,0,1,4.52,6.87Z" class="cls-82" transform="translate(-144.81 -105)"/><path d="M956.71,1230.18l-5,3.12a4.19,4.19,0,1,1-4.45-7.11h0l0,0,5-3.06,0,0a4.18,4.18,0,0,1,4.41,7.1Z" class="cls-83" transform="translate(-144.81 -105)"/><path d="M940,1240.44l-5.09,3a4.24,4.24,0,1,1-4.29-7.32h0l0,0,5-2.93,0,0a4.24,4.24,0,0,1,4.27,7.32Z" class="cls-84" transform="translate(-144.81 -105)"/><path d="M922.89,1250.21l-5.18,2.83a4.28,4.28,0,1,1-4.11-7.51h0l0,0,5.12-2.77,0,0a4.27,4.27,0,0,1,4.09,7.5Z" class="cls-85" transform="translate(-144.81 -105)"/><path d="M905.54,1259.47l-5.26,2.68a4.32,4.32,0,1,1-3.92-7.7h0l0,0,5.2-2.62h0a4.3,4.3,0,0,1,3.89,7.68Z" class="cls-86" transform="translate(-144.81 -105)"/><path d="M887.9,1268.2l-5.35,2.51a4.36,4.36,0,0,1-3.7-7.89h0l0,0,5.29-2.45,0,0a4.35,4.35,0,0,1,3.67,7.88Z" class="cls-87" transform="translate(-144.81 -105)"/><path d="M870,1276.35l-5.44,2.33a4.39,4.39,0,0,1-3.46-8.08h.06l5.36-2.28h0a4.38,4.38,0,0,1,3.44,8.06Z" class="cls-88" transform="translate(-144.81 -105)"/><path d="M851.78,1283.88l-5.51,2.14a4.43,4.43,0,0,1-3.2-8.26h0l0,0,5.43-2.08h0a4.42,4.42,0,0,1,3.18,8.24Z" class="cls-89" transform="translate(-144.81 -105)"/><path d="M833.33,1290.76l-5.58,1.93a4.47,4.47,0,0,1-2.92-8.44h.06l5.5-1.88h0a4.45,4.45,0,0,1,2.9,8.42Z" class="cls-90" transform="translate(-144.81 -105)"/><path d="M814.63,1297l-5.66,1.72a4.5,4.5,0,0,1-2.61-8.62h0l0,0,5.56-1.66,0,0a4.49,4.49,0,0,1,2.6,8.6Z" class="cls-91" transform="translate(-144.81 -105)"/><path d="M795.69,1302.42l-5.72,1.49a4.54,4.54,0,1,1-2.29-8.79h.07l5.62-1.44h0a4.53,4.53,0,0,1,2.27,8.77Z" class="cls-92" transform="translate(-144.81 -105)"/><path d="M776.54,1307.11l-5.78,1.26a4.58,4.58,0,0,1-1.94-8.95h.07l5.68-1.21,0,0a4.57,4.57,0,0,1,1.92,8.93Z" class="cls-93" transform="translate(-144.81 -105)"/><path d="M757.2,1311l-5.84,1a4.61,4.61,0,1,1-1.56-9.09h0l.06,0,5.72-1h.06a4.6,4.6,0,0,1,1.54,9.08Z" class="cls-94" transform="translate(-144.81 -105)"/><path d="M737.68,1314l-5.88.74a4.66,4.66,0,0,1-1.15-9.24h.08l5.76-.7h.06a4.64,4.64,0,0,1,1.13,9.21Z" class="cls-95" transform="translate(-144.81 -105)"/><path d="M718.05,1316.15l-5.91.46a4.69,4.69,0,0,1-.73-9.35h.08l5.78-.43h.06a4.68,4.68,0,0,1,.72,9.33Z" class="cls-96" transform="translate(-144.81 -105)"/><path d="M698.33,1317.37l-5.93.19a4.73,4.73,0,0,1-.29-9.45h.08L698,1308h.07a4.71,4.71,0,0,1,.28,9.42Z" class="cls-97" transform="translate(-144.81 -105)"/><path d="M678.57,1317.67l-5.93-.1a4.76,4.76,0,0,1,.15-9.52h.09l5.79.12h.07a4.75,4.75,0,0,1-.17,9.5Z" class="cls-98" transform="translate(-144.81 -105)"/><path d="M658.82,1317l-5.92-.38a4.8,4.8,0,1,1,.61-9.58h.09l5.77.39h.07a4.79,4.79,0,0,1-.62,9.56Z" class="cls-99" transform="translate(-144.81 -105)"/><path d="M639.11,1315.42l-5.9-.67a4.84,4.84,0,1,1,1.09-9.61h.1l5.74.68h.08a4.82,4.82,0,0,1-1.11,9.58Z" class="cls-100" transform="translate(-144.81 -105)"/><path d="M619.49,1312.84l-5.85-1a4.88,4.88,0,0,1,1.59-9.62h.09l5.71,1h.07a4.86,4.86,0,0,1-1.61,9.59Z" class="cls-101" transform="translate(-144.81 -105)"/><path d="M600,1309.24l-5.8-1.27a4.91,4.91,0,1,1,2.11-9.59h0l.08,0,5.64,1.26.08,0a4.9,4.9,0,0,1-2.13,9.56Z" class="cls-102" transform="translate(-144.81 -105)"/><path d="M580.78,1304.62l-5.73-1.6a4.95,4.95,0,1,1,2.65-9.53h0l.08,0,5.56,1.57.08,0a4.94,4.94,0,0,1-2.66,9.51Z" class="cls-103" transform="translate(-144.81 -105)"/><path d="M561.79,1298.93l-5.62-1.91a5,5,0,1,1,3.2-9.44h0l.08,0,5.46,1.88.08,0a5,5,0,0,1-3.22,9.4Z" class="cls-104" transform="translate(-144.81 -105)"/><path d="M543.16,1292.18l-5.51-2.24a5,5,0,0,1,3.78-9.31h0l.09,0,5.34,2.2.08,0a5,5,0,0,1-3.79,9.28Z" class="cls-105" transform="translate(-144.81 -105)"/><path d="M524.94,1284.32l-5.37-2.57a5.06,5.06,0,1,1,4.37-9.12h0l.09,0,5.19,2.51.08,0a5,5,0,0,1-4.37,9.09Z" class="cls-106" transform="translate(-144.81 -105)"/><path d="M507.23,1275.37l-5.2-2.89a5.09,5.09,0,0,1,5-8.9h0l.09.05,5,2.82.08,0a5.08,5.08,0,0,1-5,8.87Z" class="cls-107" transform="translate(-144.81 -105)"/><path d="M490.11,1265.33l-5-3.24a5.12,5.12,0,0,1,5.56-8.6h0l.09,0,4.83,3.13.09.06a5.12,5.12,0,0,1-5.56,8.59Z" class="cls-108" transform="translate(-144.81 -105)"/><path d="M473.67,1254.17l-4.79-3.55a5.13,5.13,0,1,1,6.12-8.24h0l.08.06,4.62,3.44.08.06a5.13,5.13,0,0,1-6.12,8.23Z" class="cls-109" transform="translate(-144.81 -105)"/><path d="M458,1242l-4.55-3.85a5.14,5.14,0,0,1,6.65-7.85h0l.07.07,4.4,3.73.07.06A5.14,5.14,0,0,1,458,1242Z" class="cls-110" transform="translate(-144.81 -105)"/><path d="M443.13,1228.8l-4.3-4.13a5.16,5.16,0,0,1,7.15-7.43h0l.07.07,4.15,4,.07.07a5.15,5.15,0,1,1-7.14,7.42Z" class="cls-111" transform="translate(-144.81 -105)"/><path d="M429.11,1214.74l-4-4.38a5.17,5.17,0,0,1,7.6-7h0l.06.07,3.9,4.25.07.07a5.17,5.17,0,1,1-7.61,7Z" class="cls-112" transform="translate(-144.81 -105)"/><path d="M416,1199.87l-3.76-4.61a5.18,5.18,0,0,1,8-6.56h0l.06.07,3.65,4.47.05.07a5.18,5.18,0,1,1-8,6.55Z" class="cls-113" transform="translate(-144.81 -105)"/><path d="M403.75,1184.26l-3.49-4.82a5.19,5.19,0,1,1,8.4-6.1h0l.05.07,3.38,4.68,0,.07a5.19,5.19,0,0,1-8.4,6.09Z" class="cls-114" transform="translate(-144.81 -105)"/><path d="M392.43,1168l-3.22-5a5.2,5.2,0,1,1,8.75-5.63h0l0,.08,3.12,4.86.05.07a5.2,5.2,0,1,1-8.75,5.62Z" class="cls-115" transform="translate(-144.81 -105)"/><path d="M382,1151.11l-2.94-5.16a5.22,5.22,0,1,1,9.07-5.16h0l0,.07,2.85,5,0,.07a5.22,5.22,0,0,1-9.07,5.15Z" class="cls-116" transform="translate(-144.81 -105)"/><path d="M372.54,1133.72l-2.67-5.31a5.23,5.23,0,1,1,9.35-4.69h0l0,.07,2.58,5.17,0,.07a5.22,5.22,0,1,1-9.34,4.68Z" class="cls-117" transform="translate(-144.81 -105)"/><path d="M364,1115.87l-2.39-5.44a5.24,5.24,0,1,1,9.6-4.22h0l0,.07,2.32,5.29,0,.08a5.24,5.24,0,0,1-9.6,4.21Z" class="cls-118" transform="translate(-144.81 -105)"/><path d="M356.33,1097.6l-2.12-5.55a5.25,5.25,0,1,1,9.82-3.74h0l0,.07,2.05,5.41,0,.07a5.25,5.25,0,1,1-9.81,3.73Z" class="cls-119" transform="translate(-144.81 -105)"/><path d="M349.6,1079l-1.84-5.65a5.26,5.26,0,0,1,10-3.26h0l0,.07,1.78,5.5,0,.07a5.26,5.26,0,0,1-10,3.26Z" class="cls-120" transform="translate(-144.81 -105)"/><path d="M343.78,1060.07l-1.56-5.73a5.28,5.28,0,1,1,10.18-2.79h0l0,.07,1.52,5.59,0,.07a5.28,5.28,0,0,1-10.18,2.78Z" class="cls-121" transform="translate(-144.81 -105)"/><path d="M338.88,1040.89l-1.29-5.79a5.29,5.29,0,1,1,10.33-2.3h0l0,.08,1.25,5.65v.07a5.29,5.29,0,0,1-10.32,2.29Z" class="cls-122" transform="translate(-144.81 -105)"/><path d="M334.9,1021.51l-1-5.85a5.3,5.3,0,1,1,10.45-1.81h0l0,.08,1,5.7v.07a5.3,5.3,0,0,1-10.44,1.81Z" class="cls-123" transform="translate(-144.81 -105)"/><path d="M331.84,1002l-.74-5.89a5.32,5.32,0,0,1,10.55-1.32h0v.08l.71,5.74v.08a5.31,5.31,0,0,1-10.54,1.31Z" class="cls-124" transform="translate(-144.81 -105)"/><path d="M329.7,982.29l-.46-5.92a5.33,5.33,0,0,1,10.62-.83h0v.08l.44,5.77v.07a5.33,5.33,0,0,1-10.62.82Z" class="cls-125" transform="translate(-144.81 -105)"/><path d="M328.5,962.53l-.17-5.94a5.34,5.34,0,1,1,10.67-.32h0v.08l.17,5.79v.07a5.34,5.34,0,0,1-10.67.31Z" class="cls-126" transform="translate(-144.81 -105)"/><path d="M328.25,942.72l.11-5.94a5.35,5.35,0,1,1,10.7.2h0v.08l-.12,5.78v.08a5.35,5.35,0,0,1-10.69-.21Z" class="cls-127" transform="translate(-144.81 -105)"/><path d="M328.94,923l.38-5.92a5.36,5.36,0,0,1,10.7.68h0v.07l-.38,5.78v.07a5.36,5.36,0,0,1-10.7-.69Z" class="cls-128" transform="translate(-144.81 -105)"/><path d="M330.5,903.25l.63-5.89a5.38,5.38,0,1,1,10.69,1.14h0v.06l-.62,5.76v.07a5.37,5.37,0,0,1-10.68-1.15Z" class="cls-129" transform="translate(-144.81 -105)"/><path d="M332.88,883.64l.88-5.87a5.38,5.38,0,0,1,10.65,1.59h0v.06l-.86,5.73v.07a5.38,5.38,0,0,1-10.65-1.59Z" class="cls-130" transform="translate(-144.81 -105)"/><path d="M336.07,864.14l1.11-5.82a5.4,5.4,0,0,1,10.61,2h0v.06l-1.1,5.69v.07a5.4,5.4,0,0,1-10.6-2Z" class="cls-131" transform="translate(-144.81 -105)"/><path d="M340,844.79l1.33-5.77a5.41,5.41,0,0,1,10.55,2.44h0l0,.06-1.31,5.65,0,.06A5.41,5.41,0,0,1,340,844.79Z" class="cls-132" transform="translate(-144.81 -105)"/><path d="M344.75,825.62l1.55-5.71a5.42,5.42,0,0,1,10.47,2.84h0l0,.06-1.53,5.59v.06a5.42,5.42,0,0,1-10.46-2.85Z" class="cls-133" transform="translate(-144.81 -105)"/><path d="M350.18,806.64l1.76-5.65a5.44,5.44,0,0,1,10.38,3.24h0l0,0-1.74,5.54v.06a5.43,5.43,0,1,1-10.37-3.25Z" class="cls-134" transform="translate(-144.81 -105)"/><path d="M356.29,787.88l2-5.58a5.45,5.45,0,0,1,10.28,3.61h0l0,.05-1.93,5.48,0,0a5.44,5.44,0,0,1-10.27-3.62Z" class="cls-135" transform="translate(-144.81 -105)"/><path d="M363.05,769.36l2.15-5.52a5.47,5.47,0,0,1,10.18,4h0l0,0-2.11,5.41,0,.05a5.46,5.46,0,0,1-10.17-4Z" class="cls-136" transform="translate(-144.81 -105)"/><path d="M370.44,751.07l2.33-5.43A5.47,5.47,0,1,1,382.83,750h0l0,0-2.3,5.33,0,0a5.47,5.47,0,0,1-10.05-4.32Z" class="cls-137" transform="translate(-144.81 -105)"/><path d="M378.42,733l2.5-5.35a5.49,5.49,0,1,1,9.94,4.65h0l0,0-2.46,5.26,0,0a5.48,5.48,0,1,1-9.92-4.65Z" class="cls-138" transform="translate(-144.81 -105)"/><path d="M387,715.28l2.67-5.27a5.5,5.5,0,0,1,9.81,5h0l0,0-2.63,5.18,0,0a5.49,5.49,0,0,1-9.8-5Z" class="cls-139" transform="translate(-144.81 -105)"/><path d="M396,697.81l2.82-5.2a5.51,5.51,0,0,1,9.68,5.27h0l0,0-2.78,5.1,0,.05a5.5,5.5,0,0,1-9.66-5.27Z" class="cls-140" transform="translate(-144.81 -105)"/><path d="M405.63,680.59l3-5.1a5.51,5.51,0,1,1,9.51,5.56v0l-2.93,5,0,0a5.51,5.51,0,1,1-9.53-5.55Z" class="cls-141" transform="translate(-144.81 -105)"/><path d="M415.74,663.69l3.13-5a5.49,5.49,0,1,1,9.32,5.8l0,0-3.07,5,0,0a5.49,5.49,0,0,1-9.34-5.79Z" class="cls-142" transform="translate(-144.81 -105)"/><path d="M426.32,647.07l3.26-4.93a5.47,5.47,0,1,1,9.12,6v0l-3.2,4.86,0,0a5.47,5.47,0,1,1-9.14-6Z" class="cls-143" transform="translate(-144.81 -105)"/><path d="M437.34,630.76l3.39-4.84a5.45,5.45,0,0,1,8.92,6.26v0L446.31,637l0,0a5.46,5.46,0,0,1-8.95-6.24Z" class="cls-144" transform="translate(-144.81 -105)"/><path d="M448.78,614.75,452.3,610a5.43,5.43,0,1,1,8.73,6.46l0,0-3.46,4.69,0,0a5.43,5.43,0,0,1-8.74-6.45Z" class="cls-145" transform="translate(-144.81 -105)"/><path d="M460.64,599l3.63-4.65A5.41,5.41,0,0,1,472.8,601l0,0-3.57,4.59,0,0a5.42,5.42,0,0,1-8.55-6.65Z" class="cls-146" transform="translate(-144.81 -105)"/><path d="M472.89,583.63l3.74-4.56a5.39,5.39,0,1,1,8.33,6.84l0,0-3.69,4.51,0,0a5.39,5.39,0,1,1-8.35-6.83Z" class="cls-147" transform="translate(-144.81 -105)"/><path d="M485.5,568.54l3.86-4.48a5.37,5.37,0,0,1,8.13,7l0,0-3.8,4.43,0,0a5.38,5.38,0,0,1-8.15-7Z" class="cls-148" transform="translate(-144.81 -105)"/><path d="M498.49,553.75l4-4.37a5.35,5.35,0,1,1,7.92,7.18l0,0-3.9,4.32,0,0a5.35,5.35,0,1,1-7.94-7.17Z" class="cls-149" transform="translate(-144.81 -105)"/><path d="M511.83,539.3l4.08-4.27a5.32,5.32,0,1,1,7.7,7.35l0,0-4,4.22,0,0a5.33,5.33,0,0,1-7.73-7.34Z" class="cls-150" transform="translate(-144.81 -105)"/><path d="M525.53,525.18l4.19-4.16a5.3,5.3,0,0,1,7.48,7.51l0,0-4.11,4.12,0,0a5.31,5.31,0,0,1-7.51-7.51Z" class="cls-151" transform="translate(-144.81 -105)"/><path d="M539.59,511.42l4.29-4.06a5.28,5.28,0,1,1,7.26,7.67l0,0-4.22,4,0,0a5.28,5.28,0,1,1-7.28-7.66Z" class="cls-152" transform="translate(-144.81 -105)"/><path d="M554,498l4.39-3.95a5.26,5.26,0,0,1,7,7.83l0,0-4.32,3.9,0,0a5.26,5.26,0,1,1-7-7.82Z" class="cls-153" transform="translate(-144.81 -105)"/><path d="M568.76,485l4.5-3.83a5.24,5.24,0,0,1,6.79,8l0,0L575.6,493l0,0a5.24,5.24,0,0,1-6.82-8Z" class="cls-154" transform="translate(-144.81 -105)"/><path d="M583.86,472.39l4.6-3.7a5.22,5.22,0,1,1,6.55,8.12l0,0-4.52,3.66,0,0a5.23,5.23,0,1,1-6.58-8.12Z" class="cls-155" transform="translate(-144.81 -105)"/><path d="M599.3,460.19l4.7-3.58a5.2,5.2,0,0,1,6.3,8.27l0,0-4.62,3.54,0,0a5.2,5.2,0,1,1-6.33-8.26Z" class="cls-156" transform="translate(-144.81 -105)"/><path d="M615.08,448.42l4.8-3.45a5.17,5.17,0,1,1,6,8.4l0,0-4.72,3.41,0,0a5.18,5.18,0,0,1-6.06-8.41Z" class="cls-157" transform="translate(-144.81 -105)"/><path d="M631.18,437.09l4.9-3.31a5.16,5.16,0,1,1,5.78,8.54l0,0L637,445.61l0,0a5.16,5.16,0,1,1-5.8-8.54Z" class="cls-158" transform="translate(-144.81 -105)"/><path d="M647.62,426.22l5-3.16a5.13,5.13,0,1,1,5.5,8.67l0,0-4.91,3.12,0,0a5.14,5.14,0,1,1-5.53-8.67Z" class="cls-159" transform="translate(-144.81 -105)"/><path d="M664.36,415.85l5.08-3a5.12,5.12,0,0,1,5.22,8.8l0,0-5,3,0,0a5.12,5.12,0,0,1-5.25-8.8Z" class="cls-160" transform="translate(-144.81 -105)"/><path d="M681.42,406l5.17-2.85a5.05,5.05,0,0,1,4.9,8.84l0,0-5.08,2.84,0,0a5.07,5.07,0,1,1-4.94-8.86Z" class="cls-161" transform="translate(-144.81 -105)"/><path d="M698.77,396.71,704,394a5,5,0,0,1,4.57,8.88l0,0-5.16,2.68,0,0a5,5,0,0,1-4.61-8.9Z" class="cls-162" transform="translate(-144.81 -105)"/><path d="M716.4,388l5.34-2.51a4.93,4.93,0,0,1,4.23,8.9l0,0-5.24,2.51,0,0a4.95,4.95,0,0,1-4.28-8.92Z" class="cls-163" transform="translate(-144.81 -105)"/><path d="M734.31,379.76l5.42-2.34a4.87,4.87,0,0,1,3.89,8.92l0,0-5.31,2.34,0,0a4.88,4.88,0,0,1-3.93-8.94Z" class="cls-164" transform="translate(-144.81 -105)"/><path d="M752.46,372.16,758,370a4.8,4.8,0,0,1,3.55,8.92l0,0-5.39,2.16-.05,0a4.82,4.82,0,0,1-3.58-8.95Z" class="cls-165" transform="translate(-144.81 -105)"/><path d="M770.87,365.16l5.57-2a4.74,4.74,0,0,1,3.2,8.92l0,0-5.47,2,0,0a4.76,4.76,0,1,1-3.25-8.95Z" class="cls-166" transform="translate(-144.81 -105)"/><path d="M789.51,358.79l5.65-1.79a4.68,4.68,0,0,1,2.85,8.91h0l-5.54,1.79,0,0a4.69,4.69,0,1,1-2.89-8.93Z" class="cls-167" transform="translate(-144.81 -105)"/><path d="M808.38,353.07l5.69-1.58a4.61,4.61,0,0,1,2.5,8.88h-.05L810.93,362l0,0a4.63,4.63,0,1,1-2.54-8.91Z" class="cls-168" transform="translate(-144.81 -105)"/><path d="M827.42,348l5.74-1.38a4.55,4.55,0,0,1,2.16,8.84h-.05l-5.64,1.39,0,0a4.57,4.57,0,0,1-2.19-8.87Z" class="cls-169" transform="translate(-144.81 -105)"/><path d="M846.63,343.66l5.79-1.17a4.48,4.48,0,0,1,1.81,8.78h0l-5.69,1.2h0a4.5,4.5,0,1,1-1.85-8.81Z" class="cls-170" transform="translate(-144.81 -105)"/><path d="M866,340l5.83-1a4.42,4.42,0,0,1,1.49,8.71h0l-5.73,1h0A4.44,4.44,0,1,1,866,340Z" class="cls-171" transform="translate(-144.81 -105)"/><path d="M885.44,337l5.86-.76a4.36,4.36,0,0,1,1.15,8.64h0l-5.77.79h0a4.38,4.38,0,0,1-1.19-8.68Z" class="cls-172" transform="translate(-144.81 -105)"/><path d="M905,334.68l5.88-.55a4.3,4.3,0,0,1,.83,8.55h-.05l-5.78.58h0a4.32,4.32,0,0,1-.86-8.59Z" class="cls-173" transform="translate(-144.81 -105)"/><path d="M924.63,333.09l5.89-.34a4.23,4.23,0,0,1,.52,8.45h0l-5.8.37h-.05a4.25,4.25,0,1,1-.54-8.48Z" class="cls-174" transform="translate(-144.81 -105)"/><path d="M944.3,332.23l5.9-.11a4.14,4.14,0,0,1,.21,8.27h0l-5.82.17h0a4.17,4.17,0,1,1-.25-8.33Z" class="cls-175" transform="translate(-144.81 -105)"/><path d="M964,332.12l5.9.11a4,4,0,0,1-.1,8.06h0l-5.81-.05h0a4.06,4.06,0,1,1,.07-8.12Z" class="cls-176" transform="translate(-144.81 -105)"/><path d="M983.67,332.74l5.89.34a3.92,3.92,0,0,1-.39,7.84h0l-5.81-.27h0a4,4,0,1,1,.37-7.91Z" class="cls-177" transform="translate(-144.81 -105)"/><path d="M1003.31,334.11l5.88.56a3.83,3.83,0,0,1-.68,7.62h0l-5.81-.49h0a3.86,3.86,0,0,1,.65-7.69Z" class="cls-178" transform="translate(-144.81 -105)"/><path d="M1022.88,336.24l5.86.79a3.72,3.72,0,0,1-1,7.38h0l-5.77-.72h-.05a3.75,3.75,0,0,1,.92-7.45Z" class="cls-179" transform="translate(-144.81 -105)"/><path d="M1042.36,339.14l5.81,1a3.62,3.62,0,0,1-1.21,7.14h0l-5.74-1h0a3.65,3.65,0,0,1,1.19-7.21Z" class="cls-180" transform="translate(-144.81 -105)"/><path d="M1061.69,342.81l5.76,1.26A3.52,3.52,0,0,1,1066,351h0l-5.69-1.18h0a3.54,3.54,0,1,1,1.43-6.94Z" class="cls-181" transform="translate(-144.81 -105)"/><path d="M1080.85,347.27l5.71,1.49a3.41,3.41,0,0,1-1.69,6.61h0l-5.64-1.41h0a3.44,3.44,0,1,1,1.67-6.68Z" class="cls-182" transform="translate(-144.81 -105)"/><path d="M1099.81,352.52l5.63,1.74a3.3,3.3,0,0,1-1.9,6.32h0l-5.57-1.64h0a3.34,3.34,0,0,1,1.89-6.41Z" class="cls-183" transform="translate(-144.81 -105)"/><path d="M1118.52,358.61l5.55,2a3.16,3.16,0,0,1-2.08,6l0,0-5.5-1.87h0a3.21,3.21,0,0,1,2.06-6.07Z" class="cls-184" transform="translate(-144.81 -105)"/><path d="M1136.94,365.5l5.46,2.22a3,3,0,0,1-2.23,5.61h0l-5.42-2.12h0a3.07,3.07,0,0,1,2.23-5.71Z" class="cls-185" transform="translate(-144.81 -105)"/><path d="M1332.71,353.67l5.35-2.53a3,3,0,1,1,2.54,5.36h0l-.06,0-5.28,2.42,0,0a2.93,2.93,0,0,1-2.48-5.31Z" class="cls-4" transform="translate(-144.81 -105)"/><path d="M1350.71,345.6l5.49-2.2a3.09,3.09,0,0,1,2.31,5.74h0l-.06,0-5.42,2.1,0,0a3.06,3.06,0,0,1-2.24-5.69Z" class="cls-4" transform="translate(-144.81 -105)"/><path d="M1369.17,338.65l5.61-1.87a3.21,3.21,0,1,1,2,6.1h0l-.07,0-5.53,1.76,0,0a3.18,3.18,0,0,1-2-6Z" class="cls-4" transform="translate(-144.81 -105)"/><path d="M1388,332.81l5.72-1.53a3.34,3.34,0,1,1,1.72,6.46h-.1l-5.62,1.43-.06,0a3.31,3.31,0,0,1-1.66-6.4Z" class="cls-4" transform="translate(-144.81 -105)"/><path d="M1407.19,328.12l5.81-1.18a3.46,3.46,0,0,1,1.38,6.79h0l-.08,0-5.7,1.08-.06,0a3.43,3.43,0,0,1-1.33-6.73Z" class="cls-4" transform="translate(-144.81 -105)"/><path d="M1426.62,324.59l5.87-.83a3.59,3.59,0,0,1,1,7.11h-.11l-5.75.74h-.07a3.55,3.55,0,0,1-1-7Z" class="cls-4" transform="translate(-144.81 -105)"/><path d="M1446.24,322.24l5.91-.48a3.72,3.72,0,0,1,.59,7.41h-.11l-5.78.38h-.07a3.67,3.67,0,0,1-.54-7.33Z" class="cls-4" transform="translate(-144.81 -105)"/><path d="M1466,321.11l5.93-.1a3.8,3.8,0,1,1,.12,7.59h-.09l-5.8,0h-.07a3.77,3.77,0,0,1-.09-7.54Z" class="cls-4" transform="translate(-144.81 -105)"/><path d="M1485.75,321.23l5.93.29a3.86,3.86,0,0,1-.37,7.72h-.1l-5.78-.32h-.08a3.85,3.85,0,0,1,.4-7.68Z" class="cls-4" transform="translate(-144.81 -105)"/><path d="M1505.48,322.63l5.9.66a3.93,3.93,0,1,1-.88,7.82h-.1l-5.74-.69h-.08a3.91,3.91,0,0,1,.9-7.77Z" class="cls-4" transform="translate(-144.81 -105)"/><path d="M1525.1,325.29l5.84,1a4,4,0,1,1-1.41,7.88h0l-.08,0-5.69-1.06h-.07a4,4,0,0,1,1.43-7.83Z" class="cls-4" transform="translate(-144.81 -105)"/><path d="M1544.5,329.22l5.77,1.43a4.07,4.07,0,1,1-2,7.9h0l-.08,0-5.6-1.43-.08,0a4.05,4.05,0,0,1,2-7.86Z" class="cls-4" transform="translate(-144.81 -105)"/><path d="M1563.61,334.43l5.67,1.82a4.14,4.14,0,1,1-2.53,7.89h0l-.08,0-5.49-1.8-.08,0a4.12,4.12,0,0,1,2.54-7.84Z" class="cls-4" transform="translate(-144.81 -105)"/><path d="M1582.34,340.94l5.53,2.21a4.21,4.21,0,0,1-3.12,7.83h0l-.08,0-5.36-2.18-.08,0a4.19,4.19,0,0,1,3.14-7.78Z" class="cls-4" transform="translate(-144.81 -105)"/><path d="M1600.59,348.76l5.36,2.61a4.28,4.28,0,1,1-3.74,7.7h0l-.09-.05-5.17-2.55-.08,0a4.26,4.26,0,0,1,3.75-7.66Z" class="cls-4" transform="translate(-144.81 -105)"/><path d="M1618.2,357.92l5.14,3a4.31,4.31,0,1,1-4.35,7.44h0l-.08-.05-5-2.92-.08-.05a4.3,4.3,0,0,1,4.35-7.42Z" class="cls-4" transform="translate(-144.81 -105)"/><path d="M1635.07,368.39l4.9,3.4a4.33,4.33,0,1,1-4.94,7.12h0l-.08-.06-4.72-3.29-.09-.06a4.33,4.33,0,0,1,4.94-7.11Z" class="cls-4" transform="translate(-144.81 -105)"/><path d="M1651.08,380.17l4.62,3.78a4.36,4.36,0,1,1-5.53,6.74h0l-.09-.06-4.44-3.66-.08-.07a4.35,4.35,0,0,1,5.52-6.72Z" class="cls-4" transform="translate(-144.81 -105)"/><path d="M1666.1,393.23l4.28,4.16a4.38,4.38,0,1,1-6.11,6.28h0l-.08-.08-4.11-4-.08-.08a4.37,4.37,0,0,1,6.11-6.26Z" class="cls-4" transform="translate(-144.81 -105)"/><path d="M1680,407.53l3.91,4.51a4.4,4.4,0,1,1-6.65,5.77h0l-.07-.08-3.76-4.36-.07-.08a4.4,4.4,0,0,1,6.65-5.75Z" class="cls-4" transform="translate(-144.81 -105)"/><path d="M1692.54,423l3.51,4.83a4.42,4.42,0,1,1-7.15,5.21h0l-.06-.09-3.38-4.65-.06-.09a4.42,4.42,0,1,1,7.15-5.2Z" class="cls-4" transform="translate(-144.81 -105)"/><path d="M1703.78,439.37l3.1,5.11a4.45,4.45,0,0,1-7.6,4.62h0l-.06-.1-3-4.92-.06-.09a4.44,4.44,0,0,1,7.6-4.61Z" class="cls-4" transform="translate(-144.81 -105)"/><path d="M1713.61,456.7l2.65,5.35a4.47,4.47,0,0,1-8,4h0l0-.1-2.54-5.15-.05-.11a4.47,4.47,0,0,1,8-3.95Z" class="cls-4" transform="translate(-144.81 -105)"/><path d="M1721.92,474.8l2.18,5.57a4.49,4.49,0,1,1-8.37,3.28h0l0-.11-2.08-5.35,0-.11a4.49,4.49,0,0,1,8.37-3.27Z" class="cls-4" transform="translate(-144.81 -105)"/><path d="M1728.61,493.58l1.67,5.75a4.52,4.52,0,1,1-8.67,2.53h0l0-.12-1.59-5.51,0-.12a4.51,4.51,0,0,1,8.67-2.52Z" class="cls-4" transform="translate(-144.81 -105)"/><path d="M1733.57,512.91l1.14,5.87a4.54,4.54,0,1,1-8.92,1.73h0l0-.13-1.07-5.63,0-.12a4.53,4.53,0,1,1,8.9-1.71Z" class="cls-4" transform="translate(-144.81 -105)"/><path d="M1736.67,532.63l.55,6a4.52,4.52,0,0,1-9,.83v-.13l-.54-5.7v-.13a4.53,4.53,0,0,1,9-.85Z" class="cls-4" transform="translate(-144.81 -105)"/><path d="M1737.81,552.58l-.06,6a4.5,4.5,0,1,1-9-.08v-.13l0-5.72v-.14a4.51,4.51,0,0,1,9,.06Z" class="cls-4" transform="translate(-144.81 -105)"/><path d="M1736.91,572.54l-.65,6a4.48,4.48,0,1,1-8.9-1v-.12l.61-5.7,0-.12a4.48,4.48,0,1,1,8.91.95Z" class="cls-4" transform="translate(-144.81 -105)"/><path d="M1734.09,592.29l-1.19,5.85a4.45,4.45,0,1,1-8.73-1.77l0-.11,1.13-5.63,0-.11a4.46,4.46,0,1,1,8.75,1.76Z" class="cls-4" transform="translate(-144.81 -105)"/><path d="M1729.56,611.66l-1.67,5.72a4.43,4.43,0,1,1-8.51-2.47l0-.09,1.6-5.53,0-.1a4.44,4.44,0,1,1,8.53,2.46Z" class="cls-4" transform="translate(-144.81 -105)"/><path d="M1723.53,630.57l-2.06,5.57a4.41,4.41,0,0,1-8.28-3l0-.08,2-5.41,0-.09a4.42,4.42,0,0,1,8.29,3Z" class="cls-4" transform="translate(-144.81 -105)"/><path d="M1716.27,649l-2.38,5.43a4.39,4.39,0,0,1-8-3.52l0,0,2.31-5.31,0-.07a4.4,4.4,0,0,1,8.06,3.51Z" class="cls-4" transform="translate(-144.81 -105)"/><path d="M1708,666.93l-2.63,5.3a4.36,4.36,0,0,1-7.82-3.88l0,0,2.56-5.21,0-.05a4.37,4.37,0,1,1,7.84,3.87Z" class="cls-4" transform="translate(-144.81 -105)"/><path d="M1699.05,684.46l-2.81,5.19a4.34,4.34,0,1,1-7.64-4.13v0l2.76-5.13,0,0a4.35,4.35,0,0,1,7.66,4.12Z" class="cls-4" transform="translate(-144.81 -105)"/><path d="M1689.54,701.66l-2.94,5.11a4.32,4.32,0,0,1-7.5-4.3h0l2.9-5.08v0a4.33,4.33,0,1,1,7.52,4.29Z" class="cls-4" transform="translate(-144.81 -105)"/><path d="M1679.68,718.62l-3,5a4.3,4.3,0,1,1-7.4-4.39h0l3-5h0a4.31,4.31,0,0,1,7.42,4.38Z" class="cls-4" transform="translate(-144.81 -105)"/><path d="M1669.66,735.42l-3,5a4.25,4.25,0,0,1-7.3-4.36l3-5.05a4.27,4.27,0,0,1,7.35,4.36Z" class="cls-4" transform="translate(-144.81 -105)"/><path d="M1659.6,752.15l-3,5h0a4.19,4.19,0,0,1-7.21-4.26l3-5.07a4.21,4.21,0,1,1,7.26,4.26v0Z" class="cls-4" transform="translate(-144.81 -105)"/><path d="M1649.71,768.94,1646.8,774v0a4.12,4.12,0,0,1-7.16-4.09l2.9-5.12a4.14,4.14,0,0,1,7.21,4.08l0,0Z" class="cls-4" transform="translate(-144.81 -105)"/><path d="M1640.15,785.87l-2.78,5.12,0,0a4.05,4.05,0,0,1-7.14-3.84L1633,782a4.08,4.08,0,0,1,7.19,3.84v0Z" class="cls-4" transform="translate(-144.81 -105)"/><path d="M1631.09,803l-2.6,5.21,0,0a4,4,0,0,1-7.14-3.53l2.59-5.31a4,4,0,0,1,7.2,3.53v0Z" class="cls-4" transform="translate(-144.81 -105)"/><path d="M1622.72,820.48l-2.35,5.31,0,.05a3.92,3.92,0,0,1-7.18-3.14l2.35-5.43a3.94,3.94,0,1,1,7.23,3.13v0Z" class="cls-4" transform="translate(-144.81 -105)"/><path d="M1615.24,838.3l-2,5.42,0,.07a3.85,3.85,0,0,1-7.22-2.69l2-5.57a3.87,3.87,0,1,1,7.27,2.68v0Z" class="cls-4" transform="translate(-144.81 -105)"/><path d="M1608.88,856.5l-1.66,5.53,0,.08a3.79,3.79,0,0,1-7.26-2.15l1.67-5.7a3.81,3.81,0,1,1,7.31,2.13v0Z" class="cls-4" transform="translate(-144.81 -105)"/><path d="M1603.84,875.07l-1.2,5.61,0,.12a3.7,3.7,0,0,1-7.25-1.5l1.18-5.87a3.74,3.74,0,1,1,7.33,1.47v0Z" class="cls-4" transform="translate(-144.81 -105)"/><path d="M1600.68,893.85l-.41,5.66,0,.19a3.58,3.58,0,0,1-7.15-.47l.36-6a3.62,3.62,0,0,1,7.23.44v.22Z" class="cls-4" transform="translate(-144.81 -105)"/><path d="M1600.58,912.66l.77,5.54,0,.27a3.46,3.46,0,0,1-6.85,1l-.93-6.06a3.51,3.51,0,0,1,6.93-1.06v0Z" class="cls-4" transform="translate(-144.81 -105)"/><path d="M1604.93,930.62l2.36,5,.15.32a3.34,3.34,0,0,1-6,2.9l-2.73-5.58a3.38,3.38,0,0,1,6.08-3v0Z" class="cls-4" transform="translate(-144.81 -105)"/><path d="M1614.9,945.65l4.16,3.54.3.26a3.22,3.22,0,0,1-4.14,4.93l-4.82-4a3.26,3.26,0,1,1,4.16-5h0Z" class="cls-4" transform="translate(-144.81 -105)"/><path d="M1630.22,955.32l5.22,1.57.4.13a3.1,3.1,0,0,1-1.76,6l-6-1.75a3.14,3.14,0,1,1,1.74-6h0Z" class="cls-4" transform="translate(-144.81 -105)"/><path d="M1647.91,957.56a29.11,29.11,0,0,0,5.16-1.21,3,3,0,0,1,2,5.66,34.58,34.58,0,0,1-6.23,1.54,3,3,0,0,1-.92-6Z" class="cls-4" transform="translate(-144.81 -105)"/></g></svg>