<svg xmlns="http://www.w3.org/2000/svg" xmlns:xlink="http://www.w3.org/1999/xlink" viewBox="0 0 2790.09 2800"><defs><style>.cls-1{fill:url(#linear-gradient)}.cls-2{fill:#bdd0fb}.cls-20,.cls-3,.cls-5{fill:#fff}.cls-3{opacity:.43}.cls-4{fill:#91b3fa}.cls-6{fill:url(#linear-gradient-2)}.cls-7{fill:url(#linear-gradient-3)}.cls-8{fill:url(#linear-gradient-4)}.cls-9{fill:url(#linear-gradient-5)}.cls-10{fill:url(#linear-gradient-6)}.cls-11{fill:url(#linear-gradient-7)}.cls-12{fill:url(#linear-gradient-8)}.cls-13{fill:url(#linear-gradient-9)}.cls-14{fill:url(#linear-gradient-10)}.cls-15{fill:url(#linear-gradient-11)}.cls-16{fill:url(#linear-gradient-12)}.cls-17{fill:url(#linear-gradient-13)}.cls-18{fill:url(#linear-gradient-14)}.cls-19{fill:url(#linear-gradient-15)}.cls-20{opacity:.63}.cls-21{fill:url(#linear-gradient-16)}.cls-22{fill:url(#linear-gradient-17)}.cls-23{fill:url(#linear-gradient-18)}.cls-24{fill:#f79e6d}.cls-25{fill:url(#linear-gradient-19)}.cls-26{fill:url(#linear-gradient-20)}.cls-27{fill:url(#linear-gradient-21)}.cls-28{fill:url(#linear-gradient-22)}.cls-29{fill:url(#linear-gradient-23)}.cls-30{fill:url(#linear-gradient-24)}.cls-31{fill:url(#linear-gradient-25)}.cls-32{fill:url(#linear-gradient-26)}.cls-33{fill:url(#linear-gradient-27)}.cls-34{fill:url(#linear-gradient-28)}.cls-35{fill:url(#linear-gradient-29)}.cls-36{fill:url(#linear-gradient-30)}.cls-37{fill:url(#linear-gradient-31)}.cls-38{fill:url(#linear-gradient-32)}</style><linearGradient id="linear-gradient" x1="3580.32" x2="1158.92" y1="3984.82" y2="977.59" gradientUnits="userSpaceOnUse"><stop offset="0" stop-color="#dae3fe"/><stop offset="1" stop-color="#e9effd"/></linearGradient><linearGradient id="linear-gradient-2" x1="3098.08" x2="-1529.9" y1="212.87" y2="2520.15" gradientUnits="userSpaceOnUse"><stop offset="0" stop-color="#4f52ff"/><stop offset="1" stop-color="#4042e2"/></linearGradient><linearGradient id="linear-gradient-3" x1="4035.07" x2="57.69" y1="107.04" y2="2857" gradientTransform="translate(1585.81 -1298.37) rotate(45)" xlink:href="#linear-gradient-2"/><linearGradient id="linear-gradient-4" x1="3070.42" x2="2688.11" y1="-342.33" y2="522.9" gradientTransform="translate(2949.32 -1347.17) rotate(74.52)" xlink:href="#linear-gradient-2"/><linearGradient id="linear-gradient-5" x1="27.37" x2="-155.31" y1="4808.07" y2="5550.18" gradientTransform="matrix(1, 0, 0, 1, 2929.31, -4638.98)" gradientUnits="userSpaceOnUse"><stop offset="0" stop-color="#09005d"/><stop offset="1" stop-color="#1a0f91"/></linearGradient><linearGradient id="linear-gradient-6" x1="-128.39" x2="-184.21" y1="4964.06" y2="5562.85" gradientTransform="translate(-1192.26 4633.17) rotate(-135)" xlink:href="#linear-gradient-5"/><linearGradient id="linear-gradient-7" x1="3120.81" x2="74.12" y1="738.95" y2="4794.35" gradientUnits="userSpaceOnUse"><stop offset="0" stop-color="#ff928e"/><stop offset="1" stop-color="#fe7062"/></linearGradient><linearGradient id="linear-gradient-8" x1="2599.05" x2="-548.39" y1="217.13" y2="4406.62" xlink:href="#linear-gradient-7"/><linearGradient id="linear-gradient-9" x1="2428.17" x2="2416.99" y1="531.96" y2="746.59" gradientUnits="userSpaceOnUse"><stop offset="0" stop-color="#e1473d"/><stop offset="1" stop-color="#e9605a"/></linearGradient><linearGradient id="linear-gradient-10" x1="2796.22" x2="2849.87" y1="1629.24" y2="1204.45" xlink:href="#linear-gradient-7"/><linearGradient id="linear-gradient-11" x1="2430.67" x2="2417.25" y1="690.76" y2="905.39" xlink:href="#linear-gradient-9"/><linearGradient id="linear-gradient-12" x1="2685.54" x2="2533.51" y1="738.83" y2="931.11" xlink:href="#linear-gradient-7"/><linearGradient id="linear-gradient-13" x1="2828.73" x2="2915.92" y1="1175.9" y2="929.97" xlink:href="#linear-gradient-7"/><linearGradient id="linear-gradient-14" x1="3236.41" x2="2728.9" y1="1177.73" y2="1499.68" xlink:href="#linear-gradient-7"/><linearGradient id="linear-gradient-15" x1="-1298.07" x2="-1805.58" y1="6876.06" y2="7198.01" gradientTransform="matrix(-1, 0, 0, 1, 10180.2, 0)" xlink:href="#linear-gradient-7"/><linearGradient id="linear-gradient-16" x1="1354.68" x2="932.06" y1="1911.42" y2="1678.5" xlink:href="#linear-gradient-2"/><linearGradient id="linear-gradient-17" x1="1574.95" x2="1054.48" y1="1863.34" y2="2115.47" gradientUnits="userSpaceOnUse"><stop offset="0" stop-color="#febbba"/><stop offset="1" stop-color="#ff928e"/></linearGradient><linearGradient id="linear-gradient-18" x1="1577.43" x2="1056.96" y1="1868.46" y2="2120.59" xlink:href="#linear-gradient-17"/><linearGradient id="linear-gradient-19" x1="511.06" x2="592.54" y1="2687.5" y2="2687.5" gradientTransform="matrix(1, 0, 0, 1, 0, 0)" xlink:href="#linear-gradient-5"/><linearGradient id="linear-gradient-20" x1="519.2" x2="605.91" y1="2682.38" y2="2682.38" gradientTransform="matrix(1, 0, 0, 1, 0, 0)" xlink:href="#linear-gradient-5"/><linearGradient id="linear-gradient-21" x1="562.49" x2="626.25" y1="2594.7" y2="2594.7" xlink:href="#linear-gradient-17"/><linearGradient id="linear-gradient-22" x1="1493.8" x2="1615.94" y1="2394.94" y2="2394.94" gradientTransform="matrix(1, 0, 0, 1, 0, 0)" xlink:href="#linear-gradient-5"/><linearGradient id="linear-gradient-23" x1="1463.35" x2="1610.64" y1="2393.8" y2="2393.8" gradientTransform="matrix(1, 0, 0, 1, 0, 0)" xlink:href="#linear-gradient-5"/><linearGradient id="linear-gradient-24" x1="1424.31" x2="1494.36" y1="2389.54" y2="2389.54" xlink:href="#linear-gradient-17"/><linearGradient id="linear-gradient-25" x1="583.14" x2="1055.11" y1="2361.45" y2="2361.45" gradientTransform="matrix(1, 0, 0, 1, 0, 0)" xlink:href="#linear-gradient-5"/><linearGradient id="linear-gradient-26" x1="882.99" x2="1463.35" y1="2249.08" y2="2249.08" gradientTransform="matrix(1, 0, 0, 1, 0, 0)" xlink:href="#linear-gradient-5"/><linearGradient id="linear-gradient-27" x1="1081.37" x2="697.17" y1="1792.59" y2="2404.91" xlink:href="#linear-gradient-2"/><linearGradient id="linear-gradient-28" x1="929.03" x2="619.27" y1="2033.53" y2="1486.04" xlink:href="#linear-gradient-17"/><linearGradient id="linear-gradient-29" x1="1124.85" x2="1157.27" y1="1799.23" y2="1706.78" xlink:href="#linear-gradient-17"/><linearGradient id="linear-gradient-30" x1="1217.17" x2="1074.93" y1="1608.64" y2="1717.48" xlink:href="#linear-gradient-17"/><linearGradient id="linear-gradient-31" x1="1117.04" x2="1249.52" y1="1522.46" y2="1693.03" gradientTransform="matrix(1, 0, 0, 1, 0, 0)" xlink:href="#linear-gradient-5"/><linearGradient id="linear-gradient-32" x1="1199.53" x2="1057.28" y1="1585.58" y2="1694.42" xlink:href="#linear-gradient-17"/></defs><title>backgoal2</title><g id="Illustration"><path d="M2894.69,2776.6c-49.76,63.76-180.07,198-223.09,225.9-382.54,247.79-942.59,169-1065.68,144-181.77-36.92-602.07-5.86-856.09-304.58C365.52,2390,401.43,1629.83,699.53,1159.82c54.53-86,388.53-598.08,973.94-674.6,354.28-46.31,885.13,8.37,1184.2,258.93C3485.44,1270.1,3216.94,2363.66,2894.69,2776.6Z" class="cls-1" transform="translate(-459.96 -455)"/><path d="M1277.06,906.85c.14-12.07,16.4-15.93,21.91-5.19,53.25,103.84,201.39,371.74,370.78,495.47,275.81,201.47,507.46,572.52,405.16,809.82C2074.91,2207,1261.27,2221.86,1277.06,906.85Z" class="cls-2" transform="translate(-459.96 -455)"/><path d="M1330.68,1059.55c1,3.54,2.12,6.38,3.19,9.49l3.33,9.1,6.87,18.11c4.67,12,9.51,24,14.35,36q14.67,35.83,30.14,71.31c20.66,47.3,42.61,94,65.25,140.42s46.45,92.22,71.29,137.49,50.4,90.16,77.39,134.21c53.8,88.18,112.44,173.53,176.88,254.38,32.64,40.09,66.34,79.33,102.25,116.54,36.16,36.94,73.91,72.36,114.07,104.87a2,2,0,0,0,2.63-3.11l0,0a1500.28,1500.28,0,0,1-110.57-107.53c-35.1-37.57-68-77.16-99.8-117.54s-62-82.09-91.16-124.42-56.62-85.9-83.79-129.59c-54-87.63-103.27-178.1-150-269.84q-34.92-68.88-67.17-139.11-16.2-35.05-31.68-70.45l-15.17-35.53-7.39-17.83-3.6-8.94c-1.13-3-2.39-6.1-3.27-8.73l-.15-.43a2,2,0,0,0-3.85,1.2Z" class="cls-3" transform="translate(-459.96 -455)"/><path d="M1680.73,536.29c3.42-11,19.39-10.14,21.51,1.21,20.5,109.75,83.27,395.85,204.86,555.53,198,260,309.18,663.46,150.63,853.17C2057.73,1946.2,1307.51,1737.91,1680.73,536.29Z" class="cls-4" transform="translate(-459.96 -455)"/><path d="M1688.21,690.94c0,3.53.2,6.44.33,9.59l.58,9.25,1.35,18.48c1,12.31,2.17,24.6,3.34,36.89q3.68,36.86,8.17,73.62c6,49,13.41,97.85,21.51,146.58s17.43,97.24,27.86,145.54,21.62,96.43,34.35,144.19c25.28,95.55,55.79,189.81,92.83,281.54,19,45.66,39.21,90.85,62,134.77,23.09,43.73,48.06,86.51,76,127.27a2,2,0,0,0,2.76.51,2,2,0,0,0,.55-2.68v0a1433.7,1433.7,0,0,1-72-128.78c-21.94-44-41.29-89.31-59.44-135s-34.42-92.18-49.64-139-28.48-94.22-41.49-141.69c-25.6-95.08-46.11-191.49-64-288.37q-13.23-72.69-23.66-145.89-5.31-36.57-9.85-73.25l-4.23-36.71-1.92-18.37-.86-9.18c-.23-3-.53-6.25-.63-8.89v-.45a2,2,0,0,0-3.93.05Z" class="cls-3" transform="translate(-459.96 -455)"/><circle cx="2360.18" cy="1265.06" r="599.09" class="cls-5" transform="translate(-663.21 1584.43) rotate(-45)"/><circle cx="1900.23" cy="810.06" r="511.3" class="cls-6"/><path d="M2360.18,1802c-296,0-536.91-240.86-536.91-536.91s240.86-536.91,536.91-536.91S2897.09,969,2897.09,1265.06,2656.23,1802,2360.18,1802Zm0-1048.21c-281.93,0-511.29,229.36-511.29,511.3s229.36,511.29,511.29,511.29,511.3-229.36,511.3-511.29S2642.11,753.76,2360.18,753.76Z" class="cls-5" transform="translate(-459.96 -455)"/><circle cx="2360.18" cy="1265.06" r="311.71" class="cls-7" transform="translate(-663.21 1584.43) rotate(-45)"/><path d="M2360.18,1602.38c-186,0-337.32-151.32-337.32-337.32s151.32-337.32,337.32-337.32,337.32,151.32,337.32,337.32S2546.18,1602.38,2360.18,1602.38Zm0-623.42c-157.76,0-286.1,128.34-286.1,286.1s128.34,286.1,286.1,286.1,286.1-128.35,286.1-286.1S2517.94,979,2360.18,979Z" class="cls-5" transform="translate(-459.96 -455)"/><circle cx="2360.18" cy="1265.06" r="120.77" class="cls-8" transform="translate(51.06 2746.91) rotate(-74.52)"/><path d="M2360.18,1411.43c-80.71,0-146.37-65.66-146.37-146.37s65.66-146.38,146.37-146.38,146.38,65.66,146.38,146.38S2440.89,1411.43,2360.18,1411.43Zm0-241.53a95.16,95.16,0,1,0,95.16,95.16A95.26,95.26,0,0,0,2360.18,1169.9Z" class="cls-5" transform="translate(-459.96 -455)"/><rect width="22.83" height="864.67" x="2777.4" y="418.35" class="cls-9" transform="translate(3699.36 2969.18) rotate(-135)"/><path d="M2486.47,1109.36c9.27-9.26,52.94,34.4,43.67,43.67l-162,127.33c-6,4.7-13.74-3-9-9Z" class="cls-10" transform="translate(-459.96 -455)"/><path d="M3102.25,553.4l82.25,8.18L3071.58,674.49a174.56,174.56,0,0,1-140.7,50.28h0Z" class="cls-4" transform="translate(-459.96 -455)"/><path d="M3086.1,537.25,3077.93,455,2965,567.92a174.58,174.58,0,0,0-50.28,140.7h0Z" class="cls-4" transform="translate(-459.96 -455)"/><path d="M1654.54,1118.7H2741.43a48.66,48.66,0,0,1,48.66,48.66V2777.6a17.69,17.69,0,0,1-17.69,17.69H1605.89a0,0,0,0,1,0,0V1167.36A48.66,48.66,0,0,1,1654.54,1118.7Z" class="cls-11"/><path d="M1138.08,1458h934.76a48.66,48.66,0,0,1,48.66,48.66V2800a0,0,0,0,1,0,0H1089.42a0,0,0,0,1,0,0V1506.63A48.66,48.66,0,0,1,1138.08,1458Z" class="cls-4"/><path d="M560.78,1978.53h792a48.66,48.66,0,0,1,48.66,48.66v768.1a0,0,0,0,1,0,0H529.81a17.69,17.69,0,0,1-17.69-17.69V2027.19A48.66,48.66,0,0,1,560.78,1978.53Z" class="cls-12"/><path d="M48.66,2297.27h792a48.66,48.66,0,0,1,48.66,48.66v449.37a0,0,0,0,1,0,0H17.69A17.69,17.69,0,0,1,0,2777.6V2345.93A48.66,48.66,0,0,1,48.66,2297.27Z" class="cls-4"/><polygon points="2421.51 1070.43 2387.83 1070.43 2334.89 914.7 2482.05 905.76 2421.51 1070.43" class="cls-13"/><path d="M2705.27,1080.38c-.17,13.14-.17,270.49,130.47,312.28s189.65-176,185-331Z" class="cls-14" transform="translate(-459.96 -455)"/><rect width="208.86" height="25.36" x="2300.24" y="1094.05" class="cls-15"/><polygon points="2509.1 1094.05 2300.24 1094.05 2353.1 1065.7 2456.24 1065.7 2509.1 1094.05" class="cls-16"/><path d="M2690.13,1043.86c-11.47.7-20.85,9.19-20.85,18.87v19.79c0,9.68,9.39,17.09,20.86,16.48l358-19.27c11.47-.62,20.86-9,20.86-18.72V1038.4c0-9.67-9.38-17-20.85-16.33Z" class="cls-17" transform="translate(-459.96 -455)"/><path d="M2928.26,1413.11c-8.35,0-15.55-5.27-16.52-12.42-1-7.68,5.51-14.63,14.64-15.51,1.74-.17,121.88-12.86,133.28-78.62,1.92-11.09,1.7-25.57-10.22-31.61-9.84-5-26-3.41-37.47,3.68-6.55,4-13.72,11.1-10.67,21.85,2.13,7.53-3.38,15.08-12.32,16.88s-17.92-2.85-20.05-10.37c-5.53-19.5,3.22-38.55,23.39-51,22.41-13.8,53-15.89,74.29-5.08,12.47,6.32,32.42,22.48,26,59.67-6.37,36.76-37.07,66.22-88.79,85.17a329.87,329.87,0,0,1-73.63,17.24C2929.53,1413.08,2928.89,1413.11,2928.26,1413.11Z" class="cls-18" transform="translate(-459.96 -455)"/><path d="M2803.65,1413.11c8.34,0,15.54-5.27,16.51-12.42,1-7.68-5.51-14.63-14.64-15.51-1.73-.17-121.88-12.86-133.27-78.62-1.92-11.09-1.71-25.57,10.21-31.61,9.84-5,25.95-3.41,37.47,3.68,6.55,4,13.72,11.1,10.67,21.85-2.13,7.53,3.38,15.08,12.33,16.88s17.91-2.85,20-10.37c5.53-19.5-3.21-38.55-23.39-51-22.41-13.8-53-15.89-74.29-5.08-12.47,6.32-32.42,22.48-26,59.67,6.37,36.76,37.07,66.22,88.79,85.17a329.87,329.87,0,0,0,73.63,17.24C2802.38,1413.08,2803,1413.11,2803.65,1413.11Z" class="cls-19" transform="translate(-459.96 -455)"/><path d="M2949.84,1060.16a2.72,2.72,0,0,1-.14-5.44l32-1.72a2.72,2.72,0,0,1,.3,5.44l-32,1.72Z" class="cls-20" transform="translate(-459.96 -455)"/><path d="M2705.26,1073.32a2.72,2.72,0,0,1-.15-5.44l191-10.27a2.72,2.72,0,1,1,.3,5.43l-191,10.28Z" class="cls-20" transform="translate(-459.96 -455)"/><path d="M2853.17,1363.48h-.32c-34.59-4-62.24-32.15-82.19-83.72-16.47-42.59-24.24-92.43-27.86-126.74a2.72,2.72,0,1,1,5.41-.57c6.22,58.9,28.92,196.84,105.26,205.62a2.72,2.72,0,0,1-.3,5.42Z" class="cls-20" transform="translate(-459.96 -455)"/><path d="M2743.2,1128.54a2.73,2.73,0,0,1-2.72-2.55c-.51-7.85-.64-12.37-.65-12.56a2.72,2.72,0,0,1,2.64-2.8,2.62,2.62,0,0,1,2.8,2.64s.14,4.62.64,12.37a2.72,2.72,0,0,1-2.54,2.89Z" class="cls-20" transform="translate(-459.96 -455)"/><path d="M1285.08,1772.12,1215.8,1878.7c32.23,62.78,68,97.44,103.84,113.92,6.39-39.11,29.24-71.58,46-90.87C1301.77,1865.41,1285.08,1772.12,1285.08,1772.12Z" class="cls-21" transform="translate(-459.96 -455)"/><path d="M1523.1,1882.62c-70.93,42-121.62,39.51-157.45,19.13-16.77,19.29-39.62,51.76-46,90.87,113.84,52.38,227.84-79.46,227.84-79.46Z" class="cls-22" transform="translate(-459.96 -455)"/><path d="M1527,1900.87s-19.15-33.38,8.39-59c0,0,8.88-10.13,18.62,4.75,0,0,29.63-26.89,37.73-16.06s29.57,37.66,8.6,68.25C1579.09,1929.74,1536.31,1916,1527,1900.87Z" class="cls-23" transform="translate(-459.96 -455)"/><path d="M1556.07,1882.29a16.64,16.64,0,0,1-8.54-2.11c-2.61-1.55-5.9-4.78-6.74-11.38a3.46,3.46,0,1,1,6.87-.88c.4,3.11,1.51,5.17,3.39,6.29,2.63,1.57,6.54,1.25,9.44.62l-6.71-21.28a3.46,3.46,0,0,1,6.61-2.08l7.77,24.65a3.46,3.46,0,0,1-2,4.27A29.87,29.87,0,0,1,1556.07,1882.29Z" class="cls-24" transform="translate(-459.96 -455)"/><path d="M519.27,2598.36c-6.17,3.71-9.32,11.53-7.85,19.19,5.78,30.13,24.79,109.73,71,156.85a6.92,6.92,0,0,0,10.16,0c-11.69-12.18-26.18-33-43.13-68.36C523.37,2651.73,518.54,2618.22,519.27,2598.36Z" class="cls-25" transform="translate(-459.96 -455)"/><path d="M578.88,2597.24s-29.77-16.19-59.41,1l-.2.14c-.73,19.86,4.1,53.37,30.14,107.71,17,35.36,31.44,56.18,43.13,68.36a8,8,0,0,0,1.93-3.39C603.14,2740.92,621.45,2657.2,578.88,2597.24Z" class="cls-26" transform="translate(-459.96 -455)"/><path d="M621.88,2599.11l-27,25.88a14.14,14.14,0,0,1-17.6,1.66,37.11,37.11,0,0,1-13.71-16.89,14.23,14.23,0,0,1,2.6-15.06l26.93-29.63a14.2,14.2,0,0,1,22.73,2.33l8.42,14.24A14.2,14.2,0,0,1,621.88,2599.11Z" class="cls-27" transform="translate(-459.96 -455)"/><path d="M1493.8,2469.28c6.27,3.53,14.62,2.4,20.55-2.66,23.34-19.92,83.14-75.78,101.29-139.21a6.93,6.93,0,0,0-5-8.85c-4.81,16.18-15.75,39.07-38.11,71.28C1538.16,2439.34,1511.41,2460.1,1493.8,2469.28Z" class="cls-28" transform="translate(-459.96 -455)"/><path d="M1463.35,2418s.64,33.88,30.22,51.16a1.63,1.63,0,0,0,.23.11c17.61-9.18,44.36-29.94,78.73-79.44,22.36-32.21,33.3-55.1,38.11-71.28a8,8,0,0,0-3.9,0C1576.26,2325.91,1494.44,2351.36,1463.35,2418Z" class="cls-29" transform="translate(-459.96 -455)"/><path d="M1461.27,2361.91l28.18,24.55a14.15,14.15,0,0,1,3.23,17.38,37.06,37.06,0,0,1-15.61,15.17,14.22,14.22,0,0,1-15.23-1.24l-31.91-24.18a14.19,14.19,0,0,1,.29-22.84l13.43-9.66A14.2,14.2,0,0,1,1461.27,2361.91Z" class="cls-30" transform="translate(-459.96 -455)"/><path d="M895.7,2113.36s-55,187.39-90.57,269.75c0,0-62.16,9.48-100.64,32s-121.35,147.08-121.35,147.08,21.64,41.09,47.76,47.39l235.92-163.46,188.29-219-8.94-101.56Z" class="cls-31" transform="translate(-459.96 -455)"/><path d="M899.09,2098.08,883,2149.39s14.72,134.53,184.32,111.85,190.92-50.38,190.92-50.38-14.72,85.92,170.73,189.23c0,0,28.19-21.28,34.39-45.45l-130-214.2c-18.08-28.09-34.84-35.49-67.85-30.33-73,11.41-209.65,26.29-230.33,22.76Z" class="cls-32" transform="translate(-459.96 -455)"/><path d="M1031.55,1716.51c-49.43,2.51-127.56,26-178,72.46,15.51,17.13,39.38,45,57.17,72.47,15.9-14.93,38.73-27.36,70.87-35.32C953.79,1930,921,2028.89,880.93,2120.85a10.73,10.73,0,0,0,6.27,14.47c31,10.79,122.29,36.5,195.53-4.89l162.39-232.52a199,199,0,0,0,33.55-83.84l6.41-42S1139.24,1711,1031.55,1716.51Z" class="cls-33" transform="translate(-459.96 -455)"/><path d="M943,2068.36c-7.06-15.58-31.22-30.14-42.76-36.4-10-20.68-50.07-113.68,10.47-170.52-17.79-27.5-41.66-55.34-57.17-72.47-58.23,53.61-79.55,137.82,22.56,255.73-5.57,29,12.61,62.85,22.45,67.59C903.07,2114.47,952.36,2089.07,943,2068.36Z" class="cls-34" transform="translate(-459.96 -455)"/><path d="M1141.23,1654.75l-42.42,83a13.73,13.73,0,0,0,2,15.43c10.27,11.44,34.53,30,76.74,16.7a12.8,12.8,0,0,0,8.71-10.38l11-75.42Z" class="cls-35" transform="translate(-459.96 -455)"/><path d="M1212,1558.32s24.88,57.16,26.55,87.17S1246.65,1695,1212,1701s-63.92-11.24-79.75-41.13c0,0-24.8-46-19.24-64.91S1212,1558.32,1212,1558.32Z" class="cls-36" transform="translate(-459.96 -455)"/><path d="M1144.07,1638.38l2-.87a4.76,4.76,0,0,0,2.33-6.54c-4.89-9.45-14.43-31.11-2.11-36.16,15.88-6.51,78.76-19.34,92.33-41.65,13-21.45,1.49-49.13-15.88-57a2.39,2.39,0,0,0-3.12,1l-1.45,2.74a2.36,2.36,0,0,1-4.35-.44h0a2.34,2.34,0,0,0-4.24-.61c-4.17,6.67-15.43,17.5-45.55,23.05-42.79,7.9-71.09,25.22-71.79,54.79a2.36,2.36,0,0,1-3.65,2c-3.16-1.93-8.21-2.83-15,2.85-11.76,9.88-6.95,35.52,18.82,56.61a2.34,2.34,0,0,1-.11,3.77c-4.67,3-11.64,10.28,6.4,19.92,18.67,10,32.6,9.16,38,8.27a2.35,2.35,0,0,0,1.9-2.83l-5.73-26a2.37,2.37,0,0,1,2.31-2.87Z" class="cls-37" transform="translate(-459.96 -455)"/><path d="M1145.14,1643.87s-9.49-36.51-25.86-26.28,8.5,40.91,21.66,42.28Z" class="cls-38" transform="translate(-459.96 -455)"/></g></svg>